<?xml version="1.0" standalone="no"?>
<!DOCTYPE svg PUBLIC "-//W3C//DTD SVG 1.1//EN" "http://www.w3.org/Graphics/SVG/1.1/DTD/svg11.dtd" >
<svg xmlns="http://www.w3.org/2000/svg" xmlns:xlink="http://www.w3.org/1999/xlink" version="1.1">
<metadata>
Created by FontForge 20170731 at Mon Jan 30 18:29:11 2023
 By Aleksey,,,
(c) Copyright 2022, Berkeley Graphics LLC. All Rights Reserved.
</metadata>
<defs>
<font id="BerkeleyMono-Bold" horiz-adv-x="600" >
  <font-face 
    font-family="Berkeley Mono"
    font-weight="700"
    font-stretch="normal"
    units-per-em="1000"
    panose-1="0 0 0 0 0 0 0 0 0 0"
    ascent="800"
    descent="-200"
    x-height="520"
    cap-height="680"
    bbox="-1686 -244 635 1011"
    underline-thickness="100"
    underline-position="-270"
    unicode-range="U+0020-FFFD"
  />
<missing-glyph 
d="M492 -240h-380v1200h380v-1200zM400 -157v39h-123l84 57h39v39h-200v-39h84l-84 -57v-39h200zM400 6v136h-200v-136h200zM400 214v135h-120v-67h40v28h40v-57h-120v96h-40v-135h200zM400 376v120h-40v-80h-160v-40h200zM320 444v84h80v40h-200v-40h80v-44h-80v-40h120z
M400 600v41h-80v84h-120v-125h200zM400 756v40h-80v44h80v40h-198v-40h78v-44h-80v-40h200zM240 102h120v-56h-120v56zM240 684h40v-43h-40v43z" />
    <glyph glyph-name=".notdef" 
d="M492 -240h-380v1200h380v-1200zM400 -157v39h-123l84 57h39v39h-200v-39h84l-84 -57v-39h200zM400 6v136h-200v-136h200zM400 214v135h-120v-67h40v28h40v-57h-120v96h-40v-135h200zM400 376v120h-40v-80h-160v-40h200zM320 444v84h80v40h-200v-40h80v-44h-80v-40h120z
M400 600v41h-80v84h-120v-125h200zM400 756v40h-80v44h80v40h-198v-40h78v-44h-80v-40h200zM240 102h120v-56h-120v56zM240 684h40v-43h-40v43z" />
    <glyph glyph-name=".null" horiz-adv-x="0" 
 />
    <glyph glyph-name="nonmarkingreturn" 
 />
    <glyph glyph-name="space" unicode=" " 
 />
    <glyph glyph-name="exclam" unicode="!" 
d="M239 413v318h122v-318l-15 -155h-92zM215 165h171v-165h-171v165z" />
    <glyph glyph-name="quotedbl" unicode="&#x22;" 
d="M134 655v86h131v-86l-19 -265h-93zM334 741h131v-86l-19 -265h-93l-19 265v86z" />
    <glyph glyph-name="numbersign" unicode="#" 
d="M106 175h-101l20 98h102l28 135h-100l20 97h102l37 175h106l-38 -175h99l38 175h107l-37 -175h106l-20 -97h-106l-29 -135h106l-21 -98h-105l-38 -175h-108l37 175h-98l-37 -175h-107zM334 269l31 143h-105l-31 -143h105z" />
    <glyph glyph-name="dollar" unicode="$" 
d="M254 13q-77 4 -119.5 25t-59.5 63t-14 114h120q2 -45 18 -66t55 -28v190q-74 23 -114 47t-57 56.5t-17 81.5q0 62 17 98t57.5 53t113.5 21v107h96v-107q69 -5 107 -23.5t54.5 -56.5t16.5 -102h-122q-2 33 -14 50t-42 23v-164q75 -24 115.5 -49.5t57.5 -61.5t17 -92
q0 -64 -17.5 -101.5t-58.5 -55.5t-114 -22v-113h-96v113zM200.5 460q15.5 -15 53.5 -31v133q-38 -4 -53.5 -19.5t-15.5 -49.5q0 -18 15.5 -33zM405 140q16 17 16 51q0 29 -16 49t-55 38v-159q39 4 55 21z" />
    <glyph glyph-name="percent" unicode="%" 
d="M468 680h114l-455 -680h-113zM41.5 658.5q33.5 33.5 114.5 33.5q82 0 116.5 -33.5t34.5 -113.5q0 -79 -34 -111.5t-117 -32.5q-81 0 -114.5 32.5t-33.5 111.5q0 80 33.5 113.5zM108 501q3 -12 12.5 -15.5t35.5 -3.5t36.5 3.5t14 16t3.5 42.5q0 33 -3.5 46.5t-14 17.5
t-36.5 4q-25 0 -35 -4t-13 -17t-3 -47q0 -31 3 -43zM324.5 248.5q33.5 33.5 114.5 33.5q82 0 116.5 -33.5t34.5 -113.5q0 -79 -34 -111.5t-117 -32.5q-81 0 -114.5 32.5t-33.5 111.5q0 80 33.5 113.5zM391 91q3 -12 12.5 -15.5t35.5 -3.5t36.5 3.5t14 16t3.5 42.5
q0 33 -3.5 46.5t-14 17.5t-36.5 4q-25 0 -35 -4t-13 -17t-3 -47q0 -31 3 -43z" />
    <glyph glyph-name="ampersand" unicode="&#x26;" 
d="M118 8.5q-49 17.5 -70 59.5t-21 119q0 48 26 87.5t98 99.5q-51 66 -69.5 100t-18.5 64q0 59 16 91.5t53.5 46t107.5 13.5t108 -13.5t54 -46t16 -91.5q0 -29 -26.5 -65.5t-99.5 -106.5l114 -137l-3 112h99q1 -18 1 -51q0 -96 -16 -156l111 -133h-136l-31 37
q-24 -25 -67.5 -36t-105.5 -11q-91 0 -140 17.5zM152.5 125.5q11.5 -19.5 38 -27.5t76.5 -8q38 0 60 5t37 24l-148 178q-43 -43 -59 -67.5t-16 -46.5q0 -38 11.5 -57.5zM186.5 500.5q10.5 -20.5 40.5 -57.5q46 47 61 65t15 30q0 31 -13 42.5t-49 11.5q-38 0 -51.5 -11.5
t-13.5 -42.5q0 -17 10.5 -37.5z" />
    <glyph glyph-name="quotesingle" unicode="'" 
d="M227 655v86h145v-86l-21 -265h-103z" />
    <glyph glyph-name="parenleft" unicode="(" 
d="M338.5 -103q-50.5 22 -81.5 71t-52 139q-13 56 -18 102t-5 118t5 118t18 102q21 90 52 139t82 71t135 25l-1 -112q-51 -2 -80.5 -15.5t-47 -45.5t-28.5 -90q-10 -57 -14 -97.5t-4 -94.5t4 -94.5t14 -97.5q11 -58 28.5 -90t47 -45.5t80.5 -15.5l1 -112q-85 3 -135.5 25z
" />
    <glyph glyph-name="parenright" unicode=")" 
d="M207.5 -0.5q29.5 13.5 47 45.5t28.5 90q10 57 14 97.5t4 94.5t-4 94.5t-14 97.5q-11 58 -28.5 90t-47 45.5t-80.5 15.5l-1 112q84 -3 135 -25t82 -71t52 -139q13 -56 18 -102t5 -118t-5 -118t-18 -102q-21 -90 -52 -139t-81.5 -71t-135.5 -25l1 112q51 2 80.5 15.5z" />
    <glyph glyph-name="asterisk" unicode="*" 
d="M332 206l-33 69l-33 -70l-54 -76l-101 73l50 70l67 60l-84 12l-86 28l35 109l92 -27l67 -39l-17 83v89h127v-89l-16 -82l68 38l93 29l36 -113l-88 -28l-84 -10l63 -58l54 -73l-98 -73z" />
    <glyph glyph-name="plus" unicode="+" 
d="M241 249h-202v106h202v210h118v-210h202v-106h-202v-216h-118v216z" />
    <glyph glyph-name="comma" unicode="," 
d="M221 57v93h158v-89q0 -5 -2 -15t-7 -19l-106 -218h-119l74 232q2 6 2 16z" />
    <glyph glyph-name="hyphen" unicode="-" 
d="M110 353h380v-110h-380v110z" />
    <glyph glyph-name="period" unicode="." 
d="M205 183h190v-183h-190v183z" />
    <glyph glyph-name="slash" unicode="/" 
d="M418 781h121l-359 -908h-120z" />
    <glyph glyph-name="zero" unicode="0" 
d="M177 2.5q-42 11.5 -66.5 45t-41.5 102.5q-19 81 -19 192q0 115 21 193q17 66 40.5 98.5t66 45t122.5 12.5t122 -12.5t65.5 -44.5t40.5 -98q21 -80 21 -201q0 -57 -4.5 -100t-15.5 -87q-17 -68 -42 -101t-67 -44.5t-122 -11.5q-79 0 -121 11.5zM180 242l225 285
q-9 35 -30.5 46.5t-76.5 11.5q-43 0 -63 -6.5t-29 -23t-17 -53.5q-6 -33 -10 -68.5t-4 -92.5t5 -99zM228.5 106q20.5 -9 70.5 -9q45 0 66 7.5t29 23.5t16 54q14 63 14 162q0 45 -3 75l-221 -280q8 -24 28.5 -33z" />
    <glyph glyph-name="one" unicode="1" 
d="M301 478l4 62l-39 -32l-180 -111v132l215 151h124v-680h-124v478z" />
    <glyph glyph-name="two" unicode="2" 
d="M265 319q64 52 103 91q19 20 26 38t7 46q0 35 -9.5 53.5t-32.5 26.5t-65 8t-65.5 -8.5t-34.5 -28t-14 -55.5h-128q4 79 26.5 121.5t73 60.5t141.5 18q92 0 141.5 -17.5t70.5 -60t21 -120.5q0 -53 -15 -87t-57 -76q-53 -53 -107.5 -97t-150.5 -111v-9h339v-112h-468v165
q134 102 198 154z" />
    <glyph glyph-name="three" unicode="3" 
d="M145.5 0q-42.5 9 -90.5 32v125q61 -32 103.5 -45t88.5 -13q79 0 110.5 26.5t31.5 93.5q0 53 -24.5 76.5t-83.5 23.5q-43 0 -109 -12v116l177 148v3h-280v106h418v-116l-173 -140v-5q28 2 39 2q86 0 123 -46.5t37 -155.5q0 -86 -25.5 -135t-82.5 -71t-157 -22
q-60 0 -102.5 9z" />
    <glyph glyph-name="four" unicode="4" 
d="M60 238l219 452h134l-227 -458h151v159h120v-159h93v-108h-93v-124h-120v124h-277v114z" />
    <glyph glyph-name="five" unicode="5" 
d="M155 2q-43 9 -91 32v125q64 -32 107.5 -45t88.5 -13q79 0 110 29.5t31 103.5q0 52 -21.5 75.5t-74.5 28.5q-25 3 -54 3q-59 0 -170 -16l30 355h385v-106l-274 -2l-10 -124q32 2 44 2q15 0 63 -4q78 -9 122.5 -32.5t64 -67t19.5 -115.5q0 -90 -25.5 -141.5t-83.5 -74
t-158 -22.5q-60 0 -103 9z" />
    <glyph glyph-name="six" unicode="6" 
d="M149 8q-50 18 -68.5 66t-18.5 147q0 92 19.5 156t70.5 134t156 179h161q-147 -139 -197.5 -193.5t-67.5 -90.5v-11q24 27 46.5 35t71.5 8q93 0 137.5 -17.5t61.5 -63t17 -139.5q0 -98 -18.5 -145t-67.5 -65t-151 -18t-152 18zM189 130.5q10 -25.5 35.5 -35t76.5 -9.5
q52 0 77 10t34.5 37.5t9.5 83.5q0 52 -9.5 77.5t-34.5 35t-77 9.5q-53 0 -78.5 -10t-34.5 -37t-9 -84q0 -52 10 -77.5z" />
    <glyph glyph-name="seven" unicode="7" 
d="M380 566h-331v114h466v-120l-291 -570h-140z" />
    <glyph glyph-name="eight" unicode="8" 
d="M144.5 5.5q-50.5 15.5 -69.5 56.5t-19 125q0 49 10 77t36.5 49t80.5 46v8q-47 21 -70 38.5t-31.5 42t-8.5 67.5q0 75 18 111.5t64.5 50t143.5 13.5t144 -13.5t65 -50t18 -111.5q0 -44 -8.5 -68.5t-31.5 -42t-70 -37.5v-8q55 -26 81.5 -47.5t36.5 -49t10 -75.5
q0 -84 -19 -125t-70 -56.5t-156 -15.5q-104 0 -154.5 15.5zM188.5 128q9.5 -18 34.5 -25t76 -7q52 0 77.5 6.5t35 24.5t9.5 54q0 37 -9.5 58.5t-35.5 37.5t-79 35q-51 -17 -75.5 -32t-33.5 -36.5t-9 -60.5q0 -37 9.5 -55zM204 467q8 -17 28.5 -29t64.5 -25q46 13 67.5 25
t30 29t8.5 47t-8 45t-29.5 20.5t-65.5 5.5q-45 0 -66.5 -5.5t-29.5 -20t-8 -44.5q0 -31 8 -48z" />
    <glyph glyph-name="nine" unicode="9" 
d="M269.5 133q45.5 52 100.5 132h-8q-22 -20 -37.5 -26t-44.5 -6q-96 0 -142.5 17.5t-64 64.5t-17.5 143q0 99 18.5 147.5t68 66.5t150.5 18q103 0 152.5 -18.5t68 -67.5t18.5 -150q0 -85 -19.5 -146.5t-71 -132t-157.5 -185.5h-154q94 91 139.5 143zM181.5 375.5
q9.5 -26.5 34 -36.5t75.5 -10q54 0 80 10.5t35.5 39.5t9.5 89q0 53 -10 79t-35.5 36t-77.5 10t-77 -10.5t-34.5 -39t-9.5 -86.5q0 -55 9.5 -81.5z" />
    <glyph glyph-name="colon" unicode=":" 
d="M204 203h190v-183h-190v183zM204 596h190v-183h-190v183z" />
    <glyph glyph-name="semicolon" unicode=";" 
d="M220 117v93h158v-89q0 -5 -2 -15t-7 -19l-106 -218h-119l74 232q2 6 2 16zM204 591h190v-183h-190v183z" />
    <glyph glyph-name="less" unicode="&#x3c;" 
d="M56 250v114l488 238v-129l-371 -165v-2l371 -165v-129z" />
    <glyph glyph-name="equal" unicode="=" 
d="M48 456h504v-107h-504v107zM48 256h504v-107h-504v107z" />
    <glyph glyph-name="greater" unicode="&#x3e;" 
d="M56 141l371 165v2l-371 165v129l488 -238v-114l-488 -238v129z" />
    <glyph glyph-name="question" unicode="?" 
d="M228 314.5q15 28.5 36 43t57 30.5q30 14 47 25.5t29 31t12 50.5q0 38 -9.5 58.5t-33 28.5t-68.5 8q-42 0 -64.5 -7t-31 -23t-7.5 -47h-122q-2 72 17.5 109.5t67.5 53t140 15.5q93 0 142 -17t69 -58.5t20 -120.5q0 -63 -20 -102t-47.5 -58t-67.5 -36q-34 -15 -48.5 -26.5
t-14.5 -32.5v-34h-118v34q0 46 15 74.5zM188 159h171v-159h-171v159z" />
    <glyph glyph-name="at" unicode="@" 
d="M101.5 -88q-37.5 15 -52 52t-14.5 111v436q0 81 14.5 121t52.5 56.5t116 16.5h199q58 0 87.5 -16.5t41 -57.5t11.5 -121v-46l-1 -369h-73q-4 2 -16 36h-8q-12 -19 -19.5 -26.5t-19.5 -9.5t-39 -2q-82 0 -113.5 9.5t-44 49.5t-12.5 140q0 99 12 139t43 49.5t111 9.5
q22 0 33.5 -6t37.5 -34h7v60q0 45 -2.5 62.5t-9.5 22.5t-26 5h-200q-36 0 -50 -5t-18 -21.5t-4 -60.5v-436q0 -39 3.5 -53t17 -18.5t48.5 -4.5h217v-104h-215q-77 0 -114.5 15zM323 222q6 -20 19.5 -24.5t47.5 -4.5t45 4.5t13.5 21.5t2.5 70q0 56 -2.5 74t-13.5 22.5
t-45 4.5t-47.5 -4.5t-19.5 -25t-6 -69.5t6 -69z" />
    <glyph glyph-name="A" unicode="A" 
d="M211 680h178l197 -680h-126l-44 150h-230l-43 -150h-125zM387 261l-87 303h-1l-83 -303h171z" />
    <glyph glyph-name="B" unicode="B" 
d="M57 2v680l170 3h-9q120 0 185 -17t92.5 -57.5t27.5 -114.5q0 -67 -19.5 -97t-70.5 -41v-6q47 -8 72.5 -26t36 -50t10.5 -87q0 -78 -27 -120t-90.5 -59.5t-181.5 -17.5q-88 0 -196 10zM270 102q61 0 93.5 8.5t46.5 29t14 58.5q0 39 -11.5 60t-38 29.5t-76.5 8.5h-115v-192
q47 -2 87 -2zM323 406q43 2 58.5 18.5t15.5 62.5q0 45 -20.5 63t-77.5 23q-37 3 -83 3h-33v-170h140z" />
    <glyph glyph-name="C" unicode="C" 
d="M162 22.5q-57 31.5 -81 105.5t-24 211q0 138 24 213t81 106.5t163 31.5q89 0 138 -18.5t71 -62t25 -123.5h-125q-10 55 -33 75t-76 20q-55 0 -85 -21.5t-42.5 -73.5t-12.5 -147q0 -94 12.5 -145t42.5 -72.5t85 -21.5q59 0 83 18.5t32 70.5h125q-5 -78 -28 -120.5
t-72.5 -60t-139.5 -17.5q-106 0 -163 31.5z" />
    <glyph glyph-name="D" unicode="D" 
d="M54 0v680q64 4 116 4q57 0 102 -5q114 -11 176.5 -46t88.5 -105.5t26 -196.5q0 -132 -30 -204.5t-101 -103.5t-201 -31q-74 0 -177 8zM261 102q68 4 105 26t52.5 71.5t15.5 138.5q0 84 -15 131.5t-50.5 70t-100.5 29.5q-51 5 -86 5v-469q60 -4 79 -3z" />
    <glyph glyph-name="E" unicode="E" 
d="M96 680h422v-110h-294v-162h254v-110h-254v-188h314v-110h-442v680z" />
    <glyph glyph-name="F" unicode="F" 
d="M85 680h462v-113h-334v-171h294v-112h-294v-284h-128v680z" />
    <glyph glyph-name="G" unicode="G" 
d="M154 22.5q-60 31.5 -85.5 106t-25.5 211.5q0 138 24 212.5t80.5 106t160.5 31.5q93 0 145 -18t75.5 -60t27.5 -120h-124q-3 35 -15 53.5t-37.5 26.5t-70.5 8q-55 0 -85 -22t-42.5 -74t-12.5 -147q0 -93 14 -143.5t46.5 -71.5t92.5 -21q38 0 61.5 4.5t49.5 15.5v153h-141
v109h262v-339q-67 -31 -115 -42t-114 -11q-111 0 -171 31.5z" />
    <glyph glyph-name="H" unicode="H" 
d="M57 680h128v-270h230v270h128v-680h-128v297h-230v-297h-128v680z" />
    <glyph glyph-name="I" unicode="I" 
d="M112 111h125v458h-118v111h361v-111h-118v-458h125v-111h-375v111z" />
    <glyph glyph-name="J" unicode="J" 
d="M131.5 10q-48.5 19 -68 63t-16.5 124h128q-1 -54 19 -74.5t74 -20.5q41 0 63.5 9.5t32 31.5t9.5 63v474h127v-478q0 -83 -20.5 -128t-69.5 -64t-139 -19q-91 0 -139.5 19z" />
    <glyph glyph-name="K" unicode="K" 
d="M55 680h127v-312l223 312h147l-244 -332v-3l282 -345h-159l-249 324v-324h-127v680z" />
    <glyph glyph-name="L" unicode="L" 
d="M82 680h128v-567h344v-112h-472v679z" />
    <glyph glyph-name="M" unicode="M" 
d="M35 680h151l109 -326h11l111 326h149v-680h-118v344l12 177h-4l-105 -294h-101l-105 294h-4l12 -177v-344h-118v680z" />
    <glyph glyph-name="N" unicode="N" 
d="M44 680h156l244 -533h3l-14 142v391h123v-680h-156l-244 533h-3l14 -142v-391h-123v680z" />
    <glyph glyph-name="O" unicode="O" 
d="M139.5 22q-56.5 31 -80 105t-23.5 211q0 139 23.5 214t80 106.5t160.5 31.5t160.5 -31.5t80 -106.5t23.5 -214q0 -137 -23.5 -211t-80 -105t-160.5 -31t-160.5 31zM174.5 194.5q12.5 -50.5 42 -72t83.5 -21.5t83 21.5t41.5 72t12.5 143.5q0 96 -12.5 147.5t-41.5 73
t-83 21.5t-83.5 -21.5t-42 -73.5t-12.5 -147q0 -93 12.5 -143.5z" />
    <glyph glyph-name="P" unicode="P" 
d="M232 683q126 0 194.5 -19.5t97 -66.5t28.5 -133q0 -85 -24.5 -131t-83.5 -65.5t-167 -19.5h-73v-248h-128v680zM267 359q62 0 96 10t48 33t14 66q0 41 -16 63t-53.5 31.5t-106.5 9.5h-45v-213h63z" />
    <glyph glyph-name="Q" unicode="Q" 
d="M379 -5q-29 -4 -73 -4q-104 0 -160.5 31t-80 105t-23.5 211q0 139 23.5 214t80 106.5t160.5 31.5t160.5 -31.5t80 -106.5t23.5 -214q0 -123 -19 -195t-64 -107l101 -129h-153zM180 196q12 -50 40.5 -72t81.5 -23l-78 111h127l55 -73q20 26 28.5 73.5t8.5 125.5
q0 96 -12.5 147.5t-41.5 73t-83 21.5t-83.5 -21.5t-42 -73.5t-12.5 -147q0 -92 12 -142z" />
    <glyph glyph-name="R" unicode="R" 
d="M70 679l119 4q21 1 59 1q110 0 170.5 -19t86 -62t25.5 -120q0 -51 -10.5 -80.5t-35.5 -45t-71 -22.5v-9q42 -7 62.5 -31t36.5 -83l57 -212h-137l-47 203q-10 44 -36 59.5t-88 15.5h-64v-278h-127v679zM326 389q45 0 61.5 21.5t16.5 77.5q0 44 -17 61.5t-63 20.5
q-55 3 -84 3t-43 -1v-183h129z" />
    <glyph glyph-name="S" unicode="S" 
d="M141.5 10q-56.5 19 -79.5 65t-20 130h125q3 -42 16 -64.5t42.5 -31.5t84.5 -9q48 0 74.5 7t37.5 24.5t11 49.5q0 30 -16 51t-52.5 38.5t-103.5 37.5q-84 25 -129.5 50.5t-64.5 60.5t-19 89q0 71 22.5 110t76 55.5t151.5 16.5q96 0 148.5 -17t75.5 -58t22 -117h-127
q-3 33 -14.5 50.5t-37 25t-71.5 7.5q-48 0 -73.5 -7t-36.5 -23t-11 -47q0 -29 38.5 -51.5t137.5 -53.5q82 -26 126.5 -53t63.5 -65.5t19 -98.5q0 -75 -23 -116t-77.5 -58t-155.5 -17q-104 0 -160.5 19z" />
    <glyph glyph-name="T" unicode="T" 
d="M236 566h-182v114h492v-114h-182v-566h-128v566z" />
    <glyph glyph-name="U" unicode="U" 
d="M152 12q-54 21 -77 70t-23 139v459h128v-454q0 -48 11.5 -74.5t38 -37.5t75.5 -11q45 0 69.5 11t35 37t10.5 74v455h128v-458q0 -91 -22 -140t-74 -70t-147 -21q-99 0 -153 21z" />
    <glyph glyph-name="V" unicode="V" 
d="M19 680h125l153 -530h5l153 530h125l-202 -680h-157z" />
    <glyph glyph-name="W" unicode="W" 
d="M7 680h110l39 -535h1l7 124l64 411h144l62 -411l8 -124h1l40 535h110l-81 -680h-133l-77 592h-4l-78 -592h-132z" />
    <glyph glyph-name="X" unicode="X" 
d="M230 355l-194 327h140l122 -224h3l120 224h142l-194 -327l204 -355h-142l-130 240h-3l-130 -240h-142z" />
    <glyph glyph-name="Y" unicode="Y" 
d="M236 277l-203 405h138l127 -279h5l128 279h137l-204 -405v-277h-128v277z" />
    <glyph glyph-name="Z" unicode="Z" 
d="M62 109l323 455h-306v116h459v-103l-325 -461h325v-116h-476v109z" />
    <glyph glyph-name="bracketleft" unicode="[" 
d="M220 781h277v-99h-161v-710h161v-99h-277v908z" />
    <glyph glyph-name="backslash" unicode="\" 
d="M420 -127l-359 908h121l358 -908h-120z" />
    <glyph glyph-name="bracketright" unicode="]" 
d="M103 -127v99h161v710h-161v99h277v-908h-277z" />
    <glyph glyph-name="asciicircum" unicode="^" 
d="M234 695h131l155 -287h-131l-89 164l-90 -164h-131z" />
    <glyph glyph-name="underscore" unicode="_" 
d="M41 -73h518v-112h-518v112z" />
    <glyph glyph-name="grave" unicode="`" 
d="M141 795h153l162 -207h-134z" />
    <glyph glyph-name="a" unicode="a" 
d="M140.5 5.5q-39.5 14.5 -56 49t-16.5 97.5q0 74 23 114.5t78 57.5t156 17h79v6q0 50 -22 68t-83 18q-55 0 -74.5 -14.5t-17.5 -55.5h-122q-3 68 15.5 104.5t65 52t133.5 15.5t134.5 -17t67.5 -57t20 -114v-347h-114v62h-8q-28 -41 -59 -56t-87 -15q-73 0 -112.5 14.5z
M207.5 109q17.5 -14 66.5 -14q50 0 77 13t38.5 44t13.5 89l-99 -1q-45 -1 -69.5 -8t-34.5 -23.5t-10 -47.5q0 -38 17.5 -52z" />
    <glyph glyph-name="b" unicode="b" 
d="M261.5 3.5q-29.5 13.5 -62.5 51.5h-8v-55h-121l1 728h121l-1 -246h8q27 37 57 51t84 14q86 0 132.5 -25t66 -84.5t19.5 -168.5q0 -110 -19.5 -169.5t-66 -84.5t-132.5 -25q-49 0 -78.5 13.5zM199.5 163.5q10.5 -37.5 35.5 -53t71 -15.5q51 0 78.5 15.5t39 52.5t11.5 106
q0 68 -11.5 105t-39 52.5t-78.5 15.5q-46 0 -71 -15.5t-35.5 -52.5t-10.5 -105t10.5 -105.5z" />
    <glyph glyph-name="c" unicode="c" 
d="M165 15q-54 24 -76.5 81.5t-22.5 163.5q0 108 22.5 167t76 83.5t151.5 24.5q86 0 133 -17t67.5 -57.5t22.5 -114.5h-121q-7 49 -27.5 66.5t-68.5 17.5q-53 0 -81.5 -15.5t-40.5 -52t-12 -103.5q0 -64 12 -99t41 -49.5t82 -14.5q46 0 66.5 15.5t29.5 57.5h120
q-2 -70 -22.5 -108t-67 -54t-131.5 -16q-99 0 -153 24z" />
    <glyph glyph-name="d" unicode="d" 
d="M128.5 14.5q-46.5 24.5 -66 83t-19.5 166.5q0 107 19.5 164.5t66 82t131.5 24.5q66 0 96 -13t46 -49h8v255h121v-728h-121v54h-8q-23 -37 -52.5 -50.5t-89.5 -13.5q-85 0 -131.5 24.5zM177.5 161.5q11.5 -36.5 39 -51.5t78.5 -15q46 0 71 15.5t35.5 51.5t10.5 102
t-10.5 101.5t-35.5 50.5t-71 15q-51 0 -78.5 -15t-39 -50.5t-11.5 -101.5t11.5 -102.5z" />
    <glyph glyph-name="e" unicode="e" 
d="M158 15.5q-53 24.5 -75.5 83.5t-22.5 167q0 106 21.5 163.5t73 81.5t146.5 24q91 0 142 -25.5t73.5 -85t22.5 -167.5l-1 -39h-355q4 -49 16 -75.5t37.5 -37.5t71.5 -11q45 0 65.5 14t32.5 52h124q-10 -66 -33 -102t-67 -51.5t-121 -15.5q-98 0 -151 24.5zM419 313
q0 68 -26.5 93.5t-91.5 25.5q-63 0 -90 -26t-27 -93h235z" />
    <glyph glyph-name="f" unicode="f" 
d="M213 414h-130l-33 108h163v61q0 65 21.5 100.5t70 51t136.5 15.5q40 0 89 -3v-104q-52 2 -70 2q-72 0 -99.5 -14.5t-27.5 -51.5v-57h186v-108h-186v-414h-120v414z" />
    <glyph glyph-name="g" unicode="g" 
d="M163 -204q-49 16 -70 53.5t-23 106.5h123q2 -31 11 -47t31.5 -22.5t67.5 -6.5t69.5 10.5t34.5 35t11 69.5l1 76h-8q-14 -30 -30 -45.5t-42.5 -22t-72.5 -6.5q-82 0 -128 24t-66.5 80.5t-20.5 159.5q0 107 20.5 165t70 82.5t139.5 24.5q57 0 84.5 -15.5t47.5 -57.5h8v62
h117v-537q0 -81 -21 -124.5t-71.5 -62t-143.5 -18.5q-90 0 -139 16zM184 163.5q11 -34.5 37.5 -49t74.5 -14.5t74 14.5t37 49t11 97.5q0 66 -11 102t-37 51.5t-74 15.5t-74.5 -15.5t-37.5 -51.5t-11 -102q0 -63 11 -97.5z" />
    <glyph glyph-name="h" unicode="h" 
d="M68 728h122v-276h8q25 47 56 65t86 18q77 0 118 -18t58.5 -61.5t17.5 -123.5v-332h-122v334q0 56 -20.5 76.5t-77.5 20.5q-49 0 -75.5 -14t-37.5 -48t-11 -97v-272h-122v728z" />
    <glyph glyph-name="i" unicode="i" 
d="M235 728h153v-141h-153v141zM90 103h174v316h-164v103h284v-419h167v-103h-461v103z" />
    <glyph glyph-name="j" unicode="j" 
d="M262 728h153v-141h-153v141zM102 -136q81 12 121 23.5t55 29.5t15 50v451h-156v104h276v-560q0 -77 -24.5 -116t-89 -58t-197.5 -28v104z" />
    <glyph glyph-name="k" unicode="k" 
d="M196 284v-284h-120v728h120v-435l221 229h144l-229 -233l252 -289h-153z" />
    <glyph glyph-name="l" unicode="l" 
d="M67 104h183v520h-173v104h293v-624h171v-104h-474v104z" />
    <glyph glyph-name="m" unicode="m" 
d="M25 522h108v-64h8q21 44 41 60.5t54 16.5q52 0 75 -16.5t36 -60.5h1q14 44 36 60.5t67 16.5q49 0 75 -18t37 -61.5t11 -123.5v-332h-111v314q0 65 -11 89t-40 24q-22 0 -34.5 -11.5t-17.5 -38.5t-5 -77v-300h-110l2 314q1 65 -11.5 89t-46.5 24q-21 0 -32.5 -12t-16 -40
t-4.5 -80v-295h-111v522z" />
    <glyph glyph-name="n" unicode="n" 
d="M68 522h122v-72h8q28 49 58 67t85 18q76 0 117 -18.5t58.5 -62t17.5 -124.5v-330h-122v332q0 55 -20.5 75t-76.5 20q-49 0 -75.5 -14t-38 -47.5t-11.5 -94.5v-271h-122v522z" />
    <glyph glyph-name="o" unicode="o" 
d="M150 15.5q-53 24.5 -75.5 82t-22.5 164.5q0 108 22.5 166t75 82.5t150.5 24.5t150.5 -24.5t75 -82.5t22.5 -166q0 -107 -22.5 -164.5t-75.5 -82t-150 -24.5t-150 24.5zM185.5 160.5q11.5 -35.5 38 -50.5t76.5 -15t76.5 15t38 50.5t11.5 101.5q0 67 -11.5 103t-38 51.5
t-76.5 15.5t-76.5 -15.5t-38 -51.5t-11.5 -103q0 -66 11.5 -101.5z" />
    <glyph glyph-name="p" unicode="p" 
d="M50 522h121v-51h8q32 36 60 49t73 13q89 0 137 -24.5t68.5 -82.5t20.5 -165q0 -106 -20 -163.5t-67.5 -82t-135.5 -24.5q-53 0 -82 13t-54 49h-8v-268h-121v737zM179.5 160.5q10.5 -35.5 35.5 -50.5t71 -15q51 0 78.5 15t39 50.5t11.5 100.5q0 66 -11.5 102t-39 51
t-78.5 15q-46 0 -71 -15t-35.5 -51t-10.5 -102q0 -65 10.5 -100.5z" />
    <glyph glyph-name="q" unicode="q" 
d="M428 53h-8q-27 -36 -56 -49t-82 -13q-87 0 -134 24.5t-67 82t-20 163.5q0 107 20 165t68 82.5t136 24.5q46 0 74.5 -13t60.5 -49h8v51h121v-737h-121v268zM195.5 160.5q11.5 -35.5 39 -50.5t78.5 -15q46 0 71 15t35.5 50.5t10.5 100.5q0 66 -10.5 102t-35.5 51t-71 15
q-51 0 -78.5 -15t-39 -51t-11.5 -102q0 -65 11.5 -100.5z" />
    <glyph glyph-name="r" unicode="r" 
d="M132 522h110l-5 -107h11q37 62 53 82t34 25t66 5l98 -2v-120q-18 1 -54 1q-55 0 -97 -5q-20 -3 -43 -26t-38 -55.5t-15 -62.5v-257h-120v522z" />
    <glyph glyph-name="s" unicode="s" 
d="M154.5 7q-51.5 16 -72.5 55t-19 110h123q1 -31 12 -47.5t37.5 -23.5t75.5 -7q59 0 81 11.5t22 42.5q0 20 -12.5 33.5t-42.5 23.5t-85 20q-80 15 -123.5 33.5t-62 47t-18.5 75.5q0 61 20.5 93.5t70 46.5t139.5 14q88 0 136 -14.5t68 -49t21 -98.5h-120q-2 34 -24.5 46.5
t-81.5 12.5q-62 0 -85 -11t-23 -41q0 -16 31.5 -28.5t122.5 -33.5q75 -17 116 -37.5t58.5 -51.5t17.5 -80q0 -62 -21 -96t-71.5 -48t-142.5 -14q-96 0 -147.5 16z" />
    <glyph glyph-name="t" unicode="t" 
d="M256 8q-37 19 -50 56.5t-13 102.5v252h-129l24 103h109v106l116 49v-155h195v-103h-195v-248q0 -32 5.5 -47t24 -22t56.5 -7q43 0 125 12v-105q-104 -13 -159 -13q-72 0 -109 19z" />
    <glyph glyph-name="u" unicode="u" 
d="M135.5 9q-37.5 18 -53.5 61t-16 122v330h122v-332q0 -55 18.5 -75t70.5 -20q53 0 81 14t40 47.5t12 95.5v270h122v-522h-122v73h-8q-26 -47 -59.5 -64.5t-100.5 -17.5q-69 0 -106.5 18z" />
    <glyph glyph-name="v" unicode="v" 
d="M26 522h127l143 -375h8l143 375h127l-215 -522h-118z" />
    <glyph glyph-name="w" unicode="w" 
d="M367 0l-64 421h-5l-65 -421h-141l-82 523h108l44 -403h2l73 402h127l72 -402h2l44 403h108l-82 -523h-141z" />
    <glyph glyph-name="x" unicode="x" 
d="M235 266l-182 256h134l111 -171h4l111 171h134l-182 -256l193 -266h-138l-118 172h-4l-118 -172h-138z" />
    <glyph glyph-name="y" unicode="y" 
d="M253 48h-34l-170 474h124l125 -384h5l123 384h126l-260 -737h-126z" />
    <glyph glyph-name="z" unicode="z" 
d="M75 89l285 325h-267v106h431v-85l-289 -327h289v-108h-449v89z" />
    <glyph glyph-name="braceleft" unicode="{" 
d="M333.5 -121q-52.5 7 -75.5 28.5t-23 69.5q0 28 6 66.5t19 104.5q8 40 8 55q0 18 -10 27.5t-30.5 14.5t-81.5 18v128q60 11 81 16.5t31 14.5t10 27q0 17 -8 57q-13 66 -19 104.5t-6 66.5q0 48 23 69.5t75.5 28.5t163.5 6v-104h-32q-49 0 -71.5 -2.5t-32.5 -11.5t-10 -29
t13 -82q16 -82 16 -119t-12.5 -56t-36.5 -28t-72 -17v-10q48 -8 72 -17t36.5 -28t12.5 -56t-16 -119q-13 -62 -13 -82t10 -29t31 -11.5t69 -2.5h36v-104q-111 -1 -163.5 6z" />
    <glyph glyph-name="bar" unicode="|" 
d="M240 789h120v-902h-120v902z" />
    <glyph glyph-name="braceright" unicode="}" 
d="M133 -23q49 0 71.5 2.5t32.5 11.5t10 29t-13 82q-16 82 -16 119t12.5 56t36.5 28t72 17v10q-48 8 -72 17t-36.5 28t-12.5 56t16 119q13 62 13 82t-10 29t-31 11.5t-69 2.5h-36v104q111 1 163.5 -6t75.5 -28.5t23 -69.5q0 -28 -6 -66.5t-19 -104.5q-8 -40 -8 -57
q0 -18 10 -27t31 -14.5t81 -16.5v-128q-61 -13 -81.5 -18t-30.5 -14.5t-10 -27.5q0 -15 8 -55q13 -66 19 -104.5t6 -66.5q0 -48 -23 -69.5t-75.5 -28.5t-163.5 -6v104h32z" />
    <glyph glyph-name="asciitilde" unicode="~" 
d="M360.5 186q-21.5 6 -42 21.5t-53.5 48.5q-32 33 -46.5 45.5t-21.5 15.5t-19 3q-14 0 -19 -3t-6.5 -16t-1.5 -49v-32h-115q-1 90 9.5 130t40 53.5t97.5 13.5q35 0 57 -6t43.5 -21.5t53.5 -48.5q27 -27 43.5 -42.5t23 -18.5t17.5 -3q15 0 20.5 3t7 17t1.5 52v32h114
q1 -92 -9.5 -132.5t-40.5 -54.5t-98 -14q-34 0 -55.5 6z" />
    <glyph glyph-name="uni00A0" unicode="&#xa0;" 
 />
    <glyph glyph-name="exclamdown" unicode="&#xa1;" 
d="M349 462l15 -155v-318h-122v318l15 155h92zM218 720h171v-165h-171v165z" />
    <glyph glyph-name="cent" unicode="&#xa2;" 
d="M260 75q-73 7 -114.5 35t-59 83t-17.5 149q0 97 17.5 153t58.5 84.5t115 35.5v82h96v-81q71 -3 110.5 -21.5t56.5 -58t19 -108.5h-121q-6 40 -20.5 59t-44.5 23v-330q29 4 43.5 20t22.5 51h120q-2 -65 -19.5 -102t-57 -54.5t-109.5 -20.5v-80h-96v81zM206.5 234
q15.5 -35 53.5 -48v318q-38 -13 -53.5 -50.5t-15.5 -112.5q0 -72 15.5 -107z" />
    <glyph glyph-name="sterling" unicode="&#xa3;" 
d="M112 155.5q21 19.5 29.5 50t7.5 85.5h-110l28 106h74l-2 16q-6 60 -6 103q0 66 18 100t60 48t123 19q12 1 38 1q40 0 111 -7v-114q-68 13 -102 13q-26 0 -45 -2q-36 -3 -54 -10t-26.5 -23.5t-8.5 -49.5q0 -22 7 -83l1 -11h214l-28 -106h-175q1 -12 1 -34q0 -56 -17 -87
t-63 -60v-5h326v-105h-466v111q44 25 65 44.5z" />
    <glyph glyph-name="currency" unicode="&#xa4;" 
d="M175 107l-57 -57l-66 66l62 62q-15 41 -15 119q0 79 15 121l-62 62l66 67l57 -57q42 21 125 21t125 -21l57 57l67 -67l-63 -62q15 -42 15 -121q0 -76 -14 -118l62 -63l-67 -66l-57 57q-42 -21 -125 -21t-125 21zM222 229.5q8 -23.5 26 -33.5t52 -10t52.5 10t26.5 33.5
t8 67.5q0 45 -8 69.5t-26.5 35t-52.5 10.5t-52 -10.5t-26 -35t-8 -69.5q0 -44 8 -67.5z" />
    <glyph glyph-name="yen" unicode="&#xa5;" 
d="M108 330h113l-158 352h124l114 -279h5l115 279h123l-159 -352h152l-27 -92h-149v-35h156l-27 -92h-129v-111h-116v111h-174l27 92h147v35h-164z" />
    <glyph glyph-name="brokenbar" unicode="&#xa6;" 
d="M240 279h120v-392h-120v392zM240 789h120v-366h-120v366z" />
    <glyph glyph-name="section" unicode="&#xa7;" 
d="M161.5 -33.5q-44.5 39.5 -43.5 125.5h107q1 -26 7.5 -38.5t22.5 -18t48 -5.5q49 0 67 11t18 36q0 19 -11 31.5t-35.5 22.5t-75.5 25q-90 25 -129 65.5t-39 106.5q0 75 50 112q-44 40 -44 113q0 78 46.5 115t144.5 37q99 0 143.5 -39.5t43.5 -125.5h-107q-1 26 -7.5 38.5
t-22.5 18t-48 5.5q-49 0 -67 -11t-18 -36q0 -19 11 -31.5t35.5 -22.5t75.5 -25q90 -25 129 -65.5t39 -106.5q0 -78 -48 -114q22 -20 32 -47t10 -64q0 -78 -46.5 -115t-144.5 -37q-99 0 -143.5 39.5zM232 282q25 -18 94 -34l12 -3q31 4 43 15.5t12 36.5q0 35 -25.5 53
t-93.5 34l-12 3q-31 -4 -43 -15.5t-12 -35.5q0 -36 25 -54z" />
    <glyph glyph-name="dieresis" unicode="&#xa8;" 
d="M327 753h144v-138h-144v138zM125 753h144v-138h-144v138z" />
    <glyph glyph-name="copyright" unicode="&#xa9;" 
d="M181.5 212.5q-39.5 39.5 -39.5 125.5q0 85 38.5 126.5t118.5 41.5q72 0 110.5 -31t36.5 -89h-88q-4 26 -13 34t-37 8q-31 0 -46.5 -7.5t-22 -26.5t-6.5 -56t6.5 -55t22 -25t47.5 -7t40.5 7t10.5 30h90q0 -60 -36 -87.5t-107 -27.5q-86 0 -125.5 39.5zM11 435q5 36 19 78
q22 64 51 96t78 45t137 13q94 0 146.5 -14t80.5 -46t48 -92q14 -40 19 -81t5 -96q0 -63 -5 -98.5t-18 -74.5q-22 -64 -51 -96t-79.5 -45t-143.5 -13q-90 0 -140.5 12.5t-80 45.5t-49.5 99q-12 39 -17 76.5t-5 98.5q0 56 5 92zM119 192q12 -39 31 -58.5t52.5 -27t95.5 -7.5
q65 0 99.5 8t53.5 28t32 59q9 30 13.5 63t4.5 81q0 89 -19 146q-13 39 -32.5 59t-53.5 28t-96 8t-96 -8t-53 -28t-32 -60q-19 -57 -19 -140q0 -89 19 -151z" />
    <glyph glyph-name="ordfeminine" unicode="&#xaa;" 
d="M140.5 5.5q-39.5 14.5 -56 49t-16.5 97.5q0 74 23 114.5t78 57.5t156 17h79v6q0 50 -22 68t-83 18q-55 0 -74.5 -14.5t-17.5 -55.5h-122q-3 68 15.5 104.5t65 52t133.5 15.5t134.5 -17t67.5 -57t20 -114v-347h-114v62h-8q-28 -41 -59 -56t-87 -15q-73 0 -112.5 14.5z
M207.5 109q17.5 -14 66.5 -14q50 0 77 13t38.5 44t13.5 89l-99 -1q-45 -1 -69.5 -8t-34.5 -23.5t-10 -47.5q0 -38 17.5 -52z" />
    <glyph glyph-name="guillemotleft" unicode="&#xab;" 
d="M77 258l133 211h130l-133 -211l133 -213h-130zM277 258l133 211h130l-133 -211l133 -213h-130z" />
    <glyph glyph-name="logicalnot" unicode="&#xac;" 
d="M438 295h-405v103h521v-300h-116v197z" />
    <glyph glyph-name="registered" unicode="&#xae;" 
d="M231.5 327.5q-28.5 6.5 -46 25t-28.5 56.5q-12 43 -12 97q0 60 14 102q11 36 27 54t44 25t78 7q52 0 80.5 -7t44.5 -25t27 -54q7 -23 10.5 -45t3.5 -59q0 -55 -13 -97q-12 -37 -29 -55t-44.5 -24.5t-77.5 -6.5t-78.5 6.5zM183.5 459q2.5 -18 8.5 -40q8 -28 18.5 -40.5
t31.5 -16.5t66 -4q47 0 68.5 4t32 16.5t18.5 40.5q11 38 11 87q0 33 -3 52.5t-9 37.5q-8 29 -18.5 41t-31.5 16t-68 4q-45 0 -65.5 -4t-30.5 -16t-20 -41q-11 -35 -11 -89q0 -30 2.5 -48zM219 618l47 1l31 1q60 0 81.5 -15t21.5 -53q0 -22 -10 -30.5t-37 -11.5v-5
q17 -2 25.5 -9t14.5 -25l21 -70h-52l-17 66q-3 12 -13.5 16t-37.5 4h-27v-86h-48v217zM320 529q19 0 26 5.5t7 21.5q0 12 -7 16.5t-27 5.5l-52 1v-50h53z" />
    <glyph glyph-name="macron" unicode="&#xaf;" 
d="M129 742h341v-96h-341v96z" />
    <glyph glyph-name="degree" unicode="&#xb0;" 
d="M101 468q-36 36 -36 113q0 80 36 116t117 36q82 0 119 -35.5t37 -116.5q0 -77 -37.5 -113t-118.5 -36t-117 36zM170 538q3 -12 12.5 -15.5t35.5 -3.5t36.5 3.5t14 16t3.5 42.5q0 33 -3.5 46.5t-14 17.5t-36.5 4q-25 0 -35 -4t-13 -17t-3 -47q0 -31 3 -43z" />
    <glyph glyph-name="plusminus" unicode="&#xb1;" 
d="M55 113h490v-89h-490v89zM57 447h188v177h109v-177h188v-90h-188v-183h-109v183h-188v90z" />
    <glyph glyph-name="acute" unicode="&#xb4;" 
d="M138 588l162 207h153l-181 -207h-134z" />
    <glyph glyph-name="uni00B5" unicode="&#xb5;" 
d="M66 248h3v274h122v-332q0 -55 18.5 -75t70.5 -20q53 0 81 14t40 47.5t12 95.5v270h122v-522h-122v73h-8q-26 -47 -59.5 -64.5t-100.5 -17.5q-30 0 -56 3v-209h-123v463z" />
    <glyph glyph-name="paragraph" unicode="&#xb6;" 
d="M160.5 342q-38.5 7 -53 21.5t-20.5 43.5q-6 28 -8.5 52.5t-2.5 72.5q0 74 10 122q7 31 21 46t52 22t120 7h288v-836h-114v733h-60v-733h-114v442q-80 0 -118.5 7z" />
    <glyph glyph-name="periodcentered" unicode="&#xb7;" 
d="M205 398h190v-183h-190v183z" />
    <glyph glyph-name="cedilla" unicode="&#xb8;" 
d="M218 -229v78q43 -12 75 -12q21 0 30 6t9 19t-12 18t-41 5h-55v57l49 58h112l-54 -43q56 -5 79 -26t23 -67q0 -57 -30.5 -81t-103.5 -24q-41 0 -81 12z" />
    <glyph glyph-name="ordmasculine" unicode="&#xba;" 
d="M150 15.5q-53 24.5 -75.5 82t-22.5 164.5q0 108 22.5 166t75 82.5t150.5 24.5t150.5 -24.5t75 -82.5t22.5 -166q0 -107 -22.5 -164.5t-75.5 -82t-150 -24.5t-150 24.5zM185.5 160.5q11.5 -35.5 38 -50.5t76.5 -15t76.5 15t38 50.5t11.5 101.5q0 67 -11.5 103t-38 51.5
t-76.5 15.5t-76.5 -15.5t-38 -51.5t-11.5 -103q0 -66 11.5 -101.5z" />
    <glyph glyph-name="guillemotright" unicode="&#xbb;" 
d="M295 45l133 213l-133 211h130l133 -211l-133 -213h-130zM228 258l-133 211h130l133 -211l-133 -213h-130z" />
    <glyph glyph-name="questiondown" unicode="&#xbf;" 
d="M375 374.5q-15 -28.5 -36 -43t-57 -30.5q-30 -14 -47 -25.5t-29 -31t-12 -50.5q0 -38 9.5 -58.5t33 -28.5t68.5 -8q42 0 64.5 7t31 23t7.5 47h122q2 -72 -17.5 -109.5t-67.5 -53t-140 -15.5q-93 0 -142 17t-69 58.5t-20 120.5q0 63 20 102t47.5 58t67.5 36
q34 15 48.5 26.5t14.5 32.5v34h118v-34q0 -46 -15 -74.5zM245 689h171v-159h-171v159z" />
    <glyph glyph-name="Agrave" unicode="&#xc0;" 
d="M211 680h178l197 -680h-126l-44 150h-230l-43 -150h-125zM387 261l-87 303h-1l-83 -303h171zM84 933h153l162 -207h-134z" />
    <glyph glyph-name="Aacute" unicode="&#xc1;" 
d="M211 680h178l197 -680h-126l-44 150h-230l-43 -150h-125zM387 261l-87 303h-1l-83 -303h171zM160 726l162 207h153l-181 -207h-134z" />
    <glyph glyph-name="Acircumflex" unicode="&#xc2;" 
d="M211 680h178l197 -680h-126l-44 150h-230l-43 -150h-125zM387 261l-87 303h-1l-83 -303h171zM251 933h97l173 -211h-133l-88 108l-89 -108h-133z" />
    <glyph glyph-name="Atilde" unicode="&#xc3;" 
d="M211 680h178l197 -680h-126l-44 150h-230l-43 -150h-125zM387 261l-87 303h-1l-83 -303h171zM328 729q-22 11 -59 48q-33 33 -42 39.5t-19 6.5q-7 0 -9 -3.5t-2.5 -21.5t-0.5 -50h-104q-1 74 7 107t32.5 45t79.5 12q38 0 61.5 -11.5t60.5 -48.5q30 -31 40 -38.5t18 -7.5
t10 3.5t2.5 23t0.5 52.5h103q1 -74 -7 -108t-33 -46.5t-80 -12.5q-37 0 -59 11z" />
    <glyph glyph-name="Adieresis" unicode="&#xc4;" 
d="M211 680h178l197 -680h-126l-44 150h-230l-43 -150h-125zM387 261l-87 303h-1l-83 -303h171zM329 891h144v-138h-144v138zM127 891h144v-138h-144v138z" />
    <glyph glyph-name="Aring" unicode="&#xc5;" 
d="M211 680h178l197 -680h-126l-44 150h-230l-43 -150h-125zM387 261l-87 303h-1l-83 -303h171zM210.5 744q-27.5 27 -27.5 84q0 58 27.5 85.5t87.5 27.5q61 0 89.5 -27.5t28.5 -85.5t-28.5 -84.5t-89.5 -26.5q-60 0 -87.5 27zM276.5 798q4.5 -6 21.5 -6q19 0 24 6t5 30
q0 26 -5 33t-24 7q-17 0 -21.5 -6.5t-4.5 -33.5q0 -24 4.5 -30z" />
    <glyph glyph-name="AE" unicode="&#xc6;" 
d="M208 680h360v-107h-171v-166h161v-107h-161v-193h191v-107h-310v164h-104l-49 -164h-120zM278 269v232h-5l-69 -232h74z" />
    <glyph glyph-name="Ccedilla" unicode="&#xc7;" 
d="M210 -229v78q43 -12 75 -12q21 0 30 6t9 19t-12 18t-41 5h-55v57l44 52q-78 9 -122 45t-62.5 107t-18.5 193q0 138 24 213t81 106.5t163 31.5q89 0 138 -18.5t71 -62t25 -123.5h-125q-10 55 -33 75t-76 20q-55 0 -85 -21.5t-42.5 -73.5t-12.5 -147q0 -94 12.5 -145
t42.5 -72.5t85 -21.5q59 0 83 18.5t32 70.5h125q-4 -72 -23.5 -113t-61 -60.5t-113.5 -23.5l-44 -35q56 -5 79 -26t23 -67q0 -57 -30.5 -81t-103.5 -24q-41 0 -81 12z" />
    <glyph glyph-name="Egrave" unicode="&#xc8;" 
d="M96 680h422v-110h-294v-162h254v-110h-254v-188h314v-110h-442v680zM84 939h153l162 -207h-134z" />
    <glyph glyph-name="Eacute" unicode="&#xc9;" 
d="M96 680h422v-110h-294v-162h254v-110h-254v-188h314v-110h-442v680zM160 732l162 207h153l-181 -207h-134z" />
    <glyph glyph-name="Ecircumflex" unicode="&#xca;" 
d="M96 680h422v-110h-294v-162h254v-110h-254v-188h314v-110h-442v680zM251 939h97l173 -211h-133l-88 108l-89 -108h-133z" />
    <glyph glyph-name="Edieresis" unicode="&#xcb;" 
d="M96 680h422v-110h-294v-162h254v-110h-254v-188h314v-110h-442v680zM329 897h144v-138h-144v138zM127 897h144v-138h-144v138z" />
    <glyph glyph-name="Igrave" unicode="&#xcc;" 
d="M112 111h125v458h-118v111h361v-111h-118v-458h125v-111h-375v111zM84 933h153l162 -207h-134z" />
    <glyph glyph-name="Iacute" unicode="&#xcd;" 
d="M112 111h125v458h-118v111h361v-111h-118v-458h125v-111h-375v111zM160 726l162 207h153l-181 -207h-134z" />
    <glyph glyph-name="Icircumflex" unicode="&#xce;" 
d="M112 111h125v458h-118v111h361v-111h-118v-458h125v-111h-375v111zM251 933h97l173 -211h-133l-88 108l-89 -108h-133z" />
    <glyph glyph-name="Idieresis" unicode="&#xcf;" 
d="M112 111h125v458h-118v111h361v-111h-118v-458h125v-111h-375v111zM329 891h144v-138h-144v138zM127 891h144v-138h-144v138z" />
    <glyph glyph-name="Eth" unicode="&#xd0;" 
d="M2 408h50v272q64 4 116 4q57 0 102 -5q114 -11 176.5 -46t88.5 -105.5t26 -196.5q0 -132 -30 -204.5t-101 -103.5t-201 -31q-74 0 -177 8v294h-50v114zM259 102q68 4 105 26t52.5 71.5t15.5 138.5q0 84 -15 131.5t-50.5 70t-100.5 29.5q-51 5 -86 5v-166h134v-114h-134
v-189q60 -4 79 -3z" />
    <glyph glyph-name="Ntilde" unicode="&#xd1;" 
d="M44 680h156l244 -533h3l-14 142v391h123v-680h-156l-244 533h-3l14 -142v-391h-123v680zM328 729q-22 11 -59 48q-33 33 -42 39.5t-19 6.5q-7 0 -9 -3.5t-2.5 -21.5t-0.5 -50h-104q-1 74 7 107t32.5 45t79.5 12q38 0 61.5 -11.5t60.5 -48.5q30 -31 40 -38.5t18 -7.5
t10 3.5t2.5 23t0.5 52.5h103q1 -74 -7 -108t-33 -46.5t-80 -12.5q-37 0 -59 11z" />
    <glyph glyph-name="Ograve" unicode="&#xd2;" 
d="M139.5 22q-56.5 31 -80 105t-23.5 211q0 139 23.5 214t80 106.5t160.5 31.5t160.5 -31.5t80 -106.5t23.5 -214q0 -137 -23.5 -211t-80 -105t-160.5 -31t-160.5 31zM174.5 194.5q12.5 -50.5 42 -72t83.5 -21.5t83 21.5t41.5 72t12.5 143.5q0 96 -12.5 147.5t-41.5 73
t-83 21.5t-83.5 -21.5t-42 -73.5t-12.5 -147q0 -93 12.5 -143.5zM84 934h153l162 -207h-134z" />
    <glyph glyph-name="Oacute" unicode="&#xd3;" 
d="M139.5 22q-56.5 31 -80 105t-23.5 211q0 139 23.5 214t80 106.5t160.5 31.5t160.5 -31.5t80 -106.5t23.5 -214q0 -137 -23.5 -211t-80 -105t-160.5 -31t-160.5 31zM174.5 194.5q12.5 -50.5 42 -72t83.5 -21.5t83 21.5t41.5 72t12.5 143.5q0 96 -12.5 147.5t-41.5 73
t-83 21.5t-83.5 -21.5t-42 -73.5t-12.5 -147q0 -93 12.5 -143.5zM160 727l162 207h153l-181 -207h-134z" />
    <glyph glyph-name="Ocircumflex" unicode="&#xd4;" 
d="M139.5 22q-56.5 31 -80 105t-23.5 211q0 139 23.5 214t80 106.5t160.5 31.5t160.5 -31.5t80 -106.5t23.5 -214q0 -137 -23.5 -211t-80 -105t-160.5 -31t-160.5 31zM174.5 194.5q12.5 -50.5 42 -72t83.5 -21.5t83 21.5t41.5 72t12.5 143.5q0 96 -12.5 147.5t-41.5 73
t-83 21.5t-83.5 -21.5t-42 -73.5t-12.5 -147q0 -93 12.5 -143.5zM251 934h97l173 -211h-133l-88 108l-89 -108h-133z" />
    <glyph glyph-name="Otilde" unicode="&#xd5;" 
d="M139.5 22q-56.5 31 -80 105t-23.5 211q0 139 23.5 214t80 106.5t160.5 31.5t160.5 -31.5t80 -106.5t23.5 -214q0 -137 -23.5 -211t-80 -105t-160.5 -31t-160.5 31zM174.5 194.5q12.5 -50.5 42 -72t83.5 -21.5t83 21.5t41.5 72t12.5 143.5q0 96 -12.5 147.5t-41.5 73
t-83 21.5t-83.5 -21.5t-42 -73.5t-12.5 -147q0 -93 12.5 -143.5zM328 730q-22 11 -59 48q-33 33 -42 39.5t-19 6.5q-7 0 -9 -3.5t-2.5 -21.5t-0.5 -50h-104q-1 74 7 107t32.5 45t79.5 12q38 0 61.5 -11.5t60.5 -48.5q30 -31 40 -38.5t18 -7.5t10 3.5t2.5 23t0.5 52.5h103
q1 -74 -7 -108t-33 -46.5t-80 -12.5q-37 0 -59 11z" />
    <glyph glyph-name="Odieresis" unicode="&#xd6;" 
d="M139.5 22q-56.5 31 -80 105t-23.5 211q0 139 23.5 214t80 106.5t160.5 31.5t160.5 -31.5t80 -106.5t23.5 -214q0 -137 -23.5 -211t-80 -105t-160.5 -31t-160.5 31zM174.5 194.5q12.5 -50.5 42 -72t83.5 -21.5t83 21.5t41.5 72t12.5 143.5q0 96 -12.5 147.5t-41.5 73
t-83 21.5t-83.5 -21.5t-42 -73.5t-12.5 -147q0 -93 12.5 -143.5zM329 892h144v-138h-144v138zM127 892h144v-138h-144v138z" />
    <glyph glyph-name="multiply" unicode="&#xd7;" 
d="M76 154l146 146l-143 143l79 78l142 -143l144 144l79 -78l-144 -144l145 -145l-79 -79l-145 145l-146 -145z" />
    <glyph glyph-name="Oslash" unicode="&#xd8;" 
d="M11 61l49 59q-26 75 -26 218q0 139 23.5 214t80 106.5t160.5 31.5q69 0 116 -13.5t77 -43.5l36 43l57 -48l-51 -61q29 -75 29 -229q0 -137 -23.5 -211t-80 -105t-160.5 -31q-72 0 -119.5 14t-77.5 46l-32 -38zM164 244l241 287q-15 26 -41 37.5t-66 11.5
q-54 0 -83.5 -21.5t-42 -73.5t-12.5 -147q0 -59 4 -94zM229 113q27 -12 69 -12q54 0 83 21.5t41.5 72t12.5 143.5q0 58 -5 106l-243 -290q15 -29 42 -41z" />
    <glyph glyph-name="Ugrave" unicode="&#xd9;" 
d="M152 12q-54 21 -77 70t-23 139v459h128v-454q0 -48 11.5 -74.5t38 -37.5t75.5 -11q45 0 69.5 11t35 37t10.5 74v455h128v-458q0 -91 -22 -140t-74 -70t-147 -21q-99 0 -153 21zM84 933h153l162 -207h-134z" />
    <glyph glyph-name="Uacute" unicode="&#xda;" 
d="M152 12q-54 21 -77 70t-23 139v459h128v-454q0 -48 11.5 -74.5t38 -37.5t75.5 -11q45 0 69.5 11t35 37t10.5 74v455h128v-458q0 -91 -22 -140t-74 -70t-147 -21q-99 0 -153 21zM160 726l162 207h153l-181 -207h-134z" />
    <glyph glyph-name="Ucircumflex" unicode="&#xdb;" 
d="M152 12q-54 21 -77 70t-23 139v459h128v-454q0 -48 11.5 -74.5t38 -37.5t75.5 -11q45 0 69.5 11t35 37t10.5 74v455h128v-458q0 -91 -22 -140t-74 -70t-147 -21q-99 0 -153 21zM251 933h97l173 -211h-133l-88 108l-89 -108h-133z" />
    <glyph glyph-name="Udieresis" unicode="&#xdc;" 
d="M152 12q-54 21 -77 70t-23 139v459h128v-454q0 -48 11.5 -74.5t38 -37.5t75.5 -11q45 0 69.5 11t35 37t10.5 74v455h128v-458q0 -91 -22 -140t-74 -70t-147 -21q-99 0 -153 21zM329 891h144v-138h-144v138zM127 891h144v-138h-144v138z" />
    <glyph glyph-name="Yacute" unicode="&#xdd;" 
d="M236 277l-203 405h138l127 -279h5l128 279h137l-204 -405v-277h-128v277zM160 726l162 207h153l-181 -207h-134z" />
    <glyph glyph-name="Thorn" unicode="&#xde;" 
d="M84 680h125v-111l31 1q16 1 46 1q106 0 165 -21t84 -68.5t25 -131.5q0 -85 -25 -131.5t-83.5 -66t-166.5 -19.5h-75v-133h-126v680zM275 244q62 0 96 10t48 33.5t14 67.5q0 40 -16 62t-53.5 31.5t-106.5 9.5h-47v-214h65z" />
    <glyph glyph-name="germandbls" unicode="&#xdf;" 
d="M91.5 602q19.5 42 69.5 60t142 18q86 0 132.5 -16.5t66 -56t19.5 -111.5q0 -47 -10.5 -74t-36.5 -41.5t-73 -21.5v-7q59 -14 90.5 -33t45 -50t13.5 -82q0 -71 -17 -113.5t-55.5 -62t-106.5 -19.5q-50 0 -138 13v108q67 -16 110 -16q47 0 66 22.5t19 73.5q0 42 -16.5 65
t-56 32t-111.5 8v104q62 2 95.5 10t47.5 26.5t14 51.5q0 50 -20.5 68.5t-77.5 18.5q-42 0 -65 -8.5t-32.5 -29t-9.5 -57.5v-482h-121v482q-3 78 16.5 120z" />
    <glyph glyph-name="agrave" unicode="&#xe0;" 
d="M140.5 5.5q-39.5 14.5 -56 49t-16.5 97.5q0 74 23 114.5t78 57.5t156 17h79v6q0 50 -22 68t-83 18q-55 0 -74.5 -14.5t-17.5 -55.5h-122q-3 68 15.5 104.5t65 52t133.5 15.5t134.5 -17t67.5 -57t20 -114v-347h-114v62h-8q-28 -41 -59 -56t-87 -15q-73 0 -112.5 14.5z
M207.5 109q17.5 -14 66.5 -14q50 0 77 13t38.5 44t13.5 89l-99 -1q-45 -1 -69.5 -8t-34.5 -23.5t-10 -47.5q0 -38 17.5 -52zM84 780h153l162 -207h-134z" />
    <glyph glyph-name="aacute" unicode="&#xe1;" 
d="M140.5 5.5q-39.5 14.5 -56 49t-16.5 97.5q0 74 23 114.5t78 57.5t156 17h79v6q0 50 -22 68t-83 18q-55 0 -74.5 -14.5t-17.5 -55.5h-122q-3 68 15.5 104.5t65 52t133.5 15.5t134.5 -17t67.5 -57t20 -114v-347h-114v62h-8q-28 -41 -59 -56t-87 -15q-73 0 -112.5 14.5z
M207.5 109q17.5 -14 66.5 -14q50 0 77 13t38.5 44t13.5 89l-99 -1q-45 -1 -69.5 -8t-34.5 -23.5t-10 -47.5q0 -38 17.5 -52zM160 573l162 207h153l-181 -207h-134z" />
    <glyph glyph-name="acircumflex" unicode="&#xe2;" 
d="M140.5 5.5q-39.5 14.5 -56 49t-16.5 97.5q0 74 23 114.5t78 57.5t156 17h79v6q0 50 -22 68t-83 18q-55 0 -74.5 -14.5t-17.5 -55.5h-122q-3 68 15.5 104.5t65 52t133.5 15.5t134.5 -17t67.5 -57t20 -114v-347h-114v62h-8q-28 -41 -59 -56t-87 -15q-73 0 -112.5 14.5z
M207.5 109q17.5 -14 66.5 -14q50 0 77 13t38.5 44t13.5 89l-99 -1q-45 -1 -69.5 -8t-34.5 -23.5t-10 -47.5q0 -38 17.5 -52zM251 780h97l173 -211h-133l-88 108l-89 -108h-133z" />
    <glyph glyph-name="atilde" unicode="&#xe3;" 
d="M140.5 5.5q-39.5 14.5 -56 49t-16.5 97.5q0 74 23 114.5t78 57.5t156 17h79v6q0 50 -22 68t-83 18q-55 0 -74.5 -14.5t-17.5 -55.5h-122q-3 68 15.5 104.5t65 52t133.5 15.5t134.5 -17t67.5 -57t20 -114v-347h-114v62h-8q-28 -41 -59 -56t-87 -15q-73 0 -112.5 14.5z
M207.5 109q17.5 -14 66.5 -14q50 0 77 13t38.5 44t13.5 89l-99 -1q-45 -1 -69.5 -8t-34.5 -23.5t-10 -47.5q0 -38 17.5 -52zM328 576q-22 11 -59 48q-33 33 -42 39.5t-19 6.5q-7 0 -9 -3.5t-2.5 -21.5t-0.5 -50h-104q-1 74 7 107t32.5 45t79.5 12q38 0 61.5 -11.5
t60.5 -48.5q30 -31 40 -38.5t18 -7.5t10 3.5t2.5 23t0.5 52.5h103q1 -74 -7 -108t-33 -46.5t-80 -12.5q-37 0 -59 11z" />
    <glyph glyph-name="adieresis" unicode="&#xe4;" 
d="M140.5 5.5q-39.5 14.5 -56 49t-16.5 97.5q0 74 23 114.5t78 57.5t156 17h79v6q0 50 -22 68t-83 18q-55 0 -74.5 -14.5t-17.5 -55.5h-122q-3 68 15.5 104.5t65 52t133.5 15.5t134.5 -17t67.5 -57t20 -114v-347h-114v62h-8q-28 -41 -59 -56t-87 -15q-73 0 -112.5 14.5z
M207.5 109q17.5 -14 66.5 -14q50 0 77 13t38.5 44t13.5 89l-99 -1q-45 -1 -69.5 -8t-34.5 -23.5t-10 -47.5q0 -38 17.5 -52zM329 738h144v-138h-144v138zM127 738h144v-138h-144v138z" />
    <glyph glyph-name="aring" unicode="&#xe5;" 
d="M140.5 5.5q-39.5 14.5 -56 49t-16.5 97.5q0 74 23 114.5t78 57.5t156 17h79v6q0 50 -22 68t-83 18q-55 0 -74.5 -14.5t-17.5 -55.5h-122q-3 68 15.5 104.5t65 52t133.5 15.5t134.5 -17t67.5 -57t20 -114v-347h-114v62h-8q-28 -41 -59 -56t-87 -15q-73 0 -112.5 14.5z
M207.5 109q17.5 -14 66.5 -14q50 0 77 13t38.5 44t13.5 89l-99 -1q-45 -1 -69.5 -8t-34.5 -23.5t-10 -47.5q0 -38 17.5 -52zM210.5 591q-27.5 27 -27.5 84q0 58 27.5 85.5t87.5 27.5q61 0 89.5 -27.5t28.5 -85.5t-28.5 -84.5t-89.5 -26.5q-60 0 -87.5 27zM276.5 645
q4.5 -6 21.5 -6q19 0 24 6t5 30q0 26 -5 33t-24 7q-17 0 -21.5 -6.5t-4.5 -33.5q0 -24 4.5 -30z" />
    <glyph glyph-name="ae" unicode="&#xe6;" 
d="M62.5 4q-31.5 14 -45 48t-13.5 96q0 71 19 110t63.5 55.5t126.5 16.5h46q-2 62 -16 84t-51 22q-34 0 -46.5 -15.5t-12.5 -58.5h-112q-3 68 10 104.5t45.5 52t93.5 15.5q42 0 66 -8t38.5 -26t24.5 -52h9q14 50 38.5 68t79.5 18q66 0 102.5 -24t52 -81t15.5 -160v-37h-239
q3 -55 9.5 -85.5t19 -43t34.5 -12.5q26 0 37.5 14.5t17.5 53.5h113q-11 -66 -28.5 -102t-48 -51.5t-81.5 -15.5q-55 0 -80 21.5t-39 80.5h-9q-11 -40 -27.5 -62t-45 -31t-76.5 -9q-59 0 -90.5 14zM125.5 105.5q11.5 -13.5 42.5 -13.5q34 0 53 12.5t27.5 42.5t9.5 85h-66
q-45 0 -61.5 -16t-16.5 -59q0 -38 11.5 -51.5zM482 327q-4 61 -16.5 83.5t-42.5 22.5q-32 0 -46.5 -22.5t-19.5 -83.5h125z" />
    <glyph glyph-name="ccedilla" unicode="&#xe7;" 
d="M212 -229v78q43 -12 75 -12q21 0 30 6t9 19t-12 18t-41 5h-55v57l43 51q-75 6 -117 33.5t-60 83t-18 150.5q0 108 22.5 167t76 83.5t151.5 24.5q86 0 133 -17t67.5 -57.5t22.5 -114.5h-121q-7 49 -27.5 66.5t-68.5 17.5q-53 0 -81.5 -15.5t-40.5 -52t-12 -103.5
q0 -64 12 -99t41 -49.5t82 -14.5q46 0 66.5 15.5t29.5 57.5h120q-2 -63 -18 -99.5t-52 -54.5t-99 -22l-45 -36q56 -5 79 -26t23 -67q0 -57 -30.5 -81t-103.5 -24q-41 0 -81 12z" />
    <glyph glyph-name="egrave" unicode="&#xe8;" 
d="M158 15.5q-53 24.5 -75.5 83.5t-22.5 167q0 106 21.5 163.5t73 81.5t146.5 24q91 0 142 -25.5t73.5 -85t22.5 -167.5l-1 -39h-355q4 -49 16 -75.5t37.5 -37.5t71.5 -11q45 0 65.5 14t32.5 52h124q-10 -66 -33 -102t-67 -51.5t-121 -15.5q-98 0 -151 24.5zM419 313
q0 68 -26.5 93.5t-91.5 25.5q-63 0 -90 -26t-27 -93h235zM84 780h153l162 -207h-134z" />
    <glyph glyph-name="eacute" unicode="&#xe9;" 
d="M158 15.5q-53 24.5 -75.5 83.5t-22.5 167q0 106 21.5 163.5t73 81.5t146.5 24q91 0 142 -25.5t73.5 -85t22.5 -167.5l-1 -39h-355q4 -49 16 -75.5t37.5 -37.5t71.5 -11q45 0 65.5 14t32.5 52h124q-10 -66 -33 -102t-67 -51.5t-121 -15.5q-98 0 -151 24.5zM419 313
q0 68 -26.5 93.5t-91.5 25.5q-63 0 -90 -26t-27 -93h235zM160 573l162 207h153l-181 -207h-134z" />
    <glyph glyph-name="ecircumflex" unicode="&#xea;" 
d="M158 15.5q-53 24.5 -75.5 83.5t-22.5 167q0 106 21.5 163.5t73 81.5t146.5 24q91 0 142 -25.5t73.5 -85t22.5 -167.5l-1 -39h-355q4 -49 16 -75.5t37.5 -37.5t71.5 -11q45 0 65.5 14t32.5 52h124q-10 -66 -33 -102t-67 -51.5t-121 -15.5q-98 0 -151 24.5zM419 313
q0 68 -26.5 93.5t-91.5 25.5q-63 0 -90 -26t-27 -93h235zM251 780h97l173 -211h-133l-88 108l-89 -108h-133z" />
    <glyph glyph-name="edieresis" unicode="&#xeb;" 
d="M158 15.5q-53 24.5 -75.5 83.5t-22.5 167q0 106 21.5 163.5t73 81.5t146.5 24q91 0 142 -25.5t73.5 -85t22.5 -167.5l-1 -39h-355q4 -49 16 -75.5t37.5 -37.5t71.5 -11q45 0 65.5 14t32.5 52h124q-10 -66 -33 -102t-67 -51.5t-121 -15.5q-98 0 -151 24.5zM419 313
q0 68 -26.5 93.5t-91.5 25.5q-63 0 -90 -26t-27 -93h235zM329 738h144v-138h-144v138zM127 738h144v-138h-144v138z" />
    <glyph glyph-name="igrave" unicode="&#xec;" 
d="M92 103h174v316h-164v103h284v-419h167v-103h-461v103zM98 795h153l162 -207h-134z" />
    <glyph glyph-name="iacute" unicode="&#xed;" 
d="M92 103h174v316h-164v103h284v-419h167v-103h-461v103zM174 588l162 207h153l-181 -207h-134z" />
    <glyph glyph-name="icircumflex" unicode="&#xee;" 
d="M92 103h174v316h-164v103h284v-419h167v-103h-461v103zM265 795h97l173 -211h-133l-88 108l-89 -108h-133z" />
    <glyph glyph-name="idieresis" unicode="&#xef;" 
d="M92 103h174v316h-164v103h284v-419h167v-103h-461v103zM343 753h144v-138h-144v138zM141 753h144v-138h-144v138z" />
    <glyph glyph-name="eth" unicode="&#xf0;" 
d="M195 549l54 42q-41 45 -119 123h154q34 -37 50 -57l61 47l40 -52l-58 -45q64 -77 96.5 -133.5t45.5 -111t13 -127.5q0 -105 -18.5 -155.5t-68 -69.5t-152.5 -19q-102 0 -151 19t-67.5 68.5t-18.5 152.5q0 100 17.5 148t64 66t142.5 18q29 0 44.5 -6t37.5 -27h8
q-46 68 -79 110l-55 -43zM181.5 142q9.5 -29 34.5 -40t77 -11t77.5 10.5t35.5 37.5t10 82q0 62 -9.5 91.5t-35.5 40.5t-80 11q-51 0 -75.5 -10.5t-34 -37.5t-9.5 -84q0 -61 9.5 -90z" />
    <glyph glyph-name="ntilde" unicode="&#xf1;" 
d="M68 522h122v-72h8q28 49 58 67t85 18q76 0 117 -18.5t58.5 -62t17.5 -124.5v-330h-122v332q0 55 -20.5 75t-76.5 20q-49 0 -75.5 -14t-38 -47.5t-11.5 -94.5v-271h-122v522zM328 576q-22 11 -59 48q-33 33 -42 39.5t-19 6.5q-7 0 -9 -3.5t-2.5 -21.5t-0.5 -50h-104
q-1 74 7 107t32.5 45t79.5 12q38 0 61.5 -11.5t60.5 -48.5q30 -31 40 -38.5t18 -7.5t10 3.5t2.5 23t0.5 52.5h103q1 -74 -7 -108t-33 -46.5t-80 -12.5q-37 0 -59 11z" />
    <glyph glyph-name="ograve" unicode="&#xf2;" 
d="M150 15.5q-53 24.5 -75.5 82t-22.5 164.5q0 108 22.5 166t75 82.5t150.5 24.5t150.5 -24.5t75 -82.5t22.5 -166q0 -107 -22.5 -164.5t-75.5 -82t-150 -24.5t-150 24.5zM185.5 160.5q11.5 -35.5 38 -50.5t76.5 -15t76.5 15t38 50.5t11.5 101.5q0 67 -11.5 103t-38 51.5
t-76.5 15.5t-76.5 -15.5t-38 -51.5t-11.5 -103q0 -66 11.5 -101.5zM84 780h153l162 -207h-134z" />
    <glyph glyph-name="oacute" unicode="&#xf3;" 
d="M150 15.5q-53 24.5 -75.5 82t-22.5 164.5q0 108 22.5 166t75 82.5t150.5 24.5t150.5 -24.5t75 -82.5t22.5 -166q0 -107 -22.5 -164.5t-75.5 -82t-150 -24.5t-150 24.5zM185.5 160.5q11.5 -35.5 38 -50.5t76.5 -15t76.5 15t38 50.5t11.5 101.5q0 67 -11.5 103t-38 51.5
t-76.5 15.5t-76.5 -15.5t-38 -51.5t-11.5 -103q0 -66 11.5 -101.5zM160 573l162 207h153l-181 -207h-134z" />
    <glyph glyph-name="ocircumflex" unicode="&#xf4;" 
d="M150 15.5q-53 24.5 -75.5 82t-22.5 164.5q0 108 22.5 166t75 82.5t150.5 24.5t150.5 -24.5t75 -82.5t22.5 -166q0 -107 -22.5 -164.5t-75.5 -82t-150 -24.5t-150 24.5zM185.5 160.5q11.5 -35.5 38 -50.5t76.5 -15t76.5 15t38 50.5t11.5 101.5q0 67 -11.5 103t-38 51.5
t-76.5 15.5t-76.5 -15.5t-38 -51.5t-11.5 -103q0 -66 11.5 -101.5zM251 780h97l173 -211h-133l-88 108l-89 -108h-133z" />
    <glyph glyph-name="otilde" unicode="&#xf5;" 
d="M150 15.5q-53 24.5 -75.5 82t-22.5 164.5q0 108 22.5 166t75 82.5t150.5 24.5t150.5 -24.5t75 -82.5t22.5 -166q0 -107 -22.5 -164.5t-75.5 -82t-150 -24.5t-150 24.5zM185.5 160.5q11.5 -35.5 38 -50.5t76.5 -15t76.5 15t38 50.5t11.5 101.5q0 67 -11.5 103t-38 51.5
t-76.5 15.5t-76.5 -15.5t-38 -51.5t-11.5 -103q0 -66 11.5 -101.5zM328 576q-22 11 -59 48q-33 33 -42 39.5t-19 6.5q-7 0 -9 -3.5t-2.5 -21.5t-0.5 -50h-104q-1 74 7 107t32.5 45t79.5 12q38 0 61.5 -11.5t60.5 -48.5q30 -31 40 -38.5t18 -7.5t10 3.5t2.5 23t0.5 52.5h103
q1 -74 -7 -108t-33 -46.5t-80 -12.5q-37 0 -59 11z" />
    <glyph glyph-name="odieresis" unicode="&#xf6;" 
d="M150 15.5q-53 24.5 -75.5 82t-22.5 164.5q0 108 22.5 166t75 82.5t150.5 24.5t150.5 -24.5t75 -82.5t22.5 -166q0 -107 -22.5 -164.5t-75.5 -82t-150 -24.5t-150 24.5zM185.5 160.5q11.5 -35.5 38 -50.5t76.5 -15t76.5 15t38 50.5t11.5 101.5q0 67 -11.5 103t-38 51.5
t-76.5 15.5t-76.5 -15.5t-38 -51.5t-11.5 -103q0 -66 11.5 -101.5zM329 738h144v-138h-144v138zM127 738h144v-138h-144v138z" />
    <glyph glyph-name="divide" unicode="&#xf7;" 
d="M48 354h504v-112h-504v112zM228 172h142v-135h-142v135zM228 552h142v-135h-142v135z" />
    <glyph glyph-name="oslash" unicode="&#xf8;" 
d="M64 43l22 26q-19 32 -27.5 78.5t-8.5 114.5q0 108 22.5 166t75 82.5t150.5 24.5q104 0 157 -28l23 28l57 -48l-26 -30q20 -31 28.5 -78.5t8.5 -116.5q0 -107 -22.5 -164.5t-75.5 -82t-150 -24.5q-102 0 -156 27l-20 -24zM179 179l198 236q-27 17 -79 17
q-50 0 -76.5 -15.5t-38 -51.5t-11.5 -103q0 -52 7 -83zM298 95q50 0 76.5 15t38 50.5t11.5 101.5q0 53 -7 85l-197 -236q28 -16 78 -16z" />
    <glyph glyph-name="ugrave" unicode="&#xf9;" 
d="M135.5 9q-37.5 18 -53.5 61t-16 122v330h122v-332q0 -55 18.5 -75t70.5 -20q53 0 81 14t40 47.5t12 95.5v270h122v-522h-122v73h-8q-26 -47 -59.5 -64.5t-100.5 -17.5q-69 0 -106.5 18zM84 776h153l162 -207h-134z" />
    <glyph glyph-name="uacute" unicode="&#xfa;" 
d="M135.5 9q-37.5 18 -53.5 61t-16 122v330h122v-332q0 -55 18.5 -75t70.5 -20q53 0 81 14t40 47.5t12 95.5v270h122v-522h-122v73h-8q-26 -47 -59.5 -64.5t-100.5 -17.5q-69 0 -106.5 18zM160 569l162 207h153l-181 -207h-134z" />
    <glyph glyph-name="ucircumflex" unicode="&#xfb;" 
d="M135.5 9q-37.5 18 -53.5 61t-16 122v330h122v-332q0 -55 18.5 -75t70.5 -20q53 0 81 14t40 47.5t12 95.5v270h122v-522h-122v73h-8q-26 -47 -59.5 -64.5t-100.5 -17.5q-69 0 -106.5 18zM251 776h97l173 -211h-133l-88 108l-89 -108h-133z" />
    <glyph glyph-name="udieresis" unicode="&#xfc;" 
d="M135.5 9q-37.5 18 -53.5 61t-16 122v330h122v-332q0 -55 18.5 -75t70.5 -20q53 0 81 14t40 47.5t12 95.5v270h122v-522h-122v73h-8q-26 -47 -59.5 -64.5t-100.5 -17.5q-69 0 -106.5 18zM329 734h144v-138h-144v138zM127 734h144v-138h-144v138z" />
    <glyph glyph-name="yacute" unicode="&#xfd;" 
d="M253 48h-34l-170 474h124l125 -384h5l123 384h126l-260 -737h-126zM160 569l162 207h153l-181 -207h-134z" />
    <glyph glyph-name="thorn" unicode="&#xfe;" 
d="M169 728v-257h8q32 36 60 49t73 13q89 0 137 -24.5t68.5 -82.5t20.5 -165q0 -106 -20 -163.5t-67.5 -82t-135.5 -24.5q-53 0 -82 13t-54 49h-8v-268h-121v943h121zM177.5 160.5q10.5 -35.5 35.5 -50.5t71 -15q51 0 78.5 15t39 50.5t11.5 100.5q0 66 -11.5 102t-39 51
t-78.5 15q-46 0 -71 -15t-35.5 -51t-10.5 -102q0 -65 10.5 -100.5z" />
    <glyph glyph-name="ydieresis" unicode="&#xff;" 
d="M253 48h-34l-170 474h124l125 -384h5l123 384h126l-260 -737h-126zM329 734h144v-138h-144v138zM127 734h144v-138h-144v138z" />
    <glyph glyph-name="Amacron" unicode="&#x100;" 
d="M211 680h178l197 -680h-126l-44 150h-230l-43 -150h-125zM387 261l-87 303h-1l-83 -303h171zM129 880h341v-96h-341v96z" />
    <glyph glyph-name="amacron" unicode="&#x101;" 
d="M140.5 5.5q-39.5 14.5 -56 49t-16.5 97.5q0 74 23 114.5t78 57.5t156 17h79v6q0 50 -22 68t-83 18q-55 0 -74.5 -14.5t-17.5 -55.5h-122q-3 68 15.5 104.5t65 52t133.5 15.5t134.5 -17t67.5 -57t20 -114v-347h-114v62h-8q-28 -41 -59 -56t-87 -15q-73 0 -112.5 14.5z
M207.5 109q17.5 -14 66.5 -14q50 0 77 13t38.5 44t13.5 89l-99 -1q-45 -1 -69.5 -8t-34.5 -23.5t-10 -47.5q0 -38 17.5 -52zM129 727h341v-96h-341v96z" />
    <glyph glyph-name="Abreve" unicode="&#x102;" 
d="M211 680h178l197 -680h-126l-44 150h-230l-43 -150h-125zM387 261l-87 303h-1l-83 -303h171zM164.5 783q-45.5 41 -56.5 131h110q10 -46 27 -62t55 -16t55 16t27 62h110q-11 -90 -56.5 -131t-135.5 -41t-135.5 41z" />
    <glyph glyph-name="abreve" unicode="&#x103;" 
d="M140.5 5.5q-39.5 14.5 -56 49t-16.5 97.5q0 74 23 114.5t78 57.5t156 17h79v6q0 50 -22 68t-83 18q-55 0 -74.5 -14.5t-17.5 -55.5h-122q-3 68 15.5 104.5t65 52t133.5 15.5t134.5 -17t67.5 -57t20 -114v-347h-114v62h-8q-28 -41 -59 -56t-87 -15q-73 0 -112.5 14.5z
M207.5 109q17.5 -14 66.5 -14q50 0 77 13t38.5 44t13.5 89l-99 -1q-45 -1 -69.5 -8t-34.5 -23.5t-10 -47.5q0 -38 17.5 -52zM164.5 630q-45.5 41 -56.5 131h110q10 -46 27 -62t55 -16t55 16t27 62h110q-11 -90 -56.5 -131t-135.5 -41t-135.5 41z" />
    <glyph glyph-name="Aogonek" unicode="&#x104;" 
d="M421.5 -160.5q-21.5 13.5 -21.5 48.5q0 15 3 33q4 25 21 41.5t60 37.5h-26l-44 150h-230l-43 -150h-125l193 680h178l197 -680h-16l-38 -17q-40 -18 -52.5 -33t-12.5 -42q0 -17 11.5 -24t38.5 -7q22 0 39 6v-49q-37 -8 -58 -8q-53 0 -74.5 13.5zM385 261l-87 303h-1
l-83 -303h171z" />
    <glyph glyph-name="aogonek" unicode="&#x105;" 
d="M324.5 -186q-26.5 18 -26.5 61q0 15 3 33q4 28 27 48t75 44h2v62h-8q-28 -41 -59 -56t-87 -15q-73 0 -112.5 14.5t-56 49t-16.5 97.5q0 74 23 114.5t78 57.5t156 17h79v6q0 50 -22 68t-83 18q-55 0 -74.5 -14.5t-17.5 -55.5h-122q-3 68 15.5 104.5t65 52t133.5 15.5
t134.5 -17t67.5 -57t20 -114v-347h-2l-72 -46q-25 -16 -34 -28t-9 -28q0 -12 7 -16.5t23 -4.5t28.5 3t29.5 12v-84q-25 -6 -43 -9t-34 -3q-62 0 -88.5 18zM205.5 109q17.5 -14 66.5 -14q50 0 77 13t38.5 44t13.5 89l-99 -1q-45 -1 -69.5 -8t-34.5 -23.5t-10 -47.5
q0 -38 17.5 -52z" />
    <glyph glyph-name="Cacute" unicode="&#x106;" 
d="M162 22.5q-57 31.5 -81 105.5t-24 211q0 138 24 213t81 106.5t163 31.5q89 0 138 -18.5t71 -62t25 -123.5h-125q-10 55 -33 75t-76 20q-55 0 -85 -21.5t-42.5 -73.5t-12.5 -147q0 -94 12.5 -145t42.5 -72.5t85 -21.5q59 0 83 18.5t32 70.5h125q-5 -78 -28 -120.5
t-72.5 -60t-139.5 -17.5q-106 0 -163 31.5zM179 727l162 207h153l-181 -207h-134z" />
    <glyph glyph-name="cacute" unicode="&#x107;" 
d="M165 15q-54 24 -76.5 81.5t-22.5 163.5q0 108 22.5 167t76 83.5t151.5 24.5q86 0 133 -17t67.5 -57.5t22.5 -114.5h-121q-7 49 -27.5 66.5t-68.5 17.5q-53 0 -81.5 -15.5t-40.5 -52t-12 -103.5q0 -64 12 -99t41 -49.5t82 -14.5q46 0 66.5 15.5t29.5 57.5h120
q-2 -70 -22.5 -108t-67 -54t-131.5 -16q-99 0 -153 24zM160 573l162 207h153l-181 -207h-134z" />
    <glyph glyph-name="Cdotaccent" unicode="&#x10a;" 
d="M162 22.5q-57 31.5 -81 105.5t-24 211q0 138 24 213t81 106.5t163 31.5q89 0 138 -18.5t71 -62t25 -123.5h-125q-10 55 -33 75t-76 20q-55 0 -85 -21.5t-42.5 -73.5t-12.5 -147q0 -94 12.5 -145t42.5 -72.5t85 -21.5q59 0 83 18.5t32 70.5h125q-5 -78 -28 -120.5
t-72.5 -60t-139.5 -17.5q-106 0 -163 31.5zM247 892h144v-138h-144v138z" />
    <glyph glyph-name="cdotaccent" unicode="&#x10b;" 
d="M165 15q-54 24 -76.5 81.5t-22.5 163.5q0 108 22.5 167t76 83.5t151.5 24.5q86 0 133 -17t67.5 -57.5t22.5 -114.5h-121q-7 49 -27.5 66.5t-68.5 17.5q-53 0 -81.5 -15.5t-40.5 -52t-12 -103.5q0 -64 12 -99t41 -49.5t82 -14.5q46 0 66.5 15.5t29.5 57.5h120
q-2 -70 -22.5 -108t-67 -54t-131.5 -16q-99 0 -153 24zM228 738h144v-138h-144v138z" />
    <glyph glyph-name="Ccaron" unicode="&#x10c;" 
d="M162 22.5q-57 31.5 -81 105.5t-24 211q0 138 24 213t81 106.5t163 31.5q89 0 138 -18.5t71 -62t25 -123.5h-125q-10 55 -33 75t-76 20q-55 0 -85 -21.5t-42.5 -73.5t-12.5 -147q0 -94 12.5 -145t42.5 -72.5t85 -21.5q59 0 83 18.5t32 70.5h125q-5 -78 -28 -120.5
t-72.5 -60t-139.5 -17.5q-106 0 -163 31.5zM230 934l89 -108l88 108h133l-173 -211h-97l-173 211h133z" />
    <glyph glyph-name="ccaron" unicode="&#x10d;" 
d="M165 15q-54 24 -76.5 81.5t-22.5 163.5q0 108 22.5 167t76 83.5t151.5 24.5q86 0 133 -17t67.5 -57.5t22.5 -114.5h-121q-7 49 -27.5 66.5t-68.5 17.5q-53 0 -81.5 -15.5t-40.5 -52t-12 -103.5q0 -64 12 -99t41 -49.5t82 -14.5q46 0 66.5 15.5t29.5 57.5h120
q-2 -70 -22.5 -108t-67 -54t-131.5 -16q-99 0 -153 24zM211 780l89 -108l88 108h133l-173 -211h-97l-173 211h133z" />
    <glyph glyph-name="Dcaron" unicode="&#x10e;" 
d="M54 0v680q64 4 116 4q57 0 102 -5q114 -11 176.5 -46t88.5 -105.5t26 -196.5q0 -132 -30 -204.5t-101 -103.5t-201 -31q-74 0 -177 8zM261 102q68 4 105 26t52.5 71.5t15.5 138.5q0 84 -15 131.5t-50.5 70t-100.5 29.5q-51 5 -86 5v-469q60 -4 79 -3zM211 933l89 -108
l88 108h133l-173 -211h-97l-173 211h133z" />
    <glyph glyph-name="dcaron" unicode="&#x10f;" 
d="M75.5 14.5q-43.5 24.5 -62 83t-18.5 166.5q0 107 18.5 164.5t62 82t124.5 24.5q63 0 91.5 -13t43.5 -49h7v255h115v-728h-115v54h-7q-22 -37 -50 -50.5t-85 -13.5q-81 0 -124.5 24.5zM122 162q11 -36 37 -51.5t74 -15.5q44 0 67.5 15.5t33.5 51.5t10 102t-10 101.5
t-33.5 50.5t-67.5 15q-48 0 -74 -15t-37 -50.5t-11 -101.5t11 -102zM519 762h95l-43 -206h-79z" />
    <glyph glyph-name="Dcroat" unicode="&#x110;" 
d="M2 408h50v272q64 4 116 4q57 0 102 -5q114 -11 176.5 -46t88.5 -105.5t26 -196.5q0 -132 -30 -204.5t-101 -103.5t-201 -31q-74 0 -177 8v294h-50v114zM259 102q68 4 105 26t52.5 71.5t15.5 138.5q0 84 -15 131.5t-50.5 70t-100.5 29.5q-51 5 -86 5v-166h134v-114h-134
v-189q60 -4 79 -3z" />
    <glyph glyph-name="dcroat" unicode="&#x111;" 
d="M314 657h76v71h121v-71h66v-66h-66v-591h-121v54h-8q-23 -37 -52.5 -50.5t-89.5 -13.5q-85 0 -131.5 24.5t-66 83t-19.5 166.5q0 107 19.5 164.5t66 82t131.5 24.5q66 0 96 -13t46 -49h8v118h-76v66zM157.5 161.5q11.5 -36.5 39 -51.5t78.5 -15q46 0 71 15.5t35.5 51.5
t10.5 102t-10.5 101.5t-35.5 50.5t-71 15q-51 0 -78.5 -15t-39 -50.5t-11.5 -101.5t11.5 -102.5z" />
    <glyph glyph-name="Emacron" unicode="&#x112;" 
d="M96 680h422v-110h-294v-162h254v-110h-254v-188h314v-110h-442v680zM129 886h341v-96h-341v96z" />
    <glyph glyph-name="emacron" unicode="&#x113;" 
d="M158 15.5q-53 24.5 -75.5 83.5t-22.5 167q0 106 21.5 163.5t73 81.5t146.5 24q91 0 142 -25.5t73.5 -85t22.5 -167.5l-1 -39h-355q4 -49 16 -75.5t37.5 -37.5t71.5 -11q45 0 65.5 14t32.5 52h124q-10 -66 -33 -102t-67 -51.5t-121 -15.5q-98 0 -151 24.5zM419 313
q0 68 -26.5 93.5t-91.5 25.5q-63 0 -90 -26t-27 -93h235zM129 727h341v-96h-341v96z" />
    <glyph glyph-name="Edotaccent" unicode="&#x116;" 
d="M96 680h422v-110h-294v-162h254v-110h-254v-188h314v-110h-442v680zM228 897h144v-138h-144v138z" />
    <glyph glyph-name="edotaccent" unicode="&#x117;" 
d="M158 15.5q-53 24.5 -75.5 83.5t-22.5 167q0 106 21.5 163.5t73 81.5t146.5 24q91 0 142 -25.5t73.5 -85t22.5 -167.5l-1 -39h-355q4 -49 16 -75.5t37.5 -37.5t71.5 -11q45 0 65.5 14t32.5 52h124q-10 -66 -33 -102t-67 -51.5t-121 -15.5q-98 0 -151 24.5zM419 313
q0 68 -26.5 93.5t-91.5 25.5q-63 0 -90 -26t-27 -93h235zM228 738h144v-138h-144v138z" />
    <glyph glyph-name="Eogonek" unicode="&#x118;" 
d="M351.5 -186q-26.5 18 -26.5 61q0 15 3 33q4 29 24.5 49t70.5 43h121l-72 -46q-25 -16 -34 -28t-9 -28q0 -12 7 -16.5t23 -4.5t28.5 3t29.5 12v-84q-25 -6 -43 -9t-34 -3q-62 0 -88.5 18zM99 680h422v-110h-294v-162h254v-110h-254v-188h314v-110h-442v680z" />
    <glyph glyph-name="eogonek" unicode="&#x119;" 
d="M232.5 -176q-26.5 18 -26.5 61q0 15 3 33q4 24 17 40.5t43 33.5q-81 5 -126 32t-64 84.5t-19 157.5q0 106 21.5 163.5t73 81.5t146.5 24q91 0 142 -25.5t73.5 -85t22.5 -167.5l-1 -39h-355q4 -49 16 -75.5t37.5 -37.5t71.5 -11q45 0 65.5 14t32.5 52h124
q-12 -73 -38.5 -110t-81.5 -50l-57 -36q-25 -16 -34 -28t-9 -28q0 -12 7 -16.5t23 -4.5t28.5 3t29.5 12v-84q-25 -6 -43 -9t-34 -3q-62 0 -88.5 18zM419 313q0 68 -26.5 93.5t-91.5 25.5q-63 0 -90 -26t-27 -93h235z" />
    <glyph glyph-name="Ecaron" unicode="&#x11a;" 
d="M96 680h422v-110h-294v-162h254v-110h-254v-188h314v-110h-442v680zM211 939l89 -108l88 108h133l-173 -211h-97l-173 211h133z" />
    <glyph glyph-name="ecaron" unicode="&#x11b;" 
d="M158 15.5q-53 24.5 -75.5 83.5t-22.5 167q0 106 21.5 163.5t73 81.5t146.5 24q91 0 142 -25.5t73.5 -85t22.5 -167.5l-1 -39h-355q4 -49 16 -75.5t37.5 -37.5t71.5 -11q45 0 65.5 14t32.5 52h124q-10 -66 -33 -102t-67 -51.5t-121 -15.5q-98 0 -151 24.5zM419 313
q0 68 -26.5 93.5t-91.5 25.5q-63 0 -90 -26t-27 -93h235zM211 780l89 -108l88 108h133l-173 -211h-97l-173 211h133z" />
    <glyph glyph-name="Gbreve" unicode="&#x11e;" 
d="M154 22.5q-60 31.5 -85.5 106t-25.5 211.5q0 138 24 212.5t80.5 106t160.5 31.5q93 0 145 -18t75.5 -60t27.5 -120h-124q-3 35 -15 53.5t-37.5 26.5t-70.5 8q-55 0 -85 -22t-42.5 -74t-12.5 -147q0 -93 14 -143.5t46.5 -71.5t92.5 -21q38 0 61.5 4.5t49.5 15.5v153h-141
v109h262v-339q-67 -31 -115 -42t-114 -11q-111 0 -171 31.5zM164.5 784q-45.5 41 -56.5 131h110q10 -46 27 -62t55 -16t55 16t27 62h110q-11 -90 -56.5 -131t-135.5 -41t-135.5 41z" />
    <glyph glyph-name="gbreve" unicode="&#x11f;" 
d="M163 -204q-49 16 -70 53.5t-23 106.5h123q2 -31 11 -47t31.5 -22.5t67.5 -6.5t69.5 10.5t34.5 35t11 69.5l1 76h-8q-14 -30 -30 -45.5t-42.5 -22t-72.5 -6.5q-82 0 -128 24t-66.5 80.5t-20.5 159.5q0 107 20.5 165t70 82.5t139.5 24.5q57 0 84.5 -15.5t47.5 -57.5h8v62
h117v-537q0 -81 -21 -124.5t-71.5 -62t-143.5 -18.5q-90 0 -139 16zM184 163.5q11 -34.5 37.5 -49t74.5 -14.5t74 14.5t37 49t11 97.5q0 66 -11 102t-37 51.5t-74 15.5t-74.5 -15.5t-37.5 -51.5t-11 -102q0 -63 11 -97.5zM164.5 630q-45.5 41 -56.5 131h110q10 -46 27 -62
t55 -16t55 16t27 62h110q-11 -90 -56.5 -131t-135.5 -41t-135.5 41z" />
    <glyph glyph-name="Gdotaccent" unicode="&#x120;" 
d="M154 22.5q-60 31.5 -85.5 106t-25.5 211.5q0 138 24 212.5t80.5 106t160.5 31.5q93 0 145 -18t75.5 -60t27.5 -120h-124q-3 35 -15 53.5t-37.5 26.5t-70.5 8q-55 0 -85 -22t-42.5 -74t-12.5 -147q0 -93 14 -143.5t46.5 -71.5t92.5 -21q38 0 61.5 4.5t49.5 15.5v153h-141
v109h262v-339q-67 -31 -115 -42t-114 -11q-111 0 -171 31.5zM228 892h144v-138h-144v138z" />
    <glyph glyph-name="gdotaccent" unicode="&#x121;" 
d="M163 -204q-49 16 -70 53.5t-23 106.5h123q2 -31 11 -47t31.5 -22.5t67.5 -6.5t69.5 10.5t34.5 35t11 69.5l1 76h-8q-14 -30 -30 -45.5t-42.5 -22t-72.5 -6.5q-82 0 -128 24t-66.5 80.5t-20.5 159.5q0 107 20.5 165t70 82.5t139.5 24.5q57 0 84.5 -15.5t47.5 -57.5h8v62
h117v-537q0 -81 -21 -124.5t-71.5 -62t-143.5 -18.5q-90 0 -139 16zM184 163.5q11 -34.5 37.5 -49t74.5 -14.5t74 14.5t37 49t11 97.5q0 66 -11 102t-37 51.5t-74 15.5t-74.5 -15.5t-37.5 -51.5t-11 -102q0 -63 11 -97.5zM228 738h144v-138h-144v138z" />
    <glyph glyph-name="uni0122" unicode="&#x122;" 
d="M268 -58h131l-80 -183h-109zM154 22.5q-60 31.5 -85.5 106t-25.5 211.5q0 138 24 212.5t80.5 106t160.5 31.5q93 0 145 -18t75.5 -60t27.5 -120h-124q-3 35 -15 53.5t-37.5 26.5t-70.5 8q-55 0 -85 -22t-42.5 -74t-12.5 -147q0 -93 14 -143.5t46.5 -71.5t92.5 -21
q38 0 61.5 4.5t49.5 15.5v153h-141v109h262v-339q-67 -31 -115 -42t-114 -11q-111 0 -171 31.5z" />
    <glyph glyph-name="uni0123" unicode="&#x123;" 
d="M163 -204q-49 16 -70 53.5t-23 106.5h123q2 -31 11 -47t31.5 -22.5t67.5 -6.5t69.5 10.5t34.5 35t11 69.5l1 76h-8q-14 -30 -30 -45.5t-42.5 -22t-72.5 -6.5q-82 0 -128 24t-66.5 80.5t-20.5 159.5q0 107 20.5 165t70 82.5t139.5 24.5q57 0 84.5 -15.5t47.5 -57.5h8v62
h117v-537q0 -81 -21 -124.5t-71.5 -62t-143.5 -18.5q-90 0 -139 16zM184 163.5q11 -34.5 37.5 -49t74.5 -14.5t74 14.5t37 49t11 97.5q0 66 -11 102t-37 51.5t-74 15.5t-74.5 -15.5t-37.5 -51.5t-11 -102q0 -63 11 -97.5zM280 771h109l-60 -194h-131z" />
    <glyph glyph-name="Hbar" unicode="&#x126;" 
d="M3 616h67v64h121v-64h217v64h122v-64h67v-104h-67v-512h-122v297h-217v-297h-121v512h-67v104zM408 410v102h-217v-102h217z" />
    <glyph glyph-name="hbar" unicode="&#x127;" 
d="M14 667h64v61h122v-61h77v-96h-77v-119h8q25 47 56 65t86 18q77 0 118 -18t58.5 -61.5t17.5 -123.5v-332h-122v334q0 56 -20.5 76.5t-77.5 20.5q-49 0 -75.5 -14t-37.5 -48t-11 -97v-272h-122v571h-64v96z" />
    <glyph glyph-name="Imacron" unicode="&#x12a;" 
d="M112 111h125v458h-118v111h361v-111h-118v-458h125v-111h-375v111zM129 880h341v-96h-341v96z" />
    <glyph glyph-name="imacron" unicode="&#x12b;" 
d="M92 103h174v316h-164v103h284v-419h167v-103h-461v103zM143 742h341v-96h-341v96z" />
    <glyph glyph-name="Iogonek" unicode="&#x12e;" 
d="M295.5 -186q-26.5 18 -26.5 61q0 15 3 33q4 29 24.5 49t70.5 43h121l-72 -46q-25 -16 -34 -28t-9 -28q0 -12 7 -16.5t23 -4.5t28.5 3t29.5 12v-84q-25 -6 -43 -9t-34 -3q-62 0 -88.5 18zM112 111h125v458h-118v111h361v-111h-118v-458h125v-111h-375v111z" />
    <glyph glyph-name="iogonek" unicode="&#x12f;" 
d="M195.5 -186q-26.5 18 -26.5 61q0 15 3 33q4 29 24.5 49t70.5 43h121l-72 -46q-25 -16 -34 -28t-9 -28q0 -12 7 -16.5t23 -4.5t28.5 3t29.5 12v-84q-25 -6 -43 -9t-34 -3q-62 0 -88.5 18zM92 103h174v316h-164v103h284v-419h167v-103h-461v103zM242 753h144v-138h-144v138
z" />
    <glyph glyph-name="Idotaccent" unicode="&#x130;" 
d="M112 111h125v458h-118v111h361v-111h-118v-458h125v-111h-375v111zM228 891h144v-138h-144v138z" />
    <glyph glyph-name="dotlessi" unicode="&#x131;" 
d="M92 103h174v316h-164v103h284v-419h167v-103h-461v103z" />
    <glyph glyph-name="IJ" unicode="&#x132;" 
d="M271 8q-42 17 -59.5 55t-15.5 105h125q2 -33 6.5 -46.5t16.5 -18t42 -4.5q28 0 41.5 8t19 30t5.5 70v473h125v-477q0 -80 -17.5 -125.5t-58 -66t-112.5 -20.5q-76 0 -118 17zM22 680h123v-680h-123v680z" />
    <glyph glyph-name="ij" unicode="&#x133;" 
d="M263.5 -125.5q55.5 8.5 80.5 28t25 54.5v565h120v-570q0 -81 -36 -122t-116 -56t-229 -14v104q100 2 155.5 10.5zM91 728h153v-141h-153v141zM108 522h120v-521h-120v521zM352 728h153v-141h-153v141z" />
    <glyph glyph-name="uni0136" unicode="&#x136;" 
d="M268 -58h131l-80 -183h-109zM55 680h127v-312l223 312h147l-244 -332v-3l282 -345h-159l-249 324v-324h-127v680z" />
    <glyph glyph-name="uni0137" unicode="&#x137;" 
d="M268 -58h131l-80 -183h-109zM196 284v-284h-120v728h120v-435l221 229h144l-229 -233l252 -289h-153z" />
    <glyph glyph-name="Lacute" unicode="&#x139;" 
d="M82 680h128v-567h344v-112h-472v679zM69 726l162 207h153l-181 -207h-134z" />
    <glyph glyph-name="lacute" unicode="&#x13a;" 
d="M67 104h183v520h-173v104h293v-624h171v-104h-474v104zM160 804l162 207h153l-181 -207h-134z" />
    <glyph glyph-name="uni013B" unicode="&#x13b;" 
d="M268 -58h131l-80 -183h-109zM82 680h128v-567h344v-112h-472v679z" />
    <glyph glyph-name="uni013C" unicode="&#x13c;" 
d="M246 -58h131l-80 -183h-109zM67 104h183v520h-173v104h293v-624h171v-104h-474v104z" />
    <glyph glyph-name="Lcaron" unicode="&#x13d;" 
d="M82 680h128v-567h344v-112h-472v679zM329 549h128l-58 -206h-106z" />
    <glyph glyph-name="lcaron" unicode="&#x13e;" 
d="M67 104h183v520h-173v104h293v-624h171v-104h-474v104zM439 772h128l-58 -206h-106z" />
    <glyph glyph-name="Lslash" unicode="&#x141;" 
d="M18 373l104 57v250h128v-179l133 73v-123l-133 -73v-265h344v-112h-472v306l-104 -57v123z" />
    <glyph glyph-name="lslash" unicode="&#x142;" 
d="M110 370l138 70v184h-173v104h293v-227l133 68v-115l-133 -68v-282h171v-104h-474v104h183v221l-138 -70v115z" />
    <glyph glyph-name="Nacute" unicode="&#x143;" 
d="M44 680h156l244 -533h3l-14 142v391h123v-680h-156l-244 533h-3l14 -142v-391h-123v680zM160 726l162 207h153l-181 -207h-134z" />
    <glyph glyph-name="nacute" unicode="&#x144;" 
d="M68 522h122v-72h8q28 49 58 67t85 18q76 0 117 -18.5t58.5 -62t17.5 -124.5v-330h-122v332q0 55 -20.5 75t-76.5 20q-49 0 -75.5 -14t-38 -47.5t-11.5 -94.5v-271h-122v522zM160 573l162 207h153l-181 -207h-134z" />
    <glyph glyph-name="uni0145" unicode="&#x145;" 
d="M268 -58h131l-80 -183h-109zM44 680h156l244 -533h3l-14 142v391h123v-680h-156l-244 533h-3l14 -142v-391h-123v680z" />
    <glyph glyph-name="uni0146" unicode="&#x146;" 
d="M268 -58h131l-80 -183h-109zM68 522h122v-72h8q28 49 58 67t85 18q76 0 117 -18.5t58.5 -62t17.5 -124.5v-330h-122v332q0 55 -20.5 75t-76.5 20q-49 0 -75.5 -14t-38 -47.5t-11.5 -94.5v-271h-122v522z" />
    <glyph glyph-name="Ncaron" unicode="&#x147;" 
d="M44 680h156l244 -533h3l-14 142v391h123v-680h-156l-244 533h-3l14 -142v-391h-123v680zM211 933l89 -108l88 108h133l-173 -211h-97l-173 211h133z" />
    <glyph glyph-name="ncaron" unicode="&#x148;" 
d="M68 522h122v-72h8q28 49 58 67t85 18q76 0 117 -18.5t58.5 -62t17.5 -124.5v-330h-122v332q0 55 -20.5 75t-76.5 20q-49 0 -75.5 -14t-38 -47.5t-11.5 -94.5v-271h-122v522zM211 780l89 -108l88 108h133l-173 -211h-97l-173 211h133z" />
    <glyph glyph-name="Omacron" unicode="&#x14c;" 
d="M139.5 22q-56.5 31 -80 105t-23.5 211q0 139 23.5 214t80 106.5t160.5 31.5t160.5 -31.5t80 -106.5t23.5 -214q0 -137 -23.5 -211t-80 -105t-160.5 -31t-160.5 31zM174.5 194.5q12.5 -50.5 42 -72t83.5 -21.5t83 21.5t41.5 72t12.5 143.5q0 96 -12.5 147.5t-41.5 73
t-83 21.5t-83.5 -21.5t-42 -73.5t-12.5 -147q0 -93 12.5 -143.5zM129 881h341v-96h-341v96z" />
    <glyph glyph-name="omacron" unicode="&#x14d;" 
d="M150 15.5q-53 24.5 -75.5 82t-22.5 164.5q0 108 22.5 166t75 82.5t150.5 24.5t150.5 -24.5t75 -82.5t22.5 -166q0 -107 -22.5 -164.5t-75.5 -82t-150 -24.5t-150 24.5zM185.5 160.5q11.5 -35.5 38 -50.5t76.5 -15t76.5 15t38 50.5t11.5 101.5q0 67 -11.5 103t-38 51.5
t-76.5 15.5t-76.5 -15.5t-38 -51.5t-11.5 -103q0 -66 11.5 -101.5zM129 727h341v-96h-341v96z" />
    <glyph glyph-name="Ohungarumlaut" unicode="&#x150;" 
d="M139.5 22q-56.5 31 -80 105t-23.5 211q0 139 23.5 214t80 106.5t160.5 31.5t160.5 -31.5t80 -106.5t23.5 -214q0 -137 -23.5 -211t-80 -105t-160.5 -31t-160.5 31zM174.5 194.5q12.5 -50.5 42 -72t83.5 -21.5t83 21.5t41.5 72t12.5 143.5q0 96 -12.5 147.5t-41.5 73
t-83 21.5t-83.5 -21.5t-42 -73.5t-12.5 -147q0 -93 12.5 -143.5zM100 727l162 207h153l-181 -207h-134zM320 728l162 207h153l-181 -207h-134z" />
    <glyph glyph-name="ohungarumlaut" unicode="&#x151;" 
d="M150 15.5q-53 24.5 -75.5 82t-22.5 164.5q0 108 22.5 166t75 82.5t150.5 24.5t150.5 -24.5t75 -82.5t22.5 -166q0 -107 -22.5 -164.5t-75.5 -82t-150 -24.5t-150 24.5zM185.5 160.5q11.5 -35.5 38 -50.5t76.5 -15t76.5 15t38 50.5t11.5 101.5q0 67 -11.5 103t-38 51.5
t-76.5 15.5t-76.5 -15.5t-38 -51.5t-11.5 -103q0 -66 11.5 -101.5zM100 573l162 207h153l-181 -207h-134zM320 574l162 207h153l-181 -207h-134z" />
    <glyph glyph-name="OE" unicode="&#x152;" 
d="M80.5 22.5q-40.5 31.5 -58 106t-17.5 211.5q0 138 17.5 212.5t58.5 106t117 31.5q47 0 68 -14.5t34 -57.5h9v63h281v-108h-161v-166h151v-107h-151v-193h161v-107h-281v61h-9q-12 -41 -33 -55.5t-70 -14.5q-76 0 -116.5 31.5zM139 192.5q8 -51.5 26 -73t52 -21.5
q36 0 55.5 21.5t28 73.5t8.5 147t-8 147t-27.5 74t-55.5 22q-34 0 -52.5 -22t-26.5 -74t-8 -148q0 -95 8 -146.5z" />
    <glyph glyph-name="oe" unicode="&#x153;" 
d="M73 14.5q-37 24.5 -52.5 82.5t-15.5 165q0 108 15.5 166t52.5 82.5t105 24.5q53 0 80 -19t47 -71h9q21 52 45.5 70.5t70.5 18.5q63 0 98 -25t50 -84.5t15 -168.5v-33h-225q2 -51 8 -79t17.5 -39.5t32.5 -11.5q20 0 29.5 14t14.5 53h115q-9 -67 -25.5 -103t-45.5 -51.5
t-78 -15.5q-50 0 -76 19t-46 71h-9q-21 -52 -48 -71t-79 -19q-68 0 -105 24.5zM125 161q6 -36 20 -51.5t40 -15.5q27 0 41.5 15.5t20.5 51.5t6 102t-6 102t-20.5 51.5t-41.5 15.5q-26 0 -40 -15.5t-20 -51.5t-6 -102t6 -102zM484 325q-3 62 -14.5 84t-39.5 22
q-29 0 -41.5 -22.5t-18.5 -83.5h114z" />
    <glyph glyph-name="Racute" unicode="&#x154;" 
d="M70 679l119 4q21 1 59 1q110 0 170.5 -19t86 -62t25.5 -120q0 -51 -10.5 -80.5t-35.5 -45t-71 -22.5v-9q42 -7 62.5 -31t36.5 -83l57 -212h-137l-47 203q-10 44 -36 59.5t-88 15.5h-64v-278h-127v679zM326 389q45 0 61.5 21.5t16.5 77.5q0 44 -17 61.5t-63 20.5
q-55 3 -84 3t-43 -1v-183h129zM160 727l162 207h153l-181 -207h-134z" />
    <glyph glyph-name="racute" unicode="&#x155;" 
d="M132 522h110l-5 -107h11q37 62 53 82t34 25t66 5l98 -2v-120q-18 1 -54 1q-55 0 -97 -5q-20 -3 -43 -26t-38 -55.5t-15 -62.5v-257h-120v522zM160 573l162 207h153l-181 -207h-134z" />
    <glyph glyph-name="uni0156" unicode="&#x156;" 
d="M268 -58h131l-80 -183h-109zM70 679l119 4q21 1 59 1q110 0 170.5 -19t86 -62t25.5 -120q0 -51 -10.5 -80.5t-35.5 -45t-71 -22.5v-9q42 -7 62.5 -31t36.5 -83l57 -212h-137l-47 203q-10 44 -36 59.5t-88 15.5h-64v-278h-127v679zM326 389q45 0 61.5 21.5t16.5 77.5
q0 44 -17 61.5t-63 20.5q-55 3 -84 3t-43 -1v-183h129z" />
    <glyph glyph-name="uni0157" unicode="&#x157;" 
d="M160 -58h131l-80 -183h-109zM132 522h110l-5 -107h11q37 62 53 82t34 25t66 5l98 -2v-120q-18 1 -54 1q-55 0 -97 -5q-20 -3 -43 -26t-38 -55.5t-15 -62.5v-257h-120v522z" />
    <glyph glyph-name="Rcaron" unicode="&#x158;" 
d="M70 679l119 4q21 1 59 1q110 0 170.5 -19t86 -62t25.5 -120q0 -51 -10.5 -80.5t-35.5 -45t-71 -22.5v-9q42 -7 62.5 -31t36.5 -83l57 -212h-137l-47 203q-10 44 -36 59.5t-88 15.5h-64v-278h-127v679zM326 389q45 0 61.5 21.5t16.5 77.5q0 44 -17 61.5t-63 20.5
q-55 3 -84 3t-43 -1v-183h129zM211 934l89 -108l88 108h133l-173 -211h-97l-173 211h133z" />
    <glyph glyph-name="rcaron" unicode="&#x159;" 
d="M132 522h110l-5 -107h11q37 62 53 82t34 25t66 5l98 -2v-120q-18 1 -54 1q-55 0 -97 -5q-20 -3 -43 -26t-38 -55.5t-15 -62.5v-257h-120v522zM211 780l89 -108l88 108h133l-173 -211h-97l-173 211h133z" />
    <glyph glyph-name="Sacute" unicode="&#x15a;" 
d="M141.5 10q-56.5 19 -79.5 65t-20 130h125q3 -42 16 -64.5t42.5 -31.5t84.5 -9q48 0 74.5 7t37.5 24.5t11 49.5q0 30 -16 51t-52.5 38.5t-103.5 37.5q-84 25 -129.5 50.5t-64.5 60.5t-19 89q0 71 22.5 110t76 55.5t151.5 16.5q96 0 148.5 -17t75.5 -58t22 -117h-127
q-3 33 -14.5 50.5t-37 25t-71.5 7.5q-48 0 -73.5 -7t-36.5 -23t-11 -47q0 -29 38.5 -51.5t137.5 -53.5q82 -26 126.5 -53t63.5 -65.5t19 -98.5q0 -75 -23 -116t-77.5 -58t-155.5 -17q-104 0 -160.5 19zM190 728l162 207h153l-181 -207h-134z" />
    <glyph glyph-name="sacute" unicode="&#x15b;" 
d="M154.5 7q-51.5 16 -72.5 55t-19 110h123q1 -31 12 -47.5t37.5 -23.5t75.5 -7q59 0 81 11.5t22 42.5q0 20 -12.5 33.5t-42.5 23.5t-85 20q-80 15 -123.5 33.5t-62 47t-18.5 75.5q0 61 20.5 93.5t70 46.5t139.5 14q88 0 136 -14.5t68 -49t21 -98.5h-120q-2 34 -24.5 46.5
t-81.5 12.5q-62 0 -85 -11t-23 -41q0 -16 31.5 -28.5t122.5 -33.5q75 -17 116 -37.5t58.5 -51.5t17.5 -80q0 -62 -21 -96t-71.5 -48t-142.5 -14q-96 0 -147.5 16zM176 573l162 207h153l-181 -207h-134z" />
    <glyph glyph-name="Scedilla" unicode="&#x15e;" 
d="M212 -229v78q43 -12 75 -12q21 0 30 6t9 19t-12 18t-41 5h-55v57l42 50q-86 4 -134 24.5t-67.5 65.5t-16.5 123h125q3 -42 16 -64.5t42.5 -31.5t84.5 -9q48 0 74.5 7t37.5 24.5t11 49.5q0 30 -16 51t-52.5 38.5t-103.5 37.5q-84 25 -129.5 50.5t-64.5 60.5t-19 89
q0 71 22.5 110t76 55.5t151.5 16.5q96 0 148.5 -17t75.5 -58t22 -117h-127q-3 33 -14.5 50.5t-37 25t-71.5 7.5q-48 0 -73.5 -7t-36.5 -23t-11 -47q0 -29 38.5 -51.5t137.5 -53.5q82 -26 126.5 -53t63.5 -65.5t19 -98.5q0 -65 -17.5 -104t-57.5 -59t-112 -26l-46 -36
q56 -5 79 -26t23 -67q0 -57 -30.5 -81t-103.5 -24q-41 0 -81 12z" />
    <glyph glyph-name="scedilla" unicode="&#x15f;" 
d="M202 -229v78q43 -12 75 -12q21 0 30 6t9 19t-12 18t-41 5h-55v57l42 50q-74 4 -115 22.5t-57.5 56t-14.5 101.5h123q1 -31 12 -47.5t37.5 -23.5t75.5 -7q59 0 81 11.5t22 42.5q0 20 -12.5 33.5t-42.5 23.5t-85 20q-80 15 -123.5 33.5t-62 47t-18.5 75.5q0 61 20.5 93.5
t70 46.5t139.5 14q88 0 136 -14.5t68 -49t21 -98.5h-120q-2 34 -24.5 46.5t-81.5 12.5q-62 0 -85 -11t-23 -41q0 -16 31.5 -28.5t122.5 -33.5q75 -17 116 -37.5t58.5 -51.5t17.5 -80q0 -55 -16.5 -87.5t-54.5 -48.5t-106 -20l-45 -36q56 -5 79 -26t23 -67q0 -57 -30.5 -81
t-103.5 -24q-41 0 -81 12z" />
    <glyph glyph-name="Scaron" unicode="&#x160;" 
d="M141.5 10q-56.5 19 -79.5 65t-20 130h125q3 -42 16 -64.5t42.5 -31.5t84.5 -9q48 0 74.5 7t37.5 24.5t11 49.5q0 30 -16 51t-52.5 38.5t-103.5 37.5q-84 25 -129.5 50.5t-64.5 60.5t-19 89q0 71 22.5 110t76 55.5t151.5 16.5q96 0 148.5 -17t75.5 -58t22 -117h-127
q-3 33 -14.5 50.5t-37 25t-71.5 7.5q-48 0 -73.5 -7t-36.5 -23t-11 -47q0 -29 38.5 -51.5t137.5 -53.5q82 -26 126.5 -53t63.5 -65.5t19 -98.5q0 -75 -23 -116t-77.5 -58t-155.5 -17q-104 0 -160.5 19zM241 935l89 -108l88 108h133l-173 -211h-97l-173 211h133z" />
    <glyph glyph-name="scaron" unicode="&#x161;" 
d="M154.5 7q-51.5 16 -72.5 55t-19 110h123q1 -31 12 -47.5t37.5 -23.5t75.5 -7q59 0 81 11.5t22 42.5q0 20 -12.5 33.5t-42.5 23.5t-85 20q-80 15 -123.5 33.5t-62 47t-18.5 75.5q0 61 20.5 93.5t70 46.5t139.5 14q88 0 136 -14.5t68 -49t21 -98.5h-120q-2 34 -24.5 46.5
t-81.5 12.5q-62 0 -85 -11t-23 -41q0 -16 31.5 -28.5t122.5 -33.5q75 -17 116 -37.5t58.5 -51.5t17.5 -80q0 -62 -21 -96t-71.5 -48t-142.5 -14q-96 0 -147.5 16zM227 780l89 -108l88 108h133l-173 -211h-97l-173 211h133z" />
    <glyph glyph-name="uni0162" unicode="&#x162;" 
d="M191 -229v78q43 -12 75 -12q21 0 30 6t9 19t-12 18t-41 5h-55v57l39 58h1v566h-182v114h492v-114h-182v-566h-1l-60 -43q56 -5 79 -26t23 -67q0 -57 -30.5 -81t-103.5 -24q-41 0 -81 12z" />
    <glyph glyph-name="uni0163" unicode="&#x163;" 
d="M272 -229v78q43 -12 75 -12q21 0 30 6t9 19t-12 18t-41 5h-55v57l42 49q-52 6 -79.5 27t-37.5 56.5t-10 92.5v252h-129l24 103h109v106l116 49v-155h195v-103h-195v-248q0 -32 5.5 -47t24 -22t56.5 -7q43 0 125 12v-105q-70 -8 -95 -10l-44 -35q56 -5 79 -26t23 -67
q0 -57 -30.5 -81t-103.5 -24q-41 0 -81 12z" />
    <glyph glyph-name="Tcaron" unicode="&#x164;" 
d="M236 566h-182v114h492v-114h-182v-566h-128v566zM211 933l89 -108l88 108h133l-173 -211h-97l-173 211h133z" />
    <glyph glyph-name="tcaron" unicode="&#x165;" 
d="M256 8q-37 19 -50 56.5t-13 102.5v252h-129l24 103h109v106l116 49v-155h195v-103h-195v-248q0 -32 5.5 -47t24 -22t56.5 -7q43 0 125 12v-105q-104 -13 -159 -13q-72 0 -109 19zM375 772h128l-58 -206h-106z" />
    <glyph glyph-name="Umacron" unicode="&#x16a;" 
d="M152 12q-54 21 -77 70t-23 139v459h128v-454q0 -48 11.5 -74.5t38 -37.5t75.5 -11q45 0 69.5 11t35 37t10.5 74v455h128v-458q0 -91 -22 -140t-74 -70t-147 -21q-99 0 -153 21zM129 880h341v-96h-341v96z" />
    <glyph glyph-name="umacron" unicode="&#x16b;" 
d="M135.5 9q-37.5 18 -53.5 61t-16 122v330h122v-332q0 -55 18.5 -75t70.5 -20q53 0 81 14t40 47.5t12 95.5v270h122v-522h-122v73h-8q-26 -47 -59.5 -64.5t-100.5 -17.5q-69 0 -106.5 18zM129 723h341v-96h-341v96z" />
    <glyph glyph-name="Uring" unicode="&#x16e;" 
d="M152 12q-54 21 -77 70t-23 139v459h128v-454q0 -48 11.5 -74.5t38 -37.5t75.5 -11q45 0 69.5 11t35 37t10.5 74v455h128v-458q0 -91 -22 -140t-74 -70t-147 -21q-99 0 -153 21zM210.5 744q-27.5 27 -27.5 84q0 58 27.5 85.5t87.5 27.5q61 0 89.5 -27.5t28.5 -85.5
t-28.5 -84.5t-89.5 -26.5q-60 0 -87.5 27zM276.5 798q4.5 -6 21.5 -6q19 0 24 6t5 30q0 26 -5 33t-24 7q-17 0 -21.5 -6.5t-4.5 -33.5q0 -24 4.5 -30z" />
    <glyph glyph-name="uring" unicode="&#x16f;" 
d="M135.5 9q-37.5 18 -53.5 61t-16 122v330h122v-332q0 -55 18.5 -75t70.5 -20q53 0 81 14t40 47.5t12 95.5v270h122v-522h-122v73h-8q-26 -47 -59.5 -64.5t-100.5 -17.5q-69 0 -106.5 18zM210.5 587q-27.5 27 -27.5 84q0 58 27.5 85.5t87.5 27.5q61 0 89.5 -27.5
t28.5 -85.5t-28.5 -84.5t-89.5 -26.5q-60 0 -87.5 27zM276.5 641q4.5 -6 21.5 -6q19 0 24 6t5 30q0 26 -5 33t-24 7q-17 0 -21.5 -6.5t-4.5 -33.5q0 -24 4.5 -30z" />
    <glyph glyph-name="Uhungarumlaut" unicode="&#x170;" 
d="M152 12q-54 21 -77 70t-23 139v459h128v-454q0 -48 11.5 -74.5t38 -37.5t75.5 -11q45 0 69.5 11t35 37t10.5 74v455h128v-458q0 -91 -22 -140t-74 -70t-147 -21q-99 0 -153 21zM100 726l162 207h153l-181 -207h-134zM320 727l162 207h153l-181 -207h-134z" />
    <glyph glyph-name="uhungarumlaut" unicode="&#x171;" 
d="M135.5 9q-37.5 18 -53.5 61t-16 122v330h122v-332q0 -55 18.5 -75t70.5 -20q53 0 81 14t40 47.5t12 95.5v270h122v-522h-122v73h-8q-26 -47 -59.5 -64.5t-100.5 -17.5q-69 0 -106.5 18zM100 569l162 207h153l-181 -207h-134zM320 570l162 207h153l-181 -207h-134z" />
    <glyph glyph-name="Uogonek" unicode="&#x172;" 
d="M202.5 -186q-26.5 18 -26.5 61q0 15 3 33q4 27 21 45.5t58 38.5q-79 5 -123.5 28t-63.5 70.5t-19 130.5v459h128v-454q0 -48 11.5 -74.5t38 -37.5t75.5 -11q45 0 69.5 11t35 37t10.5 74v455h128v-458q0 -76 -15 -122t-49.5 -71t-95.5 -33l-65 -42q-25 -16 -34 -28t-9 -28
q0 -12 7 -16.5t23 -4.5t28.5 3t29.5 12v-84q-25 -6 -43 -9t-34 -3q-62 0 -88.5 18z" />
    <glyph glyph-name="uogonek" unicode="&#x173;" 
d="M339.5 -186q-26.5 18 -26.5 61q0 15 3 33q5 29 25 49t69 43v73h-8q-26 -47 -59.5 -64.5t-100.5 -17.5q-69 0 -106.5 18t-53.5 61t-16 122v330h122v-332q0 -55 18.5 -75t70.5 -20q53 0 81 14t40 47.5t12 95.5v270h122v-522l-72 -46q-25 -16 -34 -28t-9 -28q0 -12 7 -16.5
t23 -4.5t28.5 3t29.5 12v-84q-25 -6 -43 -9t-34 -3q-62 0 -88.5 18z" />
    <glyph glyph-name="Wcircumflex" unicode="&#x174;" 
d="M7 680h110l39 -535h1l7 124l64 411h144l62 -411l8 -124h1l40 535h110l-81 -680h-133l-77 592h-4l-78 -592h-132zM251 933h97l173 -211h-133l-88 108l-89 -108h-133z" />
    <glyph glyph-name="wcircumflex" unicode="&#x175;" 
d="M367 0l-64 421h-5l-65 -421h-141l-82 523h108l44 -403h2l73 402h127l72 -402h2l44 403h108l-82 -523h-141zM251 776h97l173 -211h-133l-88 108l-89 -108h-133z" />
    <glyph glyph-name="Ycircumflex" unicode="&#x176;" 
d="M236 277l-203 405h138l127 -279h5l128 279h137l-204 -405v-277h-128v277zM251 933h97l173 -211h-133l-88 108l-89 -108h-133z" />
    <glyph glyph-name="ycircumflex" unicode="&#x177;" 
d="M253 48h-34l-170 474h124l125 -384h5l123 384h126l-260 -737h-126zM251 776h97l173 -211h-133l-88 108l-89 -108h-133z" />
    <glyph glyph-name="Ydieresis" unicode="&#x178;" 
d="M236 277l-203 405h138l127 -279h5l128 279h137l-204 -405v-277h-128v277zM329 891h144v-138h-144v138zM127 891h144v-138h-144v138z" />
    <glyph glyph-name="Zacute" unicode="&#x179;" 
d="M62 109l323 455h-306v116h459v-103l-325 -461h325v-116h-476v109zM160 726l162 207h153l-181 -207h-134z" />
    <glyph glyph-name="zacute" unicode="&#x17a;" 
d="M75 89l285 325h-267v106h431v-85l-289 -327h289v-108h-449v89zM160 569l162 207h153l-181 -207h-134z" />
    <glyph glyph-name="Zdotaccent" unicode="&#x17b;" 
d="M62 109l323 455h-306v116h459v-103l-325 -461h325v-116h-476v109zM228 891h144v-138h-144v138z" />
    <glyph glyph-name="zdotaccent" unicode="&#x17c;" 
d="M75 89l285 325h-267v106h431v-85l-289 -327h289v-108h-449v89zM228 734h144v-138h-144v138z" />
    <glyph glyph-name="Zcaron" unicode="&#x17d;" 
d="M62 109l323 455h-306v116h459v-103l-325 -461h325v-116h-476v109zM211 933l89 -108l88 108h133l-173 -211h-97l-173 211h133z" />
    <glyph glyph-name="zcaron" unicode="&#x17e;" 
d="M75 89l285 325h-267v106h431v-85l-289 -327h289v-108h-449v89zM211 776l89 -108l88 108h133l-173 -211h-97l-173 211h133z" />
    <glyph glyph-name="uni018F" unicode="&#x18f;" 
d="M144.5 25q-55.5 32 -79.5 107.5t-24 211.5l1 45h384q-3 71 -16.5 109t-41.5 54t-78 16q-49 0 -71 -16.5t-32 -61.5h-135q9 79 33 122t72 61t132 18q106 0 163 -31.5t81 -107t24 -214.5q0 -136 -23 -209.5t-78 -104.5t-156 -31q-100 0 -155.5 32zM180 178q12 -33 39.5 -47
t77.5 -14q46 0 72 14t39 47t17 94h-259q2 -61 14 -94z" />
    <glyph glyph-name="florin" unicode="&#x192;" 
d="M51 2h100q14 0 18.5 4t10.5 25.5t14 58.5l73 323h-105l-33 109h163l12 54q20 87 35 122t46.5 48.5t101.5 13.5h102l-22 -109h-87q-24 0 -32 -3.5t-12 -16t-14 -56.5l-12 -53h121l-23 -109h-122l-73 -331q-20 -89 -34.5 -125t-43.5 -50t-92 -14h-114z" />
    <glyph glyph-name="uni0218" unicode="&#x218;" 
d="M290 -58h131l-80 -183h-109zM141.5 10q-56.5 19 -79.5 65t-20 130h125q3 -42 16 -64.5t42.5 -31.5t84.5 -9q48 0 74.5 7t37.5 24.5t11 49.5q0 30 -16 51t-52.5 38.5t-103.5 37.5q-84 25 -129.5 50.5t-64.5 60.5t-19 89q0 71 22.5 110t76 55.5t151.5 16.5q96 0 148.5 -17
t75.5 -58t22 -117h-127q-3 33 -14.5 50.5t-37 25t-71.5 7.5q-48 0 -73.5 -7t-36.5 -23t-11 -47q0 -29 38.5 -51.5t137.5 -53.5q82 -26 126.5 -53t63.5 -65.5t19 -98.5q0 -75 -23 -116t-77.5 -58t-155.5 -17q-104 0 -160.5 19z" />
    <glyph glyph-name="uni0219" unicode="&#x219;" 
d="M280 -58h131l-80 -183h-109zM154.5 7q-51.5 16 -72.5 55t-19 110h123q1 -31 12 -47.5t37.5 -23.5t75.5 -7q59 0 81 11.5t22 42.5q0 20 -12.5 33.5t-42.5 23.5t-85 20q-80 15 -123.5 33.5t-62 47t-18.5 75.5q0 61 20.5 93.5t70 46.5t139.5 14q88 0 136 -14.5t68 -49
t21 -98.5h-120q-2 34 -24.5 46.5t-81.5 12.5q-62 0 -85 -11t-23 -41q0 -16 31.5 -28.5t122.5 -33.5q75 -17 116 -37.5t58.5 -51.5t17.5 -80q0 -62 -21 -96t-71.5 -48t-142.5 -14q-96 0 -147.5 16z" />
    <glyph glyph-name="uni021A" unicode="&#x21a;" 
d="M234 -58h131l-80 -183h-109zM236 566h-182v114h492v-114h-182v-566h-128v566z" />
    <glyph glyph-name="uni021B" unicode="&#x21b;" 
d="M350 -58h131l-80 -183h-109zM256 8q-37 19 -50 56.5t-13 102.5v252h-129l24 103h109v106l116 49v-155h195v-103h-195v-248q0 -32 5.5 -47t24 -22t56.5 -7q43 0 125 12v-105q-104 -13 -159 -13q-72 0 -109 19z" />
    <glyph glyph-name="uni0237" unicode="&#x237;" 
d="M225 -112.5q40 11.5 55 29.5t15 50v451h-156v104h276v-560q0 -77 -24.5 -116t-89 -58t-197.5 -28v104q81 12 121 23.5z" />
    <glyph glyph-name="uni0259" unicode="&#x259;" 
d="M442 506.5q53 -24.5 75.5 -83.5t22.5 -167q0 -106 -21.5 -163.5t-73 -81.5t-146.5 -24q-91 0 -142 25.5t-73.5 85t-22.5 167.5l1 39h355q-4 49 -16 75.5t-37.5 37.5t-71.5 11q-45 0 -65.5 -14t-32.5 -52h-124q10 66 33 102t67 51.5t121 15.5q98 0 151 -24.5zM207.5 115.5
q26.5 -25.5 91.5 -25.5q63 0 90 26t27 93h-235q0 -68 26.5 -93.5z" />
    <glyph glyph-name="circumflex" unicode="&#x2c6;" 
d="M252 795h97l173 -211h-133l-88 108l-89 -108h-133z" />
    <glyph glyph-name="caron" unicode="&#x2c7;" 
d="M211 795l89 -108l88 108h133l-173 -211h-97l-173 211h133z" />
    <glyph glyph-name="breve" unicode="&#x2d8;" 
d="M164.5 645q-45.5 41 -56.5 131h110q10 -46 27 -62t55 -16t55 16t27 62h110q-11 -90 -56.5 -131t-135.5 -41t-135.5 41z" />
    <glyph glyph-name="dotaccent" unicode="&#x2d9;" 
d="M226 753h144v-138h-144v138z" />
    <glyph glyph-name="ring" unicode="&#x2da;" 
d="M211.5 606q-27.5 27 -27.5 84q0 58 27.5 85.5t87.5 27.5q61 0 89.5 -27.5t28.5 -85.5t-28.5 -84.5t-89.5 -26.5q-60 0 -87.5 27zM277.5 660q4.5 -6 21.5 -6q19 0 24 6t5 30q0 26 -5 33t-24 7q-17 0 -21.5 -6.5t-4.5 -33.5q0 -24 4.5 -30z" />
    <glyph glyph-name="ogonek" unicode="&#x2db;" 
d="M197.5 -186q-26.5 18 -26.5 61q0 15 3 33q4 29 24.5 49t70.5 43h121l-72 -46q-25 -16 -34 -28t-9 -28q0 -12 7 -16.5t23 -4.5t28.5 3t29.5 12v-84q-25 -6 -43 -9t-34 -3q-62 0 -88.5 18z" />
    <glyph glyph-name="tilde" unicode="&#x2dc;" 
d="M329 591q-22 11 -59 48q-33 33 -42 39.5t-19 6.5q-7 0 -9 -3.5t-2.5 -21.5t-0.5 -50h-104q-1 74 7 107t32.5 45t79.5 12q38 0 61.5 -11.5t60.5 -48.5q30 -31 40 -38.5t18 -7.5t10 3.5t2.5 23t0.5 52.5h103q1 -74 -7 -108t-33 -46.5t-80 -12.5q-37 0 -59 11z" />
    <glyph glyph-name="hungarumlaut" unicode="&#x2dd;" 
d="M30 588l162 207h153l-181 -207h-134zM250 589l162 207h153l-181 -207h-134z" />
    <glyph glyph-name="gravecomb" unicode="&#x300;" 
d="M144 795h153l162 -207h-134z" />
    <glyph glyph-name="acutecomb" unicode="&#x301;" 
d="M140 588l162 207h153l-181 -207h-134z" />
    <glyph glyph-name="uni0302" unicode="&#x302;" 
d="M251 795h97l173 -211h-133l-88 108l-89 -108h-133z" />
    <glyph glyph-name="tildecomb" unicode="&#x303;" 
d="M328 591q-22 11 -59 48q-33 33 -42 39.5t-19 6.5q-7 0 -9 -3.5t-2.5 -21.5t-0.5 -50h-104q-1 74 7 107t32.5 45t79.5 12q38 0 61.5 -11.5t60.5 -48.5q30 -31 40 -38.5t18 -7.5t10 3.5t2.5 23t0.5 52.5h103q1 -74 -7 -108t-33 -46.5t-80 -12.5q-37 0 -59 11z" />
    <glyph glyph-name="uni0304" unicode="&#x304;" 
d="M129 742h341v-96h-341v96z" />
    <glyph glyph-name="uni0306" unicode="&#x306;" 
d="M164.5 645q-45.5 41 -56.5 131h110q10 -46 27 -62t55 -16t55 16t27 62h110q-11 -90 -56.5 -131t-135.5 -41t-135.5 41z" />
    <glyph glyph-name="uni0307" unicode="&#x307;" 
d="M228 753h144v-138h-144v138z" />
    <glyph glyph-name="uni0308" unicode="&#x308;" 
d="M329 753h144v-138h-144v138zM127 753h144v-138h-144v138z" />
    <glyph glyph-name="uni030A" unicode="&#x30a;" 
d="M211.5 606q-27.5 27 -27.5 84q0 58 27.5 85.5t87.5 27.5q61 0 89.5 -27.5t28.5 -85.5t-28.5 -84.5t-89.5 -26.5q-60 0 -87.5 27zM277.5 660q4.5 -6 21.5 -6q19 0 24 6t5 30q0 26 -5 33t-24 7q-17 0 -21.5 -6.5t-4.5 -33.5q0 -24 4.5 -30z" />
    <glyph glyph-name="uni030B" unicode="&#x30b;" 
d="M30 588l162 207h153l-181 -207h-134zM250 589l162 207h153l-181 -207h-134z" />
    <glyph glyph-name="uni030C" unicode="&#x30c;" 
d="M211 795l89 -108l88 108h133l-173 -211h-97l-173 211h133z" />
    <glyph glyph-name="uni0312" unicode="&#x312;" 
d="M280 786h109l-60 -194h-131z" />
    <glyph glyph-name="uni0326" unicode="&#x326;" 
d="M270 -58h131l-80 -183h-109z" />
    <glyph glyph-name="uni0327" unicode="&#x327;" 
d="M220 -229v78q43 -12 75 -12q21 0 30 6t9 19t-12 18t-41 5h-55v57l49 58h112l-54 -43q56 -5 79 -26t23 -67q0 -57 -30.5 -81t-103.5 -24q-41 0 -81 12z" />
    <glyph glyph-name="uni0328" unicode="&#x328;" 
d="M197.5 -186q-26.5 18 -26.5 61q0 15 3 33q4 29 24.5 49t70.5 43h121l-72 -46q-25 -16 -34 -28t-9 -28q0 -12 7 -16.5t23 -4.5t28.5 3t29.5 12v-84q-25 -6 -43 -9t-34 -3q-62 0 -88.5 18z" />
    <glyph glyph-name="tonos" unicode="&#x384;" 
d="M138 588l162 207h153l-181 -207h-134z" />
    <glyph glyph-name="uni03BC" unicode="&#x3bc;" 
d="M66 248h3v274h122v-332q0 -55 18.5 -75t70.5 -20q53 0 81 14t40 47.5t12 95.5v270h122v-522h-122v73h-8q-26 -47 -59.5 -64.5t-100.5 -17.5q-30 0 -56 3v-209h-123v463z" />
    <glyph glyph-name="Wgrave" unicode="&#x1e80;" 
d="M7 680h110l39 -535h1l7 124l64 411h144l62 -411l8 -124h1l40 535h110l-81 -680h-133l-77 592h-4l-78 -592h-132zM84 933h153l162 -207h-134z" />
    <glyph glyph-name="wgrave" unicode="&#x1e81;" 
d="M367 0l-64 421h-5l-65 -421h-141l-82 523h108l44 -403h2l73 402h127l72 -402h2l44 403h108l-82 -523h-141zM84 776h153l162 -207h-134z" />
    <glyph glyph-name="Wacute" unicode="&#x1e82;" 
d="M7 680h110l39 -535h1l7 124l64 411h144l62 -411l8 -124h1l40 535h110l-81 -680h-133l-77 592h-4l-78 -592h-132zM160 726l162 207h153l-181 -207h-134z" />
    <glyph glyph-name="wacute" unicode="&#x1e83;" 
d="M367 0l-64 421h-5l-65 -421h-141l-82 523h108l44 -403h2l73 402h127l72 -402h2l44 403h108l-82 -523h-141zM160 569l162 207h153l-181 -207h-134z" />
    <glyph glyph-name="Wdieresis" unicode="&#x1e84;" 
d="M7 680h110l39 -535h1l7 124l64 411h144l62 -411l8 -124h1l40 535h110l-81 -680h-133l-77 592h-4l-78 -592h-132zM329 891h144v-138h-144v138zM127 891h144v-138h-144v138z" />
    <glyph glyph-name="wdieresis" unicode="&#x1e85;" 
d="M367 0l-64 421h-5l-65 -421h-141l-82 523h108l44 -403h2l73 402h127l72 -402h2l44 403h108l-82 -523h-141zM329 734h144v-138h-144v138zM127 734h144v-138h-144v138z" />
    <glyph glyph-name="uni1E9E" unicode="&#x1e9e;" 
d="M208 15v123q54 -21 88.5 -30t59.5 -9q90 0 90 109q0 57 -28.5 83t-92.5 26q-44 0 -101 -10v118l167 146v3h-219v-574h-126v680h498v-115l-164 -141v-5q9 1 25 1q86 0 125.5 -47.5t39.5 -152.5q0 -120 -52.5 -174.5t-169.5 -54.5q-79 0 -140 24z" />
    <glyph glyph-name="Ygrave" unicode="&#x1ef2;" 
d="M236 277l-203 405h138l127 -279h5l128 279h137l-204 -405v-277h-128v277zM84 933h153l162 -207h-134z" />
    <glyph glyph-name="ygrave" unicode="&#x1ef3;" 
d="M253 48h-34l-170 474h124l125 -384h5l123 384h126l-260 -737h-126zM84 776h153l162 -207h-134z" />
    <glyph glyph-name="uni2010" unicode="&#x2010;" 
d="M110 353h380v-110h-380v110z" />
    <glyph glyph-name="endash" unicode="&#x2013;" 
d="M61 352h478v-108h-478v108z" />
    <glyph glyph-name="emdash" unicode="&#x2014;" 
d="M0 351h600v-106h-600v106z" />
    <glyph glyph-name="underscoredbl" unicode="&#x2017;" 
d="M41 -130h514v-88h-514v88zM41 0h514v-88h-514v88z" />
    <glyph glyph-name="quoteleft" unicode="&#x2018;" 
d="M381 510v-93h-158v89q0 5 2 15t7 19l106 218h119l-74 -232q-2 -6 -2 -16z" />
    <glyph glyph-name="quoteright" unicode="&#x2019;" 
d="M225 648v93h158v-89q0 -5 -2 -15t-7 -19l-106 -218h-119l74 232q2 6 2 16z" />
    <glyph glyph-name="quotesinglbase" unicode="&#x201a;" 
d="M225 57v93h158v-89q0 -5 -2 -15t-7 -19l-106 -218h-119l74 232q2 6 2 16z" />
    <glyph glyph-name="quotedblleft" unicode="&#x201c;" 
d="M514 399h-108l-95 218q-4 9 -6 19t-2 15v89h142v-93q0 -10 2 -16zM120 740h142v-93q0 -10 2 -16l67 -232h-108l-95 218q-4 9 -6 19t-2 15v89z" />
    <glyph glyph-name="quotedblright" unicode="&#x201d;" 
d="M142 647v93h142v-89q0 -5 -2 -15t-6 -19l-95 -218h-107l66 232q2 6 2 16zM323 631q2 6 2 16v93h142v-89q0 -5 -2 -15t-6 -19l-95 -218h-107z" />
    <glyph glyph-name="quotedblbase" unicode="&#x201e;" 
d="M159 57v93h142v-89q0 -5 -2 -15t-6 -19l-95 -218h-107l66 232q2 6 2 16zM340 41q2 6 2 16v93h142v-89q0 -5 -2 -15t-6 -19l-95 -218h-107z" />
    <glyph glyph-name="dagger" unicode="&#x2020;" 
d="M240 468h-165v104h165v212h120v-212h161v-104h-161v-478h-120v478z" />
    <glyph glyph-name="daggerdbl" unicode="&#x2021;" 
d="M77 308h163v160h-165v104h165v212h120v-212h161v-104h-161v-160h163v-104h-163v-214h-120v214h-163v104z" />
    <glyph glyph-name="bullet" unicode="&#x2022;" 
d="M226 176q-35 20 -55 54t-20 73t20 73t55 54t76 20t76 -20t55 -54t20 -73t-20 -73t-55 -54t-76 -20t-76 20z" />
    <glyph glyph-name="ellipsis" unicode="&#x2026;" 
d="M448 146h152v-146h-152v146zM0 146h152v-146h-152v146zM219 146h152v-146h-152v146z" />
    <glyph glyph-name="perthousand" unicode="&#x2030;" 
d="M481 663h113l-451 -405h-112zM36 661.5q32 32.5 105 32.5q74 0 107.5 -32.5t33.5 -104.5q0 -69 -34 -101.5t-107 -32.5t-105 32t-32 102q0 72 32 104.5zM57.5 220.5q26.5 32.5 85.5 37.5q8 1 25 1q74 0 107.5 -32.5t33.5 -104.5q0 -69 -34 -101.5t-107 -32.5t-105 32
t-32 102q0 66 26.5 98.5zM97.5 518.5q2.5 -10.5 11.5 -14t32 -3.5t33 3.5t13 14.5t3 38q0 29 -3.5 41.5t-13 16t-32.5 3.5t-31.5 -3.5t-11.5 -15.5t-3 -42q0 -28 2.5 -38.5zM124.5 83.5q2.5 -10.5 11.5 -14t32 -3.5t33 3.5t13 14.5t3 38q0 29 -3.5 41.5t-13 16t-32.5 3.5
t-31.5 -3.5t-11.5 -15.5t-3 -42q0 -28 2.5 -38.5zM350 226.5q32 32.5 105 32.5q74 0 107.5 -32.5t33.5 -104.5q0 -69 -34 -101.5t-107 -32.5t-105 32t-32 102q0 72 32 104.5zM411.5 83.5q2.5 -10.5 11.5 -14t32 -3.5t33 3.5t13 14.5t3 38q0 29 -3.5 41.5t-13 16t-32.5 3.5
t-31.5 -3.5t-11.5 -15.5t-3 -42q0 -28 2.5 -38.5z" />
    <glyph glyph-name="minute" unicode="&#x2032;" 
d="M227 655v86h145v-86l-21 -265h-103z" />
    <glyph glyph-name="second" unicode="&#x2033;" 
d="M134 655v86h131v-86l-19 -265h-93zM334 741h131v-86l-19 -265h-93l-19 265v86z" />
    <glyph glyph-name="guilsinglleft" unicode="&#x2039;" 
d="M192 258l133 211h130l-133 -211l133 -213h-130z" />
    <glyph glyph-name="guilsinglright" unicode="&#x203a;" 
d="M140 46l133 213l-133 211h130l133 -211l-133 -213h-130z" />
    <glyph glyph-name="Euro" unicode="&#x20ac;" 
d="M34 460h63q10 88 38.5 137.5t82 71t141.5 21.5q89 0 138 -18.5t71 -62t25 -123.5h-125q-10 55 -33 75t-76 20q-61 0 -91.5 -27t-41.5 -94h207l-27 -92h-187v-29v-35h194l-27 -92h-158q11 -62 41.5 -87t89.5 -25t83 18.5t32 70.5h125q-5 -78 -28 -120.5t-72.5 -60
t-139.5 -17.5q-87 0 -140 20.5t-82 68.5t-40 132h-90l27 92h57v35v29h-84z" />
    <glyph glyph-name="uni20B9" unicode="&#x20b9;" 
d="M106 283v93h103q54 0 80.5 12t35.5 42h-249l27 92h223q-10 34 -44 47.5t-106 13.5h-108l27 97h429l-27 -97h-75q18 -22 24 -61h86l-27 -92h-58q-5 -53 -26 -84t-62.5 -46t-112.5 -20l228 -280h-144z" />
    <glyph glyph-name="uni20BA" unicode="&#x20ba;" 
d="M97 188l-86 -31v105l86 31v62l-85 -31v95l85 31v230h128v-184l132 47v-95l-132 -47v-61l131 47v-106l-131 -47v-124h94q45 0 66.5 17t39.5 67h124q-26 -79 -54 -120t-70.5 -58t-112.5 -16l-215 1v187z" />
    <glyph glyph-name="uni20BD" unicode="&#x20bd;" 
d="M114 126h-92l23 95h69v34h-96l27 101h69v333q80 5 128 5q114 0 174 -22t83 -69t23 -131q0 -85 -21 -131t-71.5 -65.5t-142.5 -19.5h-53v-35h133l-23 -95h-110v-126h-120v126zM279 358q49 1 75.5 12t37.5 36t11 71q0 44 -12.5 68.5t-42 34.5t-84.5 10h-30v-233z" />
    <glyph glyph-name="uni20BF" unicode="&#x20bf;" 
d="M224 20v-96h-94v101q-8 0 -63 5v625l63 1v101h94v-100l13 1h-9q46 0 66 -1v100h94v-110q80 -14 112.5 -52t32.5 -113q0 -61 -19.5 -88t-70.5 -37v-5q47 -7 72.5 -22.5t36 -45t10.5 -80.5q0 -57 -16.5 -93t-54 -56.5t-103.5 -28.5v-102h-94v96h-31h-39zM280 130q60 0 93 7
t47 24.5t14 50.5t-11.5 51t-38 25.5t-76.5 7.5h-115v-165zM333 406q43 1 58.5 15.5t15.5 52.5t-20.5 53t-77.5 20q-52 5 -116 3v-144h140z" />
    <glyph glyph-name="trademark" unicode="&#x2122;" 
d="M125 646h-77v42h202v-42h-77v-176h-48v176zM296 688h57l44 -102h4l44 102h58v-218h-46v39l5 103h-4l-40 -72h-38l-40 72h-3l4 -103v-39h-45v218z" />
    <glyph glyph-name="estimated" unicode="&#x212e;" 
d="M137.5 60q-54.5 61 -54.5 197q0 139 51 202t167 63q79 0 126.5 -31t69 -96t20.5 -170h-304l2 -140q13 -13 34.5 -18.5t62.5 -5.5t63.5 5.5t33.5 19t15 39.5h80q-14 -66 -58.5 -96t-130.5 -30q-123 0 -177.5 61zM387 290v147q-16 13 -34 18t-46 5q-42 0 -62.5 -4.5
t-31.5 -16.5v-149h174z" />
    <glyph glyph-name="arrowleft" unicode="&#x2190;" 
d="M581 242h-347l-46 3l230 -222h-155l-257 258v37l257 258h155l-231 -223l47 3h347v-114z" />
    <glyph glyph-name="arrowup" unicode="&#x2191;" 
d="M246 358l3 47l-223 -231v155l258 257h37l258 -257v-155l-222 230l3 -46v-347h-114v347z" />
    <glyph glyph-name="arrowright" unicode="&#x2192;" 
d="M363 356l47 -3l-231 223h155l257 -258v-37l-257 -258h-155l230 222l-46 -3h-347v114h347z" />
    <glyph glyph-name="arrowdown" unicode="&#x2193;" 
d="M363 586v-347l-3 -46l222 230v-155l-258 -257h-37l-258 257v155l223 -231l-3 47v347h114z" />
    <glyph glyph-name="arrowboth" unicode="&#x2194;" 
d="M6 289v18l159 190h133l-131 -150l23 1h220l23 -1l-131 150h133l159 -190v-18l-159 -190h-133l131 150l-23 -1h-220l-23 1l131 -150h-133z" />
    <glyph glyph-name="arrowupdn" unicode="&#x2195;" 
d="M291 589h18l190 -159v-133l-150 131l1 -23v-220l-1 -23l150 131v-133l-190 -159h-18l-190 159v133l150 -131l-1 23v220l1 23l-150 -131v133z" />
    <glyph glyph-name="uni2196" unicode="&#x2196;" 
d="M458 56l-245 246l-31 34l6 -319l-110 109l1 364l26 27h364l110 -109l-321 5l35 -31l246 -245z" />
    <glyph glyph-name="uni2197" unicode="&#x2197;" 
d="M304 381l35 32l-321 -6l110 109h364l26 -26l1 -365l-110 -109l6 319l-30 -34l-246 -246l-80 81z" />
    <glyph glyph-name="uni2198" unicode="&#x2198;" 
d="M386 296l32 -35l-6 321l109 -110v-364l-26 -26l-365 -1l-109 110l319 -6l-34 30l-246 246l81 80z" />
    <glyph glyph-name="uni2199" unicode="&#x2199;" 
d="M537 461l-246 -245l-34 -31l319 6l-109 -110l-364 1l-27 26v364l109 110l-5 -321l31 35l245 246z" />
    <glyph glyph-name="partialdiff" unicode="&#x2202;" 
d="M441.5 523q51.5 -73 71 -137t19.5 -151q0 -105 -18.5 -155.5t-68 -69.5t-152.5 -19q-102 0 -151 19t-67.5 68.5t-18.5 152.5q0 100 17.5 148t64 66t142.5 18q29 0 44.5 -6t37.5 -27h8q-54 82 -99.5 135.5t-140.5 148.5h154q106 -118 157.5 -191zM181.5 142
q9.5 -29 34.5 -40t77 -11t77.5 10.5t35.5 37.5t10 82q0 62 -9.5 91.5t-35.5 40.5t-80 11q-51 0 -75.5 -10.5t-34 -37.5t-9.5 -84q0 -61 9.5 -90z" />
    <glyph glyph-name="product" unicode="&#x220f;" 
d="M109 578h-69v102h519v-102h-79v-578h-115v578h-141v-578h-115v578z" />
    <glyph glyph-name="summation" unicode="&#x2211;" 
d="M79 91l207 227l27 17v8l-27 19l-207 226v92h469v-103h-285l-46 1v-5l46 -28l179 -195v-17l-187 -202l-33 -25v-7l41 4h285v-103h-469v91z" />
    <glyph glyph-name="minus" unicode="&#x2212;" 
d="M69 354h462v-112h-462v112z" />
    <glyph glyph-name="radical" unicode="&#x221a;" 
d="M84 300h-77v96h166l56 -240h6l148 524h210v-98h-118l-178 -583h-131z" />
    <glyph glyph-name="infinity" unicode="&#x221e;" 
d="M65 162.5q-35 14.5 -50 47t-15 89.5t15 89.5t50 46.5t96 14q48 0 79 -14.5t60 -49.5q29 35 60 49.5t78 14.5q61 0 96 -14t50.5 -46.5t15.5 -89.5t-15.5 -89.5t-50.5 -47t-96 -14.5q-47 0 -78.5 15t-59.5 51q-28 -36 -59.5 -51t-79.5 -15q-61 0 -96 14.5zM109 257
q3 -11 12.5 -14.5t34.5 -3.5q35 0 51.5 11.5t37.5 50.5q-19 36 -35 46.5t-52 10.5q-27 0 -36.5 -3t-12.5 -14.5t-3 -41.5q0 -31 3 -42zM391.5 250.5q16.5 -11.5 52.5 -11.5q26 0 35.5 3.5t12.5 15t3 41.5t-3 41.5t-13 14.5t-38 3q-36 0 -52 -10.5t-33 -46.5
q19 -39 35.5 -50.5z" />
    <glyph glyph-name="logicaland" unicode="&#x2227;" 
d="M243 529h114l238 -488h-129l-165 371h-2l-165 -371h-129z" />
    <glyph glyph-name="logicalor" unicode="&#x2228;" 
d="M134 573l165 -371h2l165 371h129l-238 -488h-114l-238 488h129z" />
    <glyph glyph-name="integral" unicode="&#x222b;" 
d="M90 -16h83q21 0 28 4t10 20t9 66l58 516q10 88 21 122t44.5 48.5t113.5 14.5h59v-106h-66q-27 0 -36.5 -3.5t-13.5 -17.5t-8 -57l-57 -523q-10 -92 -20 -126t-41.5 -49t-108.5 -15h-75v106z" />
    <glyph glyph-name="approxequal" unicode="&#x2248;" 
d="M340 270.5q-27 12.5 -75 55.5q-25 23 -41 36t-23.5 15.5t-22.5 2.5q-16 0 -20.5 -4t-5.5 -17.5t-1 -66.5h-105q-1 87 7 120.5t34.5 44t95.5 10.5q35 0 56.5 -5t42 -19t54.5 -44q41 -36 55.5 -45t29.5 -9q16 0 21.5 5t6.5 22.5t1 73.5h104q0 -88 -7 -124t-35 -50t-96 -14
q-49 0 -76 12.5zM53 212.5q8 33.5 34.5 44t95.5 10.5q35 0 56.5 -5t42 -19t54.5 -44q41 -36 55.5 -45t29.5 -9q16 0 21.5 5t6.5 22.5t1 73.5h104q0 -88 -7 -124t-35 -50t-96 -14q-49 0 -76 12.5t-75 55.5q-25 23 -41 36t-23.5 15.5t-22.5 2.5q-16 0 -20.5 -4t-5.5 -17.5
t-1 -66.5h-105q-1 87 7 120.5z" />
    <glyph glyph-name="notequal" unicode="&#x2260;" 
d="M192 149h-144v107h181l32 93h-213v107h249l46 132h122l-46 -132h133v-107h-170l-32 -93h202v-107h-239l-49 -141h-121z" />
    <glyph glyph-name="equivalence" unicode="&#x2261;" 
d="M48 326h504v-107h-504v107zM48 166h504v-107h-504v107zM48 486h504v-107h-504v107z" />
    <glyph glyph-name="lessequal" unicode="&#x2264;" 
d="M56 21v105h467l-467 182v119l488 190v-119l-284 -108l-67 -22l67 -23l284 -108v-216h-488z" />
    <glyph glyph-name="greaterequal" unicode="&#x2265;" 
d="M340 345l68 23l-68 22l-284 108v119l488 -190v-119l-467 -182h467v-105h-488v216z" />
    <glyph glyph-name="uni2500" unicode="&#x2500;" 
d="M0 393h600v-75h-600v75z" />
    <glyph glyph-name="uni2502" unicode="&#x2502;" 
d="M263 956h75v-1200h-75v1200z" />
    <glyph glyph-name="uni250C" unicode="&#x250c;" 
d="M263 394h337v-75h-262v-563h-75v638z" />
    <glyph glyph-name="uni2510" unicode="&#x2510;" 
d="M263 318h-263v75h338v-637h-75v562z" />
    <glyph glyph-name="uni2514" unicode="&#x2514;" 
d="M263 956h75v-563h262v-75h-337v638z" />
    <glyph glyph-name="uni2518" unicode="&#x2518;" 
d="M0 393h263v563h75v-638h-338v75z" />
    <glyph glyph-name="uni251C" unicode="&#x251c;" 
d="M263 318h-1v75h1v563h75v-563h262v-75h-262v-562h-75v562z" />
    <glyph glyph-name="uni2524" unicode="&#x2524;" 
d="M263 318h-263v75h263v563h75v-1200h-75v562z" />
    <glyph glyph-name="uni252C" unicode="&#x252c;" 
d="M263 318h-263v75h600v-75h-262v-562h-75v562z" />
    <glyph glyph-name="uni2534" unicode="&#x2534;" 
d="M0 393h263v563h75v-563h262v-75h-600v75z" />
    <glyph glyph-name="uni253C" unicode="&#x253c;" 
d="M262 318h-262v75h262v563h75v-563h263v-75h-263v-562h-75v562z" />
    <glyph glyph-name="uni2550" unicode="&#x2550;" 
d="M0 468h600v-75h-600v75zM0 318h600v-75h-600v75z" />
    <glyph glyph-name="uni2551" unicode="&#x2551;" 
d="M338 956h75v-1200h-75v1200zM188 956h75v-1200h-75v1200z" />
    <glyph glyph-name="uni2554" unicode="&#x2554;" 
d="M188 468h412v-75h-337v-637h-75v712zM338 318h262v-75h-187v-487h-75v562z" />
    <glyph glyph-name="uni2557" unicode="&#x2557;" 
d="M338 393h-338v75h413v-712h-75v637zM0 318h263v-562h-75v487h-188v75z" />
    <glyph glyph-name="uni255A" unicode="&#x255a;" 
d="M188 956h75v-638h337v-75h-412v713zM338 956h75v-488h187v-75h-262v563z" />
    <glyph glyph-name="uni255D" unicode="&#x255d;" 
d="M0 318h338v638h75v-713h-413v75zM0 468h188v488h75v-563h-263v75z" />
    <glyph glyph-name="uni2560" unicode="&#x2560;" 
d="M188 956h75v-1200h-75v1200zM338 318h262v-75h-187l1 -487h-75l-1 487v75zM338 468l1 488h75l-1 -488h187v-75h-262v75z" />
    <glyph glyph-name="uni2563" unicode="&#x2563;" 
d="M338 956h75v-1200h-75v1200zM0 318h263v-562h-75v487h-188v75zM0 468h188v488h75v-563h-263v75z" />
    <glyph glyph-name="uni2566" unicode="&#x2566;" 
d="M0 468h600v-75h-600v75zM0 318h263v-562h-76v487h-187v75zM338 318h262v-75h-186v-487h-76v562z" />
    <glyph glyph-name="uni2569" unicode="&#x2569;" 
d="M0 318h600v-75h-600v75zM0 468h187v488h76v-563h-263v75zM338 956h76v-488h186v-75h-262v563z" />
    <glyph glyph-name="uni256C" unicode="&#x256c;" 
d="M338 956h75v-488h187v-75h-262v563zM0 318h263v-562h-75v487h-188v75zM0 468h188v488h75v-563h-263v75zM338 318h262v-75h-187v-487h-75v562z" />
    <glyph glyph-name="uni2571" unicode="&#x2571;" 
d="M0 -188l544 1144h56v-56l-544 -1144h-56v56z" />
    <glyph glyph-name="uni2572" unicode="&#x2572;" 
d="M0 900v56h56l544 -1144v-56h-56z" />
    <glyph glyph-name="uni2573" unicode="&#x2573;" 
d="M600 -244v56l-259 544l259 544v56h-56l-244 -513l-244 513h-56v-56l259 -544l-259 -544v-56h56l285 600l-41 87l-41 -87l285 -600h56z" />
    <glyph glyph-name="upblock" unicode="&#x2580;" 
d="M0 956h600l-1 -600h-599v600z" />
    <glyph glyph-name="uni2581" unicode="&#x2581;" 
d="M0 -94h600l-1 -150h-599v150z" />
    <glyph glyph-name="uni2582" unicode="&#x2582;" 
d="M0 56h600l-1 -300h-599v300z" />
    <glyph glyph-name="uni2583" unicode="&#x2583;" 
d="M0 206h600l-1 -450h-599v450z" />
    <glyph glyph-name="dnblock" unicode="&#x2584;" 
d="M0 356h600l-1 -600h-599v600z" />
    <glyph glyph-name="uni2585" unicode="&#x2585;" 
d="M0 506h600l-1 -750h-599v750z" />
    <glyph glyph-name="uni2586" unicode="&#x2586;" 
d="M0 656h600l-1 -900h-599v900z" />
    <glyph glyph-name="uni2587" unicode="&#x2587;" 
d="M0 806h600l-1 -1050h-599v1050z" />
    <glyph glyph-name="block" unicode="&#x2588;" 
d="M0 956h600v-1200h-600v1200z" />
    <glyph glyph-name="uni2589" unicode="&#x2589;" 
d="M0 956h525l-1 -1200h-524v1200z" />
    <glyph glyph-name="uni258A" unicode="&#x258a;" 
d="M0 956h450l-1 -1200h-449v1200z" />
    <glyph glyph-name="uni258B" unicode="&#x258b;" 
d="M0 956h375l-1 -1200h-374v1200z" />
    <glyph glyph-name="lfblock" unicode="&#x258c;" 
d="M0 956h300v-1200h-300v1200z" />
    <glyph glyph-name="uni258D" unicode="&#x258d;" 
d="M0 956h225l-1 -1200h-224v1200z" />
    <glyph glyph-name="uni258E" unicode="&#x258e;" 
d="M0 956h150v-1200h-150v1200z" />
    <glyph glyph-name="uni258F" unicode="&#x258f;" 
d="M0 956h75l-1 -1200h-74v1200z" />
    <glyph glyph-name="rtblock" unicode="&#x2590;" 
d="M300 956h300v-1200h-300v1200z" />
    <glyph glyph-name="ltshade" unicode="&#x2591;" 
d="M500 856h50v-50h-50v50zM0 -44h50v-50h-50v50zM0 156h50v-50h-50v50zM0 356h50v-50h-50v50zM0 556h50v-50h-50v50zM0 756h50v-50h-50v50zM0 956h50v-50h-50v50zM100 -144h50v-50h-50v50zM100 56h50v-50h-50v50zM100 256h50v-50h-50v50zM100 456h50v-50h-50v50zM100 656
h50v-50h-50v50zM100 856h50v-50h-50v50zM200 -44h50v-50h-50v50zM200 156h50v-50h-50v50zM200 356h50v-50h-50v50zM200 556h50v-50h-50v50zM200 756h50v-50h-50v50zM200 956h50v-50h-50v50zM300 -144h50v-50h-50v50zM300 56h50v-50h-50v50zM300 256h50v-50h-50v50zM300 456
h50v-50h-50v50zM300 656h50v-50h-50v50zM300 856h50v-50h-50v50zM400 -44h50v-50h-50v50zM400 156h50v-50h-50v50zM400 356h50v-50h-50v50zM400 556h50v-50h-50v50zM400 756h50v-50h-50v50zM400 956h50v-50h-50v50zM500 -144h50v-50h-50v50zM500 56h50v-50h-50v50zM500 256
h50v-50h-50v50zM500 456h50v-50h-50v50zM500 656h50v-50h-50v50z" />
    <glyph glyph-name="shade" unicode="&#x2592;" 
d="M500 956h50v-50h-50v50zM0 -44h50v-50h-50v50zM0 156h50v-50h-50v50zM0 356h50v-50h-50v50zM0 556h50v-50h-50v50zM0 756h50v-50h-50v50zM0 956h50v-50h-50v50zM50 -144h50v-50h-50v50zM50 56h50v-50h-50v50zM50 256h50v-50h-50v50zM50 456h50v-50h-50v50zM50 656h50v-50
h-50v50zM50 856h50v-50h-50v50zM100 -44h50v-50h-50v50zM100 156h50v-50h-50v50zM100 356h50v-50h-50v50zM100 556h50v-50h-50v50zM100 756h50v-50h-50v50zM100 956h50v-50h-50v50zM150 -144h50v-50h-50v50zM150 56h50v-50h-50v50zM150 256h50v-50h-50v50zM150 456h50v-50
h-50v50zM150 656h50v-50h-50v50zM150 856h50v-50h-50v50zM200 -44h50v-50h-50v50zM200 156h50v-50h-50v50zM200 356h50v-50h-50v50zM200 556h50v-50h-50v50zM200 756h50v-50h-50v50zM200 956h50v-50h-50v50zM250 -144h50v-50h-50v50zM250 56h50v-50h-50v50zM250 256h50v-50
h-50v50zM250 456h50v-50h-50v50zM250 656h50v-50h-50v50zM250 856h50v-50h-50v50zM300 -44h50v-50h-50v50zM300 156h50v-50h-50v50zM300 356h50v-50h-50v50zM300 556h50v-50h-50v50zM300 756h50v-50h-50v50zM300 956h50v-50h-50v50zM350 -144h50v-50h-50v50zM350 56h50v-50
h-50v50zM350 256h50v-50h-50v50zM350 456h50v-50h-50v50zM350 656h50v-50h-50v50zM350 856h50v-50h-50v50zM400 -44h50v-50h-50v50zM400 156h50v-50h-50v50zM400 356h50v-50h-50v50zM400 556h50v-50h-50v50zM400 756h50v-50h-50v50zM400 956h50v-50h-50v50zM450 -144h50v-50
h-50v50zM450 56h50v-50h-50v50zM450 256h50v-50h-50v50zM450 456h50v-50h-50v50zM450 656h50v-50h-50v50zM450 856h50v-50h-50v50zM500 -44h50v-50h-50v50zM500 156h50v-50h-50v50zM500 356h50v-50h-50v50zM500 556h50v-50h-50v50zM500 756h50v-50h-50v50zM550 -144h50v-50
h-50v50zM550 56h50v-50h-50v50zM550 256h50v-50h-50v50zM550 456h50v-50h-50v50zM550 656h50v-50h-50v50zM550 856h50v-50h-50v50z" />
    <glyph glyph-name="dkshade" unicode="&#x2593;" 
d="M50 -194h-50v150h50v50h-50v150h50v50h-50v150h50v50h-50v150h50v50h-50v150h50v50h-50v150h600v-50h-50v-50h50v-150h-50v-50h50v-150h-50v-50h50v-150h-50v-50h50v-150h-50v-50h50v-150h-50v-50h50v-100h-50v50h-50v-50h-50v50h-50v-50h-50v50h-50v-50h-50v50h-50v-50
h-50v50h-50v-50h-50v50zM100 -144v50h-50v-50h50zM100 56v50h-50v-50h50zM100 256v50h-50v-50h50zM100 456v50h-50v-50h50zM100 656v50h-50v-50h50zM100 856v50h-50v-50h50zM150 -44v50h-50v-50h50zM150 156v50h-50v-50h50zM150 356v50h-50v-50h50zM150 556v50h-50v-50h50z
M150 756v50h-50v-50h50zM200 -144v50h-50v-50h50zM200 56v50h-50v-50h50zM200 256v50h-50v-50h50zM200 456v50h-50v-50h50zM200 656v50h-50v-50h50zM200 856v50h-50v-50h50zM250 -44v50h-50v-50h50zM250 156v50h-50v-50h50zM250 356v50h-50v-50h50zM250 556v50h-50v-50h50z
M250 756v50h-50v-50h50zM300 -144v50h-50v-50h50zM300 56v50h-50v-50h50zM300 256v50h-50v-50h50zM300 456v50h-50v-50h50zM300 656v50h-50v-50h50zM300 856v50h-50v-50h50zM350 -44v50h-50v-50h50zM350 156v50h-50v-50h50zM350 356v50h-50v-50h50zM350 556v50h-50v-50h50z
M350 756v50h-50v-50h50zM400 -144v50h-50v-50h50zM400 56v50h-50v-50h50zM400 256v50h-50v-50h50zM400 456v50h-50v-50h50zM400 656v50h-50v-50h50zM400 856v50h-50v-50h50zM450 -44v50h-50v-50h50zM450 156v50h-50v-50h50zM450 356v50h-50v-50h50zM450 556v50h-50v-50h50z
M450 756v50h-50v-50h50zM500 -144v50h-50v-50h50zM500 56v50h-50v-50h50zM500 256v50h-50v-50h50zM500 456v50h-50v-50h50zM500 656v50h-50v-50h50zM500 856v50h-50v-50h50zM550 -44v50h-50v-50h50zM550 156v50h-50v-50h50zM550 356v50h-50v-50h50zM550 556v50h-50v-50h50z
M550 756v50h-50v-50h50z" />
    <glyph glyph-name="uni2594" unicode="&#x2594;" 
d="M0 956h600l-1 -150h-599v150z" />
    <glyph glyph-name="uni2595" unicode="&#x2595;" 
d="M525 956h75v-1200h-75v1200z" />
    <glyph glyph-name="uni2596" unicode="&#x2596;" 
d="M0 356h300v-596h-300v596z" />
    <glyph glyph-name="uni2597" unicode="&#x2597;" 
d="M300 356h300v-596h-300v596z" />
    <glyph glyph-name="uni2598" unicode="&#x2598;" 
d="M0 952h300v-596h-300v596z" />
    <glyph glyph-name="uni2599" unicode="&#x2599;" 
d="M0 952h300v-596h300v-596h-600v1192z" />
    <glyph glyph-name="uni259A" unicode="&#x259a;" 
d="M0 952h300v-596h-300v596zM300 356h300v-596h-300v596z" />
    <glyph glyph-name="uni259B" unicode="&#x259b;" 
d="M0 952h600v-596h-300v-596h-300v1192z" />
    <glyph glyph-name="uni259C" unicode="&#x259c;" 
d="M300 356h-300v596h600v-1192h-300v596z" />
    <glyph glyph-name="uni259D" unicode="&#x259d;" 
d="M300 952h300v-596h-300v596z" />
    <glyph glyph-name="uni259E" unicode="&#x259e;" 
d="M300 -240h-300v596h300v-596zM300 952h300v-596h-300v596z" />
    <glyph glyph-name="uni259F" unicode="&#x259f;" 
d="M0 356h300v596h300v-1192h-600v596z" />
    <glyph glyph-name="filledbox" unicode="&#x25a0;" 
d="M0 638h600v-600h-600v600z" />
    <glyph glyph-name="triagup" unicode="&#x25b2;" 
d="M52 104.5q-5 4.5 -5 12.5q0 6 3 12l231 483q8 15 19 15q13 0 19 -15l231 -483q3 -6 3 -11q0 -8 -5 -13t-13 -5h-470q-8 0 -13 4.5z" />
    <glyph glyph-name="uni25B3" unicode="&#x25b3;" 
d="M52 105q-5 5 -5 13q0 5 3 11l231 483q8 15 19 15q13 0 19 -15l231 -483q3 -6 3 -11q0 -8 -5 -13t-13 -5h-470q-8 0 -13 5zM144 175q0 -11 14 -11h284q14 0 14 11l-2 8l-143 298q-4 9 -11 9q-6 0 -11 -9l-143 -298z" />
    <glyph glyph-name="uni25B6" unicode="&#x25b6;" 
d="M54 100q-7 0 -12 5t-5 13v470q0 8 4.5 13t12.5 5q6 0 12 -3l483 -231q15 -7 15 -19q0 -11 -15 -19l-483 -231q-6 -3 -12 -3z" />
    <glyph glyph-name="uni25B7" unicode="&#x25b7;" 
d="M54 100q-7 0 -12 5t-5 13v470q0 8 5 13t13 5q5 0 11 -3l483 -231q15 -7 15 -19q0 -11 -15 -19l-483 -231q-6 -3 -12 -3zM112 197l8 2l298 143q9 5 9 11q0 7 -9 11l-298 143l-8 2q-11 0 -11 -14v-284q0 -14 11 -14z" />
    <glyph glyph-name="triagdn" unicode="&#x25bc;" 
d="M47 610q0 8 5 12.5t13 4.5h470q8 0 13 -5t5 -12q0 -6 -3 -12l-231 -483q-6 -15 -19 -15q-11 0 -19 15l-231 483q-3 6 -3 12z" />
    <glyph glyph-name="uni25BD" unicode="&#x25bd;" 
d="M47 610q0 7 5 12t13 5h470q8 0 13 -5t5 -13q0 -5 -3 -11l-231 -483q-7 -15 -19 -15q-11 0 -19 15l-231 483q-3 6 -3 12zM289 246q5 -9 11 -9q7 0 11 9l143 298l2 8q0 11 -14 11h-284q-7 0 -10.5 -3t-3.5 -8q0 -2 2 -8z" />
    <glyph glyph-name="uni25C0" unicode="&#x25c0;" 
d="M37 353q0 12 15 19l483 231q6 3 12 3q8 0 12.5 -5t4.5 -13v-470q0 -8 -5 -13t-12 -5q-6 0 -12 3l-483 231q-15 8 -15 19z" />
    <glyph glyph-name="uni25C1" unicode="&#x25c1;" 
d="M37 353q0 12 15 19l483 231q6 3 11 3q8 0 13 -5t5 -13v-470q0 -8 -5 -13t-12 -5q-6 0 -12 3l-483 231q-15 8 -15 19zM481 199l8 -2q11 0 11 14v284q0 14 -11 14l-8 -2l-298 -143q-9 -4 -9 -11q0 -6 9 -11z" />
    <glyph glyph-name="lozenge" unicode="&#x25ca;" 
d="M63 324v12l190 324h93l190 -324v-12l-190 -324h-93zM300 127l115 203l-116 205l-115 -205z" />
    <glyph glyph-name="uni25CC" unicode="&#x25cc;" 
d="M463.5 334q-14.5 15 -14.5 39t14.5 39t39.5 15t39.5 -15t14.5 -39t-14.5 -39t-39.5 -15t-39.5 15zM24.5 303q14.5 15 39.5 15t39.5 -15t14.5 -39t-14.5 -39t-39.5 -15t-39.5 15t-14.5 39t14.5 39zM55.5 194q14.5 15 39.5 15t39.5 -15t14.5 -39t-14.5 -39.5t-39.5 -15.5
t-39.5 15.5t-14.5 39.5t14.5 39zM55.5 412q14.5 15 39.5 15t39.5 -15t14.5 -39t-14.5 -39t-39.5 -15t-39.5 15t-14.5 39t14.5 39zM143.5 112q14.5 15 39.5 15t39.5 -15t14.5 -39t-14.5 -39t-39.5 -15t-39.5 15t-14.5 39t14.5 39zM143.5 494q14.5 15 39.5 15t39.5 -15
t14.5 -39t-14.5 -39t-39.5 -15t-39.5 15t-14.5 39t14.5 39zM259.5 84q14.5 15 39.5 15t39.5 -15t14.5 -39t-14.5 -39t-39.5 -15t-39.5 15t-14.5 39t14.5 39zM259.5 521q14.5 15 39.5 15t39.5 -15t14.5 -39t-14.5 -39t-39.5 -15t-39.5 15t-14.5 39t14.5 39zM375.5 112
q14.5 15 39.5 15t39.5 -15t14.5 -39t-14.5 -39t-39.5 -15t-39.5 15t-14.5 39t14.5 39zM375.5 494q14.5 15 39.5 15t39.5 -15t14.5 -39t-14.5 -39t-39.5 -15t-39.5 15t-14.5 39t14.5 39zM463.5 194q14.5 15 39.5 15t39.5 -15t14.5 -39t-14.5 -39.5t-39.5 -15.5t-39.5 15.5
t-14.5 39.5t14.5 39zM494.5 303q14.5 15 39.5 15t39.5 -15t14.5 -39t-14.5 -39t-39.5 -15t-39.5 15t-14.5 39t14.5 39z" />
    <glyph glyph-name="uniE0A0" unicode="&#xe0a0;" 
d="M123 92q0 69 1 103q1 39 22.5 70t51.5 53.5t79 53.5q57 35 86 61t31 58q1 13 1 46l-1 98l-71 -86v106l109 106h8l108 -106v-106l-70 85v-97v-46q-1 -40 -21 -71.5t-47 -53.5t-73 -54q-52 -35 -78 -60t-27 -57q-2 -68 -2 -103l1 -103q1 -34 1 -103h-108zM130 761h108v-316
l-108 -74v390z" />
    <glyph glyph-name="uniE0A1" unicode="&#xe0a1;" 
d="M191 340h78l122 -266h2l-7 71v195h61v-340h-78l-122 267h-1l7 -71v-196h-62v340zM188 795h64v-283h172v-56h-236v339z" />
    <glyph glyph-name="uniE0A2" unicode="&#xe0a2;" 
d="M79.5 -14.5q-7.5 7.5 -7.5 27.5v425q0 20 7.5 27.5t27.5 7.5h53v202q0 29 10 38.5t38 9.5h184q29 0 38.5 -9.5t9.5 -38.5v-202h53q20 0 27.5 -7.5t7.5 -27.5v-425q0 -20 -7.5 -27.5t-27.5 -7.5h-386q-20 0 -27.5 7.5zM380 473v169q0 14 -5 19t-19 5h-112q-14 0 -19 -5
t-5 -19v-169h160zM249 213q11 -16 29 -23v-80h44v80q18 7 29 23t11 35q0 26 -18 44t-44 18q-25 0 -43.5 -18t-18.5 -44q0 -19 11 -35z" />
    <glyph glyph-name="uniE0A3" unicode="&#xe0a3;" 
d="M191 340h78l122 -266h2l-7 71v195h61v-340h-78l-122 267h-1l7 -71v-196h-62v340zM201 736.5q12 37.5 40.5 53t81.5 15.5q44 0 68.5 -9t35.5 -31t13 -62h-63q-4 28 -16 38t-38 10q-28 0 -42.5 -11t-21 -37t-6.5 -73t6.5 -72.5t21 -36.5t42.5 -11q29 0 41 9.5t16 35.5h63
q-3 -39 -14.5 -60t-36 -30t-69.5 -9q-53 0 -81.5 15.5t-40.5 52.5t-12 106t12 106.5z" />
    <glyph glyph-name="uniE0B0" unicode="&#xe0b0;" 
d="M0 956l599 -576v-48l-599 -576v1200z" />
    <glyph glyph-name="uniE0B1" unicode="&#xe0b1;" 
d="M0 -124l504 480l-504 480v120l600 -576v-48l-600 -576v120z" />
    <glyph glyph-name="uniE0B2" unicode="&#xe0b2;" 
d="M0 332v48l599 576v-1200z" />
    <glyph glyph-name="uniE0B3" unicode="&#xe0b3;" 
d="M0 332v48l600 576v-120l-504 -480l504 -480v-120z" />
    <glyph glyph-name="uniFFFD" unicode="&#xfffd;" 
d="M0 340v32l284 350h32l284 -350v-32l-284 -340h-32zM240 432q0 29 12 38.5t52 9.5q29 0 42.5 -5t19 -18.5t5.5 -40.5t-12.5 -38.5t-38.5 -21.5t-39 -22.5t-13 -41.5v-28h42v28q0 13 8.5 19.5t28.5 15.5q32 14 49.5 31.5t17.5 57.5q0 43 -8.5 63.5t-31.5 28.5t-70 8
t-69 -6.5t-30.5 -24t-9.5 -53.5h45zM326 156v72h-71v-72h71z" />
    <glyph glyph-name="aogonek.001" 
d="M324.5 -186q-26.5 18 -26.5 61q0 15 3 33q4 28 27 48t75 44h2v62h-8q-28 -41 -59 -56t-87 -15q-73 0 -112.5 14.5t-56 49t-16.5 97.5q0 74 23 114.5t78 57.5t156 17h79v6q0 50 -22 68t-83 18q-55 0 -74.5 -14.5t-17.5 -55.5h-122q-3 68 15.5 104.5t65 52t133.5 15.5
t134.5 -17t67.5 -57t20 -114v-347h-2l-72 -46q-25 -16 -34 -28t-9 -28q0 -12 7 -16.5t23 -4.5t28.5 3t29.5 12v-84q-25 -6 -43 -9t-34 -3q-62 0 -88.5 18zM205.5 109q17.5 -14 66.5 -14q50 0 77 13t38.5 44t13.5 89l-99 -1q-45 -1 -69.5 -8t-34.5 -23.5t-10 -47.5
q0 -38 17.5 -52z" />
    <glyph glyph-name="w_w_w.lig" 
d="M-1151 593h108l55 -473h2l73 402h127l72 -402h2l74 403h127l73 -403h2l73 402h127l72 -402h2l74 403h127l73 -403h2l73 402h127l72 -402h2l55 473h108l-93 -593h-141l-64 421h-5l-65 -421h-141l-65 427h-4l-65 -427h-141l-64 421h-5l-65 -421h-141l-65 427h-4l-65 -427
h-141l-64 421h-5l-65 -421h-141z" />
    <glyph glyph-name="zero.ss01" 
d="M177 2.5q-42 11.5 -66.5 45t-41.5 102.5q-19 81 -19 192q0 115 21 193q17 66 40.5 98.5t66 45t122.5 12.5t122 -12.5t65.5 -44.5t40.5 -98q21 -80 21 -201q0 -57 -4.5 -100t-15.5 -87q-17 -68 -42 -101t-67 -44.5t-122 -11.5q-79 0 -121 11.5zM180 242l225 285
q-9 35 -30.5 46.5t-76.5 11.5q-43 0 -63 -6.5t-29 -23t-17 -53.5q-6 -33 -10 -68.5t-4 -92.5t5 -99zM228.5 106q20.5 -9 70.5 -9q45 0 66 7.5t29 23.5t16 54q14 63 14 162q0 45 -3 75l-221 -280q8 -24 28.5 -33z" />
    <glyph glyph-name="zero.ss02" 
d="M267 260.5q-10 3.5 -14 11t-8 25.5q-4 15 -4 36q0 30 5 52q3 14 7 21t14.5 11t32.5 4q30 0 40 -8t15 -31q4 -20 4 -49q0 -23 -4 -37q-4 -17 -7.5 -24t-14.5 -11t-33 -4q-23 0 -33 3.5zM71 533q17 66 40.5 98.5t66 45t122.5 12.5t122 -12.5t65.5 -44.5t40.5 -98
q21 -80 21 -201q0 -57 -4.5 -100t-15.5 -87q-17 -68 -42 -101t-67 -44.5t-122 -11.5q-79 0 -121 11.5t-66.5 45t-41.5 102.5q-19 81 -19 192q0 115 21 193zM189 179q7 -37 15 -53t29 -23.5t66 -7.5t66 7.5t29 23.5t16 54q14 63 14 162q0 53 -3 83t-11 75q-6 36 -16 53
t-31 23.5t-65 6.5q-43 0 -63 -6.5t-29 -23t-17 -53.5q-6 -33 -10 -68.5t-4 -92.5q0 -90 14 -160z" />
    <glyph glyph-name="zero.ss03" 
d="M177 2.5q-42 11.5 -66.5 45t-41.5 102.5q-19 81 -19 192q0 115 21 193q17 66 40.5 98.5t66 45t122.5 12.5t122 -12.5t65.5 -44.5t40.5 -98q21 -80 21 -201q0 -57 -4.5 -100t-15.5 -87q-17 -68 -42 -101t-67 -44.5t-122 -11.5q-79 0 -121 11.5zM189 181q7 -37 15 -53
t29 -23.5t66 -7.5t66 7.5t29 23.5t16 54q14 63 14 162q0 53 -3 83t-11 75q-6 36 -16 53t-31 23.5t-65 6.5q-43 0 -63 -6.5t-29 -23t-17 -53.5q-6 -33 -10 -68.5t-4 -92.5q0 -90 14 -160z" />
    <glyph glyph-name="zero.ss04" 
d="M54 207q-4 39 -4 130q0 71 5.5 111.5t15.5 82.5q17 67 41 99.5t66.5 45t122.5 12.5q95 0 140.5 -16.5t58.5 -58.5l-89 -118q-8 41 -17.5 58t-29.5 23t-66 6q-41 0 -61.5 -7t-30.5 -24t-16 -53q-1 -4 -8 -40.5t-7 -122.5q0 -48 2 -72l-108 -140q-11 45 -15 84zM192 168
q6 -29 14 -43t29.5 -21.5t65.5 -7.5q43 0 64 7t30.5 24.5t15.5 53.5q1 4 8 40.5t7 119.5q0 25 -0.5 36.5t-0.5 18.5l106 140q11 -37 15.5 -77t4.5 -124q0 -111 -20 -188q-17 -68 -42 -101t-67 -44.5t-119 -11.5q-93 0 -137.5 13t-59.5 51z" />
    <glyph glyph-name="seven.ss05" 
d="M380 566h-331v114h466v-120l-291 -570h-140z" />
    <glyph glyph-name="seven.ss06" 
d="M284 290h-127v101h168l71 175h-322v114h446v-114l-70 -175h100v-101h-140l-115 -289h-128z" />
    <glyph glyph-name="space.001" 
 />
    <glyph glyph-name="hyphen_hyphen.lig" 
d="M68 363h380v-110h-380v110zM-450 363h380v-110h-380v110z" />
    <glyph glyph-name="hyphen_hyphen_hyphen.lig" 
d="M21 363h380v-110h-380v110zM-1004 363h380v-110h-380v110zM-489 363h380v-110h-380v110z" />
    <glyph glyph-name="hyphen_hyphen_braceright_braceright.lig" 
d="M-1588 273v110h1170v-110h-1170zM-497 -23h32q49 0 71.5 2.5t32.5 11.5t10 29t-13 82q-16 82 -16 119t12.5 56t36.5 28t72 17v10q-48 8 -72 17t-36.5 28t-12.5 56t16 119q13 62 13 82t-10 29t-31 11.5t-69 2.5h-36v104q111 1 163.5 -6t75.5 -28.5t23 -69.5
q0 -28 -6 -66.5t-19 -104.5q-8 -40 -8 -57q0 -18 10 -27t31 -14.5t81 -16.5v-128q-61 -13 -81.5 -18t-30.5 -14.5t-10 -27.5q0 -15 8 -55q13 -66 19 -104.5t6 -66.5q0 -48 -23 -69.5t-75.5 -28.5t-163.5 -6v104zM-97 -23h32q49 0 71.5 2.5t32.5 11.5t10 29t-13 82
q-16 82 -16 119t12.5 56t36.5 28t72 17v10q-48 8 -72 17t-36.5 28t-12.5 56t16 119q13 62 13 82t-10 29t-31 11.5t-69 2.5h-36v104q111 1 163.5 -6t75.5 -28.5t23 -69.5q0 -28 -6 -66.5t-19 -104.5q-8 -40 -8 -57q0 -18 10 -27t31 -14.5t81 -16.5v-128q-61 -13 -81.5 -18
t-30.5 -14.5t-10 -27.5q0 -15 8 -55q13 -66 19 -104.5t6 -66.5q0 -48 -23 -69.5t-75.5 -28.5t-163.5 -6v104z" />
    <glyph glyph-name="hyphen_hyphen_greater.lig" 
d="M309 260l-86 -7h-1307v110h1307l87 -7l-231 229h155l257 -258v-37l-257 -258h-155z" />
    <glyph glyph-name="hyphen_bar.lig" 
d="M240 57v196h-625v110h625v196h120v-502h-120z" />
    <glyph glyph-name="hyphen_greater.lig" 
d="M131 32l230 228l-86 -7h-817v110h817l87 -7l-231 229h155l257 -258v-37l-257 -258h-155z" />
    <glyph glyph-name="hyphen_greater_greater.lig" 
d="M6 260l-86 -7h-1007v110h1007l87 -7l-231 229h155l257 -258v-37l-257 -258h-155zM354 308l-278 277h155l257 -258v-37l-257 -258h-155z" />
    <glyph glyph-name="hyphen_less.lig" 
d="M393 32l-220 221h-715v110h714l221 222h155l-278 -277l278 -276h-155z" />
    <glyph glyph-name="hyphen_less_less.lig" 
d="M121 32l-220 221h-957v110h956l221 222h155l-278 -277l278 -276h-155zM164 327l257 258h155l-278 -277l278 -276h-155l-257 258v37z" />
    <glyph glyph-name="hyphen_asciitilde.lig" 
d="M244 225q-22 6 -43.5 21.5t-53.5 48.5q-27 27 -43.5 42.5t-23 18.5t-17.5 3q-17 0 -22 -4t-6 -19.5t-1 -72.5h-480v110h372q6 35 21.5 52.5t43.5 24t77 6.5q34 0 55.5 -6t42 -21.5t53.5 -48.5q32 -33 46.5 -45.5t21.5 -15.5t19 -3q14 0 19 3t6.5 16t1.5 49v32h115
q1 -90 -9.5 -130t-40 -53.5t-97.5 -13.5q-35 0 -57 6z" />
    <glyph glyph-name="braceleft_braceleft.lig" 
d="M-166.5 -121q-52.5 7 -75.5 28.5t-23 69.5q0 28 6 66.5t19 104.5q8 40 8 55q0 18 -10 27.5t-30.5 14.5t-81.5 18v128q60 11 81 16.5t31 14.5t10 27q0 17 -8 57q-13 66 -19 104.5t-6 66.5q0 48 23 69.5t75.5 28.5t163.5 6v-104h-32q-49 0 -71.5 -2.5t-32.5 -11.5t-10 -29
t13 -82q16 -82 16 -119t-12.5 -56t-36.5 -28t-72 -17v-10q48 -8 72 -17t36.5 -28t12.5 -56t-16 -119q-13 -62 -13 -82t10 -29t31 -11.5t69 -2.5h36v-104q-111 -1 -163.5 6zM233.5 -121q-52.5 7 -75.5 28.5t-23 69.5q0 28 6 66.5t19 104.5q8 40 8 55q0 18 -10 27.5
t-30.5 14.5t-81.5 18v128q60 11 81 16.5t31 14.5t10 27q0 17 -8 57q-13 66 -19 104.5t-6 66.5q0 48 23 69.5t75.5 28.5t163.5 6v-104h-32q-49 0 -71.5 -2.5t-32.5 -11.5t-10 -29t13 -82q16 -82 16 -119t-12.5 -56t-36.5 -28t-72 -17v-10q48 -8 72 -17t36.5 -28t12.5 -56
t-16 -119q-13 -62 -13 -82t10 -29t31 -11.5t69 -2.5h36v-104q-111 -1 -163.5 6z" />
    <glyph glyph-name="braceleft_braceleft_hyphen_hyphen.lig" 
d="M-783 383h1170v-110h-1170v110zM-1455 391q60 11 81 16.5t31 14.5t10 27q0 17 -8 57q-13 66 -19 104.5t-6 66.5q0 48 23 69.5t75.5 28.5t163.5 6v-104h-32q-49 0 -71.5 -2.5t-32.5 -11.5t-10 -29t13 -82q16 -82 16 -119t-12.5 -56t-36.5 -28t-72 -17v-10q48 -8 72 -17
t36.5 -28t12.5 -56t-16 -119q-13 -62 -13 -82t10 -29t31 -11.5t69 -2.5h36v-104q-111 -1 -163.5 6t-75.5 28.5t-23 69.5q0 28 6 66.5t19 104.5q8 40 8 55q0 18 -10 27.5t-30.5 14.5t-81.5 18v128zM-1055 391q60 11 81 16.5t31 14.5t10 27q0 17 -8 57q-13 66 -19 104.5
t-6 66.5q0 48 23 69.5t75.5 28.5t163.5 6v-104h-32q-49 0 -71.5 -2.5t-32.5 -11.5t-10 -29t13 -82q16 -82 16 -119t-12.5 -56t-36.5 -28t-72 -17v-10q48 -8 72 -17t36.5 -28t12.5 -56t-16 -119q-13 -62 -13 -82t10 -29t31 -11.5t69 -2.5h36v-104q-111 -1 -163.5 6
t-75.5 28.5t-23 69.5q0 28 6 66.5t19 104.5q8 40 8 55q0 18 -10 27.5t-30.5 14.5t-81.5 18v128z" />
    <glyph glyph-name="braceleft_exclam_hyphen_hyphen.lig" 
d="M-688 383h1075v-110h-1075v110zM-1454 391q60 11 81 16.5t31 14.5t10 27q0 17 -8 57q-13 66 -19 104.5t-6 66.5q0 48 23 69.5t75.5 28.5t163.5 6v-104h-32q-49 0 -71.5 -2.5t-32.5 -11.5t-10 -29t13 -82q16 -82 16 -119t-12.5 -56t-36.5 -28t-72 -17v-10q48 -8 72 -17
t36.5 -28t12.5 -56t-16 -119q-13 -62 -13 -82t10 -29t31 -11.5t69 -2.5h36v-104q-111 -1 -163.5 6t-75.5 28.5t-23 69.5q0 28 6 66.5t19 104.5q8 40 8 55q0 18 -10 27.5t-30.5 14.5t-81.5 18v128zM-1163 383h250v-110h-250v110zM-885 165h171v-165h-171v165zM-861 731h122
v-318l-15 -155h-92l-15 155v318z" />
    <glyph glyph-name="braceleft_exclam_exclam.lig" 
d="M-575.5 -121q-52.5 7 -75.5 28.5t-23 69.5q0 28 6 66.5t19 104.5q8 40 8 55q0 18 -10 27.5t-30.5 14.5t-81.5 18v128q60 11 81 16.5t31 14.5t10 27q0 17 -8 57q-13 66 -19 104.5t-6 66.5q0 48 23 69.5t75.5 28.5t163.5 6v-104h-32q-49 0 -71.5 -2.5t-32.5 -11.5t-10 -29
t13 -82q16 -82 16 -119t-12.5 -56t-36.5 -28t-72 -17v-10q48 -8 72 -17t36.5 -28t12.5 -56t-16 -119q-13 -62 -13 -82t10 -29t31 -11.5t69 -2.5h36v-104q-111 -1 -163.5 6zM-296 165h171v-165h-171v165zM-272 731h122v-318l-15 -155h-92l-15 155v318zM4 165h171v-165h-171
v165zM28 731h122v-318l-15 -155h-92l-15 155v318z" />
    <glyph glyph-name="braceleft_bar.lig" 
d="M-166.5 -121q-52.5 7 -75.5 28.5t-23 69.5q0 28 6 66.5t19 104.5q8 40 8 55q0 18 -10 27.5t-30.5 14.5t-81.5 18v128q60 11 81 16.5t31 14.5t10 27q0 17 -8 57q-13 66 -19 104.5t-6 66.5q0 48 23 69.5t75.5 28.5t163.5 6v-104h-32q-49 0 -71.5 -2.5t-32.5 -11.5t-10 -29
t13 -82q16 -82 16 -119t-12.5 -56t-36.5 -28t-72 -17v-10q48 -8 72 -17t36.5 -28t12.5 -56t-16 -119q-13 -62 -13 -82t10 -29t31 -11.5t69 -2.5h36v-104q-111 -1 -163.5 6zM140 789h120v-902h-120v902z" />
    <glyph glyph-name="braceright_braceright.lig" 
d="M33 -23q49 0 71.5 2.5t32.5 11.5t10 29t-13 82q-16 82 -16 119t12.5 56t36.5 28t72 17v10q-48 8 -72 17t-36.5 28t-12.5 56t16 119q13 62 13 82t-10 29t-31 11.5t-69 2.5h-36v104q111 1 163.5 -6t75.5 -28.5t23 -69.5q0 -28 -6 -66.5t-19 -104.5q-8 -40 -8 -57
q0 -18 10 -27t31 -14.5t81 -16.5v-128q-61 -13 -81.5 -18t-30.5 -14.5t-10 -27.5q0 -15 8 -55q13 -66 19 -104.5t6 -66.5q0 -48 -23 -69.5t-75.5 -28.5t-163.5 -6v104h32zM-367 -23q49 0 71.5 2.5t32.5 11.5t10 29t-13 82q-16 82 -16 119t12.5 56t36.5 28t72 17v10
q-48 8 -72 17t-36.5 28t-12.5 56t16 119q13 62 13 82t-10 29t-31 11.5t-69 2.5h-36v104q111 1 163.5 -6t75.5 -28.5t23 -69.5q0 -28 -6 -66.5t-19 -104.5q-8 -40 -8 -57q0 -18 10 -27t31 -14.5t81 -16.5v-128q-61 -13 -81.5 -18t-30.5 -14.5t-10 -27.5q0 -15 8 -55
q13 -66 19 -104.5t6 -66.5q0 -48 -23 -69.5t-75.5 -28.5t-163.5 -6v104h32z" />
    <glyph glyph-name="bracketleft_bar.lig" 
d="M-280 781h277v-99h-161v-710h161v-99h-277v908zM140 789h120v-902h-120v902z" />
    <glyph glyph-name="bracketleft_less.lig" 
d="M-280 781h277v-99h-161v-710h161v-99h-277v908zM-44 250v114l488 238v-129l-371 -165v-2l371 -165v-129z" />
    <glyph glyph-name="bracketright_numbersign.lig" 
d="M72 161h-252v-288h-277v99h161v710h-161v99h277v-290h321l38 175h108l-37 -175h98l37 175h107l-37 -175h101l-20 -98h-102l-28 -135h100l-20 -97h-102l-37 -175h-106l38 175h-99l-38 -175h-107zM92 248l33 155h-305v-155h272zM318 222l39 179h-149l-39 -179h149z" />
    <glyph glyph-name="period_period.lig" 
d="M105 183h190v-183h-190v183zM-295 183h190v-183h-190v183z" />
    <glyph glyph-name="period_period_period.lig" 
d="M5 183h190v-183h-190v183zM-795 183h190v-183h-190v183zM-395 183h190v-183h-190v183z" />
    <glyph glyph-name="period_period_less.lig" 
d="M-395 183h190v-183h-190v183zM-795 183h190v-183h-190v183zM-65 364l488 238v-129l-371 -165v-2l371 -165v-129l-488 238v114z" />
    <glyph glyph-name="period_question.lig" 
d="M128 314.5q15 28.5 36 43t57 30.5q30 14 47 25.5t29 31t12 50.5q0 38 -9.5 58.5t-33 28.5t-68.5 8q-42 0 -64.5 -7t-31 -23t-7.5 -47h-122q-2 72 17.5 109.5t67.5 53t140 15.5q93 0 142 -17t69 -58.5t20 -120.5q0 -63 -20 -102t-47.5 -58t-67.5 -36q-34 -15 -48.5 -26.5
t-14.5 -32.5v-34h-118v34q0 46 15 74.5zM-295 183h190v-183h-190v183zM88 159h171v-159h-171v159z" />
    <glyph glyph-name="period_equal.lig" 
d="M-52 456h504v-107h-504v107zM-395 183h190v-183h-190v183zM-52 256h504v-107h-504v107z" />
    <glyph glyph-name="colon_colon.lig" 
d="M-296 213h190v-183h-190v183zM-296 586h190v-183h-190v183zM104 213h190v-183h-190v183zM104 586h190v-183h-190v183z" />
    <glyph glyph-name="colon_colon_colon.lig" 
d="M-396 213h190v-183h-190v183zM-396 586h190v-183h-190v183zM4 213h190v-183h-190v183zM4 586h190v-183h-190v183zM-796 213h190v-183h-190v183zM-796 586h190v-183h-190v183z" />
    <glyph glyph-name="colon_colon_equal.lig" 
d="M-152 456h604v-107h-604v107zM-896 213h190v-183h-190v183zM-896 586h190v-183h-190v183zM-496 213h190v-183h-190v183zM-496 586h190v-183h-190v183zM-152 256h604v-107h-604v107z" />
    <glyph glyph-name="colon_question.lig" 
d="M128 314.5q15 28.5 36 43t57 30.5q30 14 47 25.5t29 31t12 50.5q0 38 -9.5 58.5t-33 28.5t-68.5 8q-42 0 -64.5 -7t-31 -23t-7.5 -47h-122q-2 72 17.5 109.5t67.5 53t140 15.5q93 0 142 -17t69 -58.5t20 -120.5q0 -63 -20 -102t-47.5 -58t-67.5 -36q-34 -15 -48.5 -26.5
t-14.5 -32.5v-34h-118v34q0 46 15 74.5zM-296 213h190v-183h-190v183zM-296 586h190v-183h-190v183zM88 159h171v-159h-171v159z" />
    <glyph glyph-name="colon_question_greater.lig" 
d="M-2 141l371 165v2l-371 165v129l488 -238v-114l-488 -238v129zM-796 213h190v-183h-190v183zM-796 586h190v-183h-190v183zM-509.5 622.5q19.5 37.5 67.5 53t140 15.5q93 0 142 -17t69 -58.5t20 -120.5q0 -63 -20 -102t-47.5 -58t-67.5 -36q-34 -15 -48.5 -26.5
t-14.5 -32.5v-34h-118v34q0 46 15 74.5t36 43t57 30.5q30 14 47 25.5t29 31t12 50.5q0 38 -9.5 58.5t-33 28.5t-68.5 8q-42 0 -64.5 -7t-31 -23t-7.5 -47h-122q-2 72 17.5 109.5zM-412 159h171v-159h-171v159z" />
    <glyph glyph-name="colon_equal.lig" 
d="M-52 456h604v-107h-604v107zM-396 213h190v-183h-190v183zM-396 586h190v-183h-190v183zM-52 256h604v-107h-604v107z" />
    <glyph glyph-name="colon_greater.lig" 
d="M-2 141l371 165v2l-371 165v129l488 -238v-114l-488 -238v129zM-296 213h190v-183h-190v183zM-296 586h190v-183h-190v183z" />
    <glyph glyph-name="colon_less.lig" 
d="M-396 213h190v-183h-190v183zM-396 586h190v-183h-190v183zM-85 374l488 238v-129l-371 -165v-2l371 -165v-129l-488 238v114z" />
    <glyph glyph-name="semicolon_semicolon.lig" 
d="M120 57v93h158v-89q0 -5 -2 -15t-7 -19l-106 -218h-119l74 232q2 6 2 16zM104 571h190v-183h-190v183zM-280 57v93h158v-89q0 -5 -2 -15t-7 -19l-106 -218h-119l74 232q2 6 2 16zM-296 571h190v-183h-190v183z" />
    <glyph glyph-name="semicolon_semicolon_semicolon.lig" 
d="M-780 57v93h158v-89q0 -5 -2 -15t-7 -19l-106 -218h-119l74 232q2 6 2 16zM-796 571h190v-183h-190v183zM-380 57v93h158v-89q0 -5 -2 -15t-7 -19l-106 -218h-119l74 232q2 6 2 16zM-396 571h190v-183h-190v183zM20 57v93h158v-89q0 -5 -2 -15t-7 -19l-106 -218h-119
l74 232q2 6 2 16zM4 571h190v-183h-190v183z" />
    <glyph glyph-name="exclam_exclam.lig" 
d="M139 413v318h122v-318l-15 -155h-92zM115 165h171v-165h-171v165zM-261 413v318h122v-318l-15 -155h-92zM-285 165h171v-165h-171v165z" />
    <glyph glyph-name="exclam_exclam_braceright.lig" 
d="M-147 -23q49 0 71.5 2.5t32.5 11.5t10 29t-13 82q-16 82 -16 119t12.5 56t36.5 28t72 17v10q-48 8 -72 17t-36.5 28t-12.5 56t16 119q13 62 13 82t-10 29t-31 11.5t-69 2.5h-36v104q111 1 163.5 -6t75.5 -28.5t23 -69.5q0 -28 -6 -66.5t-19 -104.5q-8 -40 -8 -57
q0 -18 10 -27t31 -14.5t81 -16.5v-128q-61 -13 -81.5 -18t-30.5 -14.5t-10 -27.5q0 -15 8 -55q13 -66 19 -104.5t6 -66.5q0 -48 -23 -69.5t-75.5 -28.5t-163.5 -6v104h32zM-441 413v318h122v-318l-15 -155h-92zM-465 165h171v-165h-171v165zM-741 413v318h122v-318l-15 -155
h-92zM-765 165h171v-165h-171v165z" />
    <glyph glyph-name="exclam_equal.lig" 
d="M-127 155h-375v107h417l37 92h-454v107h497l66 165h121l-66 -165h386v-107h-429l-37 -92h466v-107h-509l-54 -134h-120z" />
    <glyph glyph-name="exclam_equal_equal.lig" 
d="M-462 56h-615v107h657l36 92h-693v107h735l36 92h-771v107h813l45 115h121l-45 -115h620v-107h-662l-36 -92h698v-107h-741l-36 -92h777v-107h-819l-49 -125h-120z" />
    <glyph glyph-name="exclam_asciitilde.lig" 
d="M-321 413v318h122v-318l-15 -155h-92zM-345 165h171v-165h-171v165zM320.5 186q-21.5 6 -42 21.5t-53.5 48.5q-32 33 -46.5 45.5t-21.5 15.5t-19 3q-14 0 -19 -3t-6.5 -16t-1.5 -49v-32h-115q-1 90 9.5 130t40 53.5t97.5 13.5q35 0 57 -6t43.5 -21.5t53.5 -48.5
q27 -27 43.5 -42.5t23 -18.5t17.5 -3q15 0 20.5 3t7 17t1.5 52v32h114q1 -92 -9.5 -132.5t-40.5 -54.5t-98 -14q-34 0 -55.5 6z" />
    <glyph glyph-name="question_period.lig" 
d="M-272 323.5q15 27.5 36 41t57 28.5q29 12 46.5 22.5t29.5 29.5t12 50q0 38 -9.5 58.5t-33 28.5t-68.5 8q-42 0 -64.5 -7t-31 -23t-7.5 -47h-122q-2 72 17.5 109.5t67.5 53t140 15.5q93 0 142 -17t69 -58.5t20 -120.5q0 -63 -20 -101t-47 -55.5t-68 -33.5q-33 -12 -48 -23
t-15 -32v-4h-118v4q0 46 15 73.5zM-321 183h190v-183h-190v183zM105 183h190v-183h-190v183z" />
    <glyph glyph-name="question_colon.lig" 
d="M-272 314.5q15 28.5 36 43t57 30.5q30 14 47 25.5t29 31t12 50.5q0 38 -9.5 58.5t-33 28.5t-68.5 8q-42 0 -64.5 -7t-31 -23t-7.5 -47h-122q-2 72 17.5 109.5t67.5 53t140 15.5q93 0 142 -17t69 -58.5t20 -120.5q0 -63 -20 -102t-47.5 -58t-67.5 -36q-34 -15 -48.5 -26.5
t-14.5 -32.5v-34h-118v34q0 46 15 74.5zM-312 159h171v-159h-171v159zM104 213h190v-183h-190v183zM104 586h190v-183h-190v183z" />
    <glyph glyph-name="question_question.lig" 
d="M188 314.5q15 28.5 36 43t57 30.5q30 14 47 25.5t29 31t12 50.5q0 38 -9.5 58.5t-33 28.5t-68.5 8q-42 0 -64.5 -7t-31 -23t-7.5 -47h-122q-2 72 17.5 109.5t67.5 53t140 15.5q93 0 142 -17t69 -58.5t20 -120.5q0 -63 -20 -102t-47.5 -58t-67.5 -36q-34 -15 -48.5 -26.5
t-14.5 -32.5v-34h-118v34q0 46 15 74.5zM148 159h171v-159h-171v159zM-332 314.5q15 28.5 36 43t57 30.5q30 14 47 25.5t29 31t12 50.5q0 38 -9.5 58.5t-33 28.5t-68.5 8q-42 0 -64.5 -7t-31 -23t-7.5 -47h-122q-2 72 17.5 109.5t67.5 53t140 15.5q93 0 142 -17t69 -58.5
t20 -120.5q0 -63 -20 -102t-47.5 -58t-67.5 -36q-34 -15 -48.5 -26.5t-14.5 -32.5v-34h-118v34q0 46 15 74.5zM-372 159h171v-159h-171v159z" />
    <glyph glyph-name="question_question_question.lig" 
d="M148 314.5q15 28.5 36 43t57 30.5q30 14 47 25.5t29 31t12 50.5q0 38 -9.5 58.5t-33 28.5t-68.5 8q-42 0 -64.5 -7t-31 -23t-7.5 -47h-122q-2 72 17.5 109.5t67.5 53t140 15.5q93 0 142 -17t69 -58.5t20 -120.5q0 -63 -20 -102t-47.5 -58t-67.5 -36q-34 -15 -48.5 -26.5
t-14.5 -32.5v-34h-118v34q0 46 15 74.5zM108 159h171v-159h-171v159zM-372 314.5q15 28.5 36 43t57 30.5q30 14 47 25.5t29 31t12 50.5q0 38 -9.5 58.5t-33 28.5t-68.5 8q-42 0 -64.5 -7t-31 -23t-7.5 -47h-122q-2 72 17.5 109.5t67.5 53t140 15.5q93 0 142 -17t69 -58.5
t20 -120.5q0 -63 -20 -102t-47.5 -58t-67.5 -36q-34 -15 -48.5 -26.5t-14.5 -32.5v-34h-118v34q0 46 15 74.5zM-412 159h171v-159h-171v159zM-892 314.5q15 28.5 36 43t57 30.5q30 14 47 25.5t29 31t12 50.5q0 38 -9.5 58.5t-33 28.5t-68.5 8q-42 0 -64.5 -7t-31 -23
t-7.5 -47h-122q-2 72 17.5 109.5t67.5 53t140 15.5q93 0 142 -17t69 -58.5t20 -120.5q0 -63 -20 -102t-47.5 -58t-67.5 -36q-34 -15 -48.5 -26.5t-14.5 -32.5v-34h-118v34q0 46 15 74.5zM-932 159h171v-159h-171v159z" />
    <glyph glyph-name="question_equal.lig" 
d="M-332 314.5q15 28.5 36 43t57 30.5q30 14 47 25.5t29 31t12 50.5q0 38 -9.5 58.5t-33 28.5t-68.5 8q-42 0 -64.5 -7t-31 -23t-7.5 -47h-122q-2 72 17.5 109.5t67.5 53t140 15.5q93 0 142 -17t69 -58.5t20 -120.5q0 -63 -20 -102t-47.5 -58t-67.5 -36q-34 -15 -48.5 -26.5
t-14.5 -32.5v-34h-118v34q0 46 15 74.5zM-372 159h171v-159h-171v159zM8 456h504v-107h-504v107zM8 256h504v-107h-504v107z" />
    <glyph glyph-name="asterisk_asterisk.lig" 
d="M292 206l-33 69l-33 -70l-54 -76l-101 73l50 70l67 60l-84 12l-86 28l35 109l92 -27l67 -39l-17 83v89h127v-89l-16 -82l68 38l93 29l36 -113l-88 -28l-84 -10l63 -58l54 -73l-98 -73zM-228 206l-33 69l-33 -70l-54 -76l-101 73l50 70l67 60l-84 12l-86 28l35 109l92 -27
l67 -39l-17 83v89h127v-89l-16 -82l68 38l93 29l36 -113l-88 -28l-84 -10l63 -58l54 -73l-98 -73z" />
    <glyph glyph-name="asterisk_asterisk_asterisk.lig" 
d="M132 106l-33 69l-33 -70l-54 -76l-101 73l50 70l67 60l-84 12l-86 28l35 109l92 -27l67 -39l-17 83v89h127v-89l-16 -82l68 38l93 29l36 -113l-88 -28l-84 -10l63 -58l54 -73l-98 -73zM-668 106l-33 69l-33 -70l-54 -76l-101 73l50 70l67 60l-84 12l-86 28l35 109l92 -27
l67 -39l-17 83v89h127v-89l-16 -82l68 38l93 29l36 -113l-88 -28l-84 -10l63 -58l54 -73l-98 -73zM-268 406l-33 69l-33 -70l-54 -76l-101 73l50 70l67 60l-84 12l-86 28l35 109l92 -27l67 -39l-17 83v89h127v-89l-16 -82l68 38l93 29l36 -113l-88 -28l-84 -10l63 -58
l54 -73l-98 -73z" />
    <glyph glyph-name="asterisk_greater.lig" 
d="M-228 150l-33 69l-33 -70l-54 -76l-101 73l50 70l67 60l-84 12l-86 28l35 109l92 -27l67 -39l-17 83v89h127v-89l-16 -82l68 38l93 29l36 -113l-88 -28l-84 -10l63 -58l54 -73l-98 -73zM16 141l371 165v2l-371 165v129l488 -238v-114l-488 -238v129z" />
    <glyph glyph-name="asterisk_slash.lig" 
d="M-208 -14l-33 69l-33 -70l-54 -76l-101 73l50 70l67 60l-84 12l-86 28l35 109l92 -27l67 -39l-17 83v89h127v-89l-16 -82l68 38l93 29l36 -113l-88 -28l-84 -10l63 -58l54 -73l-98 -73zM378 781h121l-359 -908h-120z" />
    <glyph glyph-name="numbersign_parenleft.lig" 
d="M-454 161h-101l20 98h102l28 135h-100l20 97h102l37 175h106l-38 -175h99l38 175h107l-37 -175h224q4 24 12 56q21 90 52 139t82 71t135 25l-1 -112q-51 -2 -80.5 -15.5t-47 -45.5t-28.5 -90q-10 -57 -14 -97.5t-4 -94.5t4 -94.5t14 -97.5q11 -58 28.5 -90t47 -45.5
t80.5 -15.5l1 -112q-85 3 -135.5 25t-81.5 71t-52 139q-4 17 -11 54h-294l-38 -175h-108l37 175h-98l-37 -175h-107zM-207 251l39 179h-149l-39 -179h149zM144 249q-2 23 -2 78q0 54 2 77h-235l-33 -155h268z" />
    <glyph glyph-name="numbersign_braceleft.lig" 
d="M-454 161h-101l20 98h102l28 135h-100l20 97h102l37 175h106l-38 -175h99l38 175h107l-37 -175h294l-3 15q-13 66 -19 104.5t-6 66.5q0 48 23 69.5t75.5 28.5t163.5 6v-104h-32q-49 0 -71.5 -2.5t-32.5 -11.5t-10 -29t13 -82q4 -16 11 -61q5 -38 5 -58q0 -37 -12.5 -56
t-36.5 -28t-72 -17v-10q48 -8 72 -17t36.5 -28t12.5 -56t-16 -119q-13 -62 -13 -82t10 -29t31 -11.5t69 -2.5h36v-104q-111 -1 -163.5 6t-75.5 28.5t-23 69.5q0 28 6 66.5t19 104.5l3 13h-363l-38 -175h-108l37 175h-98l-37 -175h-107zM-226 269l31 143h-105l-31 -143h105z
M212 249q-20 11 -89 25v107q66 12 88 23h-302l-33 -155h336z" />
    <glyph glyph-name="numbersign_bracketleft.lig" 
d="M-454 161h-101l20 98h102l28 135h-100l20 97h102l37 175h106l-38 -175h99l38 175h107l-37 -175h251v290h277v-99h-161v-710h161v-99h-277v288h-320l-38 -175h-108l37 175h-98l-37 -175h-107zM-207 251l39 179h-149l-39 -179h149zM180 249v155h-271l-33 -155h304z" />
    <glyph glyph-name="numbersign_colon.lig" 
d="M-454 175h-101l20 98h102l28 135h-100l20 97h102l37 175h106l-38 -175h99l38 175h107l-37 -175h106l-20 -97h-106l-29 -135h106l-21 -98h-105l-38 -175h-108l37 175h-98l-37 -175h-107zM-226 269l31 143h-105l-31 -143h105zM165 243h190v-183h-190v183zM165 586h190v-183
h-190v183z" />
    <glyph glyph-name="numbersign_exclam.lig" 
d="M-454 175h-101l20 98h102l28 135h-100l20 97h102l37 175h106l-38 -175h99l38 175h107l-37 -175h106l-20 -97h-106l-29 -135h106l-21 -98h-105l-38 -175h-108l37 175h-98l-37 -175h-107zM-226 269l31 143h-105l-31 -143h105zM199 413v318h122v-318l-15 -155h-92zM175 165
h171v-165h-171v165z" />
    <glyph glyph-name="numbersign_question.lig" 
d="M-454 175h-101l20 98h102l28 135h-100l20 97h102l37 175h106l-38 -175h99l38 175h107l-37 -175h104q-2 76 17.5 115t67 55t140.5 16t142 -17t69 -58.5t20 -120.5q0 -63 -20 -102t-47.5 -58t-67.5 -36q-34 -15 -48.5 -26.5t-14.5 -32.5v-34h-118v34q0 46 15 74.5t36 43
t57 30.5q30 14 47 25.5t29 31t12 50.5q0 38 -9.5 58.5t-33 28.5t-68.5 8q-43 0 -65 -7t-30.5 -25t-7.5 -53l-20 -97h-226l-29 -135h106l-21 -98h-105l-38 -175h-108l37 175h-98l-37 -175h-107zM-226 269l31 143h-105l-31 -143h105zM148 159h171v-159h-171v159z" />
    <glyph glyph-name="numbersign_numbersign.lig" 
d="M56 175h-186l-38 -175h-108l37 175h-98l-37 -175h-107l37 175h-101l20 98h102l28 135h-100l20 97h102l37 175h106l-38 -175h99l38 175h107l-37 -175h188l37 175h106l-38 -175h99l38 175h107l-37 -175h106l-20 -97h-106l-29 -135h106l-21 -98h-105l-38 -175h-108l37 175
h-98l-37 -175h-107zM-216 269l31 143h-105l-31 -143h105zM77 273l28 135h-186l-29 -135h187zM284 269l31 143h-105l-31 -143h105z" />
    <glyph glyph-name="numbersign_numbersign_numbersign.lig" 
d="M-494 175h-186l-38 -175h-108l37 175h-98l-37 -175h-107l37 175h-101l20 98h102l28 135h-100l20 97h102l37 175h106l-38 -175h99l38 175h107l-37 -175h188l37 175h106l-38 -175h99l38 175h107l-37 -175h188l37 175h106l-38 -175h99l38 175h107l-37 -175h106l-20 -97h-106
l-29 -135h106l-21 -98h-105l-38 -175h-108l37 175h-98l-37 -175h-107l37 175h-186l-38 -175h-108l37 175h-98l-37 -175h-107zM-766 269l31 143h-105l-31 -143h105zM-473 273l28 135h-186l-29 -135h187zM-266 269l31 143h-105l-31 -143h105zM27 273l28 135h-186l-29 -135h187
zM234 269l31 143h-105l-31 -143h105z" />
    <glyph glyph-name="numbersign_numbersign_numbersign_numbersign.lig" 
d="M-1024 175h-186l-38 -175h-108l37 175h-98l-37 -175h-107l37 175h-101l20 98h102l28 135h-100l20 97h102l37 175h106l-38 -175h99l38 175h107l-37 -175h188l37 175h106l-38 -175h99l38 175h107l-37 -175h188l37 175h106l-38 -175h99l38 175h107l-37 -175h188l37 175h106
l-38 -175h99l38 175h107l-37 -175h106l-20 -97h-106l-29 -135h106l-21 -98h-105l-38 -175h-108l37 175h-98l-37 -175h-107l37 175h-186l-38 -175h-108l37 175h-98l-37 -175h-107l37 175h-186l-38 -175h-108l37 175h-98l-37 -175h-107zM-1296 269l31 143h-105l-31 -143h105z
M-1003 273l28 135h-186l-29 -135h187zM-796 269l31 143h-105l-31 -143h105zM-503 273l28 135h-186l-29 -135h187zM-296 269l31 143h-105l-31 -143h105zM-3 273l28 135h-186l-29 -135h187zM204 269l31 143h-105l-31 -143h105z" />
    <glyph glyph-name="numbersign_equal.lig" 
d="M-494 175h-101l20 98h102l28 135h-100l20 97h102l37 175h106l-38 -175h99l38 175h107l-37 -175h106l-20 -97h-106l-29 -135h106l-21 -98h-105l-38 -175h-108l37 175h-98l-37 -175h-107zM-266 269l31 143h-105l-31 -143h105zM29 285h513v-107h-536zM72 485h470v-107h-493z
" />
    <glyph glyph-name="numbersign_underscore.lig" 
d="M-394 175h-101l20 98h102l28 135h-100l20 97h102l37 175h106l-38 -175h99l38 175h107l-37 -175h106l-20 -97h-106l-29 -135h106l-21 -98h-105l-38 -175h689v-112h-797v112l37 175h-98l-37 -175h-107zM-166 269l31 143h-105l-31 -143h105z" />
    <glyph glyph-name="numbersign_underscore_parenleft.lig" 
d="M-676 -112v112l37 175h-98l-37 -175h-107l37 175h-101l20 98h102l28 135h-100l20 97h102l37 175h106l-38 -175h99l38 175h107l-37 -175h106l-20 -97h-106l-29 -135h106l-21 -98h-105l-38 -175h675q-23 42 -42 120q-13 54 -18 99.5t-5 116.5q0 70 5 115.5t18 99.5
q21 88 52 136.5t82 69.5t135 24l-1 -109q-50 -2 -80 -15.5t-47.5 -44.5t-28.5 -88q-10 -56 -14 -95.5t-4 -92.5t4 -93t14 -96q11 -53 26.5 -83.5t41.5 -45t70 -18.5h19v-112h-1010zM-616 269l31 143h-105l-31 -143h105z" />
    <glyph glyph-name="slash_asterisk.lig" 
d="M-142 781h121l-359 -908h-120zM272 366l-33 69l-33 -70l-54 -76l-101 73l50 70l67 60l-84 12l-86 28l35 109l92 -27l67 -39l-17 83v89h127v-89l-16 -82l68 38l93 29l36 -113l-88 -28l-84 -10l63 -58l54 -73l-98 -73z" />
    <glyph glyph-name="slash_asterisk_asterisk.lig" 
d="M-692 781h121l-359 -908h-120zM-278 366l-33 69l-33 -70l-54 -76l-101 73l50 70l67 60l-84 12l-86 28l35 109l92 -27l67 -39l-17 83v89h127v-89l-16 -82l68 38l93 29l36 -113l-88 -28l-84 -10l63 -58l54 -73l-98 -73zM242 366l-33 69l-33 -70l-54 -76l-101 73l50 70
l67 60l-84 12l-86 28l35 109l92 -27l67 -39l-17 83v89h127v-89l-16 -82l68 38l93 29l36 -113l-88 -28l-84 -10l63 -58l54 -73l-98 -73z" />
    <glyph glyph-name="slash_equal.lig" 
d="M-202 626h121l-62 -155h545v-107h-588l-38 -93h626v-107h-669l-57 -143h-120z" />
    <glyph glyph-name="slash_equal_equal.lig" 
d="M-775 564h121l-40 -105h1063v-107h-1104l-39 -103h1143v-107h-1184l-36 -93h-120z" />
    <glyph glyph-name="slash_greater.lig" 
d="M56 141l371 165v2l-489 218l-258 -653h-120l358 908h121l-58 -148l563 -269v-114l-488 -238v129z" />
    <glyph glyph-name="slash_slash.lig" 
d="M318 781h121l-359 -908h-120zM-82 781h121l-359 -908h-120z" />
    <glyph glyph-name="slash_slash_equal.lig" 
d="M-327 631h121l-70 -175h543v-107h-586l-37 -93h623v-107h-666l-46 -116h-120zM-627 631h121l-239 -598h-120z" />
    <glyph glyph-name="slash_slash_slash.lig" 
d="M218 781h121l-359 -908h-120zM-582 781h121l-359 -908h-120zM-182 781h121l-359 -908h-120z" />
    <glyph glyph-name="slash_backslash.lig" 
d="M-62 781h124l358 -908h-120l-300 759l-300 -759h-120z" />
    <glyph glyph-name="backslash_slash.lig" 
d="M-60 -127l-359 908h121l298 -756l298 756h121l-359 -908h-120z" />
    <glyph glyph-name="underscore_bar_underscore.lig" 
d="M-1073 -73h713v862h120v-862h713v-112h-1546v112z" />
    <glyph glyph-name="underscore_underscore.lig" 
d="M-499 -73h998v-112h-998v112z" />
    <glyph glyph-name="at_underscore.lig" 
d="M-398.5 -88q-37.5 15 -52 52t-14.5 111v436q0 81 14.5 121t52.5 56.5t116 16.5h199q58 0 87.5 -16.5t41 -57.5t11.5 -121v-46l-1 -369h-73q-4 2 -16 36h-8q-12 -19 -19.5 -26.5t-19.5 -9.5t-39 -2q-82 0 -113.5 9.5t-44 49.5t-12.5 140q0 99 12 139t43 49.5t111 9.5
q22 0 33.5 -6t37.5 -34h7v60q0 45 -2.5 62.5t-9.5 22.5t-26 5h-200q-36 0 -50 -5t-18 -21.5t-4 -60.5v-436q0 -39 3.5 -53t17 -18.5t48.5 -4.5h717v-104h-715q-77 0 -114.5 15zM-177 222q6 -20 19.5 -24.5t47.5 -4.5t45 4.5t13.5 21.5t2.5 70q0 56 -2.5 74t-13.5 22.5
t-45 4.5t-47.5 -4.5t-19.5 -25t-6 -69.5t6 -69z" />
    <glyph glyph-name="ampersand_ampersand.lig" 
d="M88 8.5q-49 17.5 -70 59.5t-21 119q0 48 26 87.5t98 99.5q-51 66 -69.5 100t-18.5 64q0 59 16 91.5t53.5 46t107.5 13.5t108 -13.5t54 -46t16 -91.5q0 -29 -26.5 -65.5t-99.5 -106.5l114 -137l-3 112h99q1 -18 1 -51q0 -96 -16 -156l111 -133h-136l-31 37
q-24 -25 -67.5 -36t-105.5 -11q-91 0 -140 17.5zM-517 274.5q26 39.5 98 99.5q-51 66 -69.5 100t-18.5 64q0 59 16 91.5t53.5 46t107.5 13.5t108 -13.5t54 -46t16 -91.5q0 -29 -26.5 -65.5t-99.5 -106.5l306 -365h-136l-31 37q-24 -25 -67.5 -36t-105.5 -11q-91 0 -140 17.5
t-70 59.5t-21 119q0 48 26 87.5zM-417.5 125.5q11.5 -19.5 38 -27.5t76.5 -8q38 0 60 5t37 24l-148 178q-43 -43 -59 -67.5t-16 -46.5q0 -38 11.5 -57.5zM-383.5 500.5q10.5 -20.5 40.5 -57.5q46 47 61 65t15 30q0 31 -13 42.5t-49 11.5q-38 0 -51.5 -11.5t-13.5 -42.5
q0 -17 10.5 -37.5zM122.5 125.5q11.5 -19.5 38 -27.5t76.5 -8q38 0 60 5t37 24l-148 178q-43 -43 -59 -67.5t-16 -46.5q0 -38 11.5 -57.5zM156.5 500.5q10.5 -20.5 40.5 -57.5q46 47 61 65t15 30q0 31 -13 42.5t-49 11.5q-38 0 -51.5 -11.5t-13.5 -42.5q0 -17 10.5 -37.5z
" />
    <glyph glyph-name="ampersand_ampersand_ampersand.lig" 
d="M45 8.5q-49 17.5 -70 59.5t-21 119q0 48 26 87.5t98 99.5q-51 66 -69.5 100t-18.5 64q0 59 16 91.5t53.5 46t107.5 13.5t108 -13.5t54 -46t16 -91.5q0 -29 -26.5 -65.5t-99.5 -106.5l114 -137l-3 112h99q1 -18 1 -51q0 -96 -16 -156l111 -133h-136l-31 37
q-24 -25 -67.5 -36t-105.5 -11q-91 0 -140 17.5zM-1100 274.5q26 39.5 98 99.5q-51 66 -69.5 100t-18.5 64q0 59 16 91.5t53.5 46t107.5 13.5t108 -13.5t54 -46t16 -91.5q0 -29 -26.5 -65.5t-99.5 -106.5l306 -365h-136l-31 37q-24 -25 -67.5 -36t-105.5 -11
q-91 0 -140 17.5t-70 59.5t-21 119q0 48 26 87.5zM-1000.5 125.5q11.5 -19.5 38 -27.5t76.5 -8q38 0 60 5t37 24l-148 178q-43 -43 -59 -67.5t-16 -46.5q0 -38 11.5 -57.5zM-966.5 500.5q10.5 -20.5 40.5 -57.5q46 47 61 65t15 30q0 31 -13 42.5t-49 11.5q-38 0 -51.5 -11.5
t-13.5 -42.5q0 -17 10.5 -37.5zM-560 274.5q26 39.5 98 99.5q-51 66 -69.5 100t-18.5 64q0 59 16 91.5t53.5 46t107.5 13.5t108 -13.5t54 -46t16 -91.5q0 -29 -26.5 -65.5t-99.5 -106.5l306 -365h-136l-31 37q-24 -25 -67.5 -36t-105.5 -11q-91 0 -140 17.5t-70 59.5
t-21 119q0 48 26 87.5zM-460.5 125.5q11.5 -19.5 38 -27.5t76.5 -8q38 0 60 5t37 24l-148 178q-43 -43 -59 -67.5t-16 -46.5q0 -38 11.5 -57.5zM-426.5 500.5q10.5 -20.5 40.5 -57.5q46 47 61 65t15 30q0 31 -13 42.5t-49 11.5q-38 0 -51.5 -11.5t-13.5 -42.5
q0 -17 10.5 -37.5zM79.5 125.5q11.5 -19.5 38 -27.5t76.5 -8q38 0 60 5t37 24l-148 178q-43 -43 -59 -67.5t-16 -46.5q0 -38 11.5 -57.5zM113.5 500.5q10.5 -20.5 40.5 -57.5q46 47 61 65t15 30q0 31 -13 42.5t-49 11.5q-38 0 -51.5 -11.5t-13.5 -42.5q0 -17 10.5 -37.5z
" />
    <glyph glyph-name="ampersand_equal.lig" 
d="M-412 8.5q-49 17.5 -70 59.5t-21 119q0 48 26 87.5t98 99.5q-51 66 -69.5 100t-18.5 64q0 59 16 91.5t53.5 46t107.5 13.5t108 -13.5t54 -46t16 -91.5q0 -29 -26.5 -65.5t-99.5 -106.5l132 -156l126 261h452v-107h-402l-113 -230l111 -133h-136l-31 37q-24 -25 -67.5 -36
t-105.5 -11q-91 0 -140 17.5zM-377.5 125.5q11.5 -19.5 38 -27.5t76.5 -8q38 0 60 5t37 24l-148 178q-43 -43 -59 -67.5t-16 -46.5q0 -38 11.5 -57.5zM-343.5 500.5q10.5 -20.5 40.5 -57.5q46 47 61 65t15 30q0 31 -13 42.5t-49 11.5q-38 0 -51.5 -11.5t-13.5 -42.5
q0 -17 10.5 -37.5zM78 271h394v-107h-394v107z" />
    <glyph glyph-name="bar_hyphen.lig" 
d="M-385 559h120v-196h625v-110h-625v-196h-120v502z" />
    <glyph glyph-name="bar_hyphen_greater.lig" 
d="M68 32l230 228l-86 -7h-1171v-196h-120v502h120v-196h1171l87 -7l-231 229h155l257 -258v-37l-257 -258h-155z" />
    <glyph glyph-name="bar_braceright.lig" 
d="M-260 789h120v-902h-120v902zM33 -23q49 0 71.5 2.5t32.5 11.5t10 29t-13 82q-16 82 -16 119t12.5 56t36.5 28t72 17v10q-48 8 -72 17t-36.5 28t-12.5 56t16 119q13 62 13 82t-10 29t-31 11.5t-69 2.5h-36v104q111 1 163.5 -6t75.5 -28.5t23 -69.5q0 -28 -6 -66.5
t-19 -104.5q-8 -40 -8 -57q0 -18 10 -27t31 -14.5t81 -16.5v-128q-61 -13 -81.5 -18t-30.5 -14.5t-10 -27.5q0 -15 8 -55q13 -66 19 -104.5t6 -66.5q0 -48 -23 -69.5t-75.5 -28.5t-163.5 -6v104h32z" />
    <glyph glyph-name="bar_bracketright.lig" 
d="M-260 789h120v-902h-120v902zM3 -127v99h161v710h-161v99h277v-908h-277z" />
    <glyph glyph-name="bar_bar.lig" 
d="M140 789h120v-902h-120v902zM-260 789h120v-902h-120v902z" />
    <glyph glyph-name="bar_bar_hyphen.lig" 
d="M-823 569h120v-502h-120v502zM-523 569h120v-196h625v-110h-625v-196h-120v502z" />
    <glyph glyph-name="bar_bar_bar_greater.lig" 
d="M-650 -74v762h116l584 -325v-112l-584 -325h-116zM-1250 688h116v-762h-116v762zM-950 688h116v-762h-116v762zM-68 307l-466 255v-510z" />
    <glyph glyph-name="bar_bar_equal.lig" 
d="M-528 688h116v-229h636v-103h-636v-96h636v-103h-636v-231h-116v762zM-828 688h116v-762h-116v762z" />
    <glyph glyph-name="bar_bar_greater.lig" 
d="M-500 -74v762h116l584 -325v-112l-584 -325h-116zM-800 688h116v-762h-116v762zM82 307l-466 255v-510z" />
    <glyph glyph-name="bar_equal.lig" 
d="M-377 688h116v-229h636v-103h-636v-96h636v-103h-636v-231h-116v762z" />
    <glyph glyph-name="bar_equal_greater.lig" 
d="M203 155h-1168v-98h-120v502h120v-98h1168l-124 124h155l257 -258v-37l-257 -258h-155zM311 262l46 46l-46 46h-1276v-92h1276z" />
    <glyph glyph-name="bar_greater.lig" 
d="M-350 -74v762h116l584 -325v-112l-584 -325h-116zM232 307l-466 255v-510z" />
    <glyph glyph-name="dollar_greater.lig" 
d="M96 140l331 165v2l-391 198q-58 29 -99 41.5t-89 15.5v-166q76 -25 116.5 -50.5t58 -61.5t17.5 -92q0 -65 -17.5 -102t-59 -55t-115.5 -22v-121h-96v121q-77 5 -119 25.5t-58.5 62.5t-13.5 114h120q2 -44 17.5 -65.5t53.5 -28.5v191q-73 23 -112.5 47t-56.5 56t-17 81
q0 62 17 97.5t57 53t112 21.5v110h96v-110q60 -2 100.5 -12t87.5 -32l508 -261v-114l-448 -238v129zM-300 460q15 -15 52 -30v132q-37 -4 -52 -20t-15 -49q0 -18 15 -33zM-95 140q16 17 16 51q0 30 -16.5 50t-56.5 38v-160q41 4 57 21z" />
    <glyph glyph-name="plus_plus.lig" 
d="M-298 256h-202v106h202v210h118v-210h364v210h118v-210h202v-106h-202v-216h-118v216h-364v-216h-118v216z" />
    <glyph glyph-name="plus_plus_plus.lig" 
d="M-841 256h-202v106h202v210h118v-210h364v210h118v-210h364v210h118v-210h202v-106h-202v-216h-118v216h-364v-216h-118v216h-364v-216h-118v216z" />
    <glyph glyph-name="plus_greater.lig" 
d="M-319 256h-202v106h202v210h118v-210h202v-106h-202v-216h-118v216zM16 141l371 165v2l-371 165v129l488 -238v-114l-488 -238v129z" />
    <glyph glyph-name="equal_colon.lig" 
d="M-552 456h604v-107h-604v107zM-552 256h604v-107h-604v107zM204 213h190v-183h-190v183zM204 586h190v-183h-190v183z" />
    <glyph glyph-name="equal_colon_equal.lig" 
d="M-52 456h604v-107h-604v107zM-1152 256h604v-107h-604v107zM-1152 456h604v-107h-604v107zM-396 213h190v-183h-190v183zM-396 586h190v-183h-190v183zM-52 256h604v-107h-604v107z" />
    <glyph glyph-name="equal_exclam_equal.lig" 
d="M-112 456h604v-107h-604v107zM-1092 256h604v-107h-604v107zM-1092 456h604v-107h-604v107zM-385 165h171v-165h-171v165zM-361 731h122v-318l-15 -155h-92l-15 155v318zM-112 256h604v-107h-604v107z" />
    <glyph glyph-name="equal_equal.lig" 
d="M-502 461h1004v-107h-1004v107zM-502 262h1004v-107h-1004v107z" />
    <glyph glyph-name="equal_equal_equal.lig" 
d="M-1077 561h1554v-107h-1554v107zM-1077 163h1554v-107h-1554v107zM-1077 362h1554v-107h-1554v107z" />
    <glyph glyph-name="equal_equal_greater.lig" 
d="M203 155h-1287v107h1395l46 46l-46 46h-1395v107h1287l-124 124h155l257 -258v-37l-257 -258h-155z" />
    <glyph glyph-name="equal_greater.lig" 
d="M247 155h-789v107h897l46 46l-46 46h-897v107h789l-124 124h155l257 -258v-37l-257 -258h-155z" />
    <glyph glyph-name="equal_greater_greater.lig" 
d="M354 308l-278 277h155l257 -258v-37l-257 -258h-155zM-1087 262h1095l46 46l-46 46h-1095v107h987l-124 124h155l257 -258v-37l-257 -258h-155l124 123h-987v107z" />
    <glyph glyph-name="equal_less_less.lig" 
d="M102 290v37l257 258h155l-278 -277l278 -276h-155zM-1111 262h941l-28 28v37l27 27h-940v107h1046l124 124h155l-278 -277l278 -276h-155l-123 123h-1047v107z" />
    <glyph glyph-name="equal_slash_equal.lig" 
d="M-1077 262h692l37 92h-729v107h772l66 165h121l-66 -165h661v-107h-704l-37 -92h741v-107h-784l-54 -134h-120l54 134h-650v107z" />
    <glyph glyph-name="greater_hyphen.lig" 
d="M-264 308l-278 277h155l221 -222h714v-110h-715l-220 -221h-155z" />
    <glyph glyph-name="greater_hyphen_greater.lig" 
d="M309 260l-86 -7h-992l-220 -221h-155l278 276l-278 277h155l221 -222h991l87 -7l-231 229h155l257 -258v-37l-257 -258h-155z" />
    <glyph glyph-name="greater_bracketright.lig" 
d="M-444 141l371 165v2l-371 165v129l488 -238v-114l-488 -238v129zM3 -127v99h161v710h-161v99h277v-908h-277z" />
    <glyph glyph-name="greater_colon.lig" 
d="M104 213h190v-183h-190v183zM104 586h190v-183h-190v183zM-504 141l371 165v2l-371 165v129l488 -238v-114l-488 -238v129z" />
    <glyph glyph-name="greater_equal.lig" 
d="M-295 285l424 121v2l-424 121v129l591 -194v-114l-591 -194v129zM-295 79l591 183v-112l-591 -183v112z" />
    <glyph glyph-name="greater_equal_greater.lig" 
d="M229 155h-1069l-123 -123h-155l278 276l-278 277h155l124 -124h1068l-124 124h155l257 -258v-37l-257 -258h-155zM337 262l46 46l-46 46h-1070l27 -27v-37l-28 -28h1071z" />
    <glyph glyph-name="greater_greater.lig" 
d="M16 141l371 165v2l-371 165v129l488 -238v-114l-488 -238v129zM-504 141l371 165v2l-371 165v129l488 -238v-114l-488 -238v129z" />
    <glyph glyph-name="greater_greater_hyphen.lig" 
d="M-566 308l-278 277h155l221 -222h956v-110h-957l-220 -221h-155zM-866 308l-278 277h155l257 -258v-37l-257 -258h-155z" />
    <glyph glyph-name="greater_greater_equal.lig" 
d="M-1114 32l278 276l-278 277h155l257 -258v-37l-257 -258h-155zM-536 308l-278 277h155l124 -124h1046v-107h-940l27 -27v-37l-28 -28h941v-107h-1047l-123 -123h-155z" />
    <glyph glyph-name="greater_greater_greater.lig" 
d="M-24 141l371 165v2l-371 165v129l488 -238v-114l-488 -238v129zM-544 141l371 165v2l-371 165v129l488 -238v-114l-488 -238v129zM-1064 141l371 165v2l-371 165v129l488 -238v-114l-488 -238v129z" />
    <glyph glyph-name="less_hyphen.lig" 
d="M-542 290v37l257 258h155l-231 -229l87 7h817v-110h-817l-86 7l230 -228h-155z" />
    <glyph glyph-name="less_hyphen_hyphen.lig" 
d="M-827 32l-257 258v37l257 258h155l-231 -229l87 7h1307v-110h-1307l-86 7l230 -228h-155z" />
    <glyph glyph-name="less_hyphen_bar.lig" 
d="M-1079 290v37l257 258h155l-231 -229l87 7h1171v196h120v-502h-120v196h-1171l-86 7l230 -228h-155z" />
    <glyph glyph-name="less_hyphen_greater.lig" 
d="M-1088 290v37l257 258h155l-231 -229l87 7h1039l87 -7l-231 229h155l257 -258v-37l-257 -258h-155l230 228l-86 -7h-1039l-86 7l230 -228h-155z" />
    <glyph glyph-name="less_hyphen_less.lig" 
d="M-860 32l-257 258v37l257 258h155l-231 -229l87 7h991l221 222h155l-278 -277l278 -276h-155l-220 221h-992l-86 7l230 -228h-155z" />
    <glyph glyph-name="less_colon.lig" 
d="M204 213h190v-183h-190v183zM-395 374l488 238v-129l-371 -165v-2l371 -165v-129l-488 238v114zM204 586h190v-183h-190v183z" />
    <glyph glyph-name="less_colon_less.lig" 
d="M-395 243h190v-183h-190v183zM-995 374l488 238v-129l-371 -165v-2l371 -165v-129l-488 238v114zM-395 586h190v-183h-190v183zM-95 374l488 238v-129l-371 -165v-2l371 -165v-129l-488 238v114z" />
    <glyph glyph-name="less_exclam_hyphen_hyphen.lig" 
d="M-1684 290v37l257 258h155l-231 -229l87 7h307v-110h-307l-86 7l230 -228h-155zM-1085 165h171v-165h-171v165zM-1061 731h122v-318l-15 -155h-92l-15 155v318zM-892 363h1385v-110h-1385v110z" />
    <glyph glyph-name="less_asterisk.lig" 
d="M-504 250v114l488 238v-129l-371 -165v-2l371 -165v-129zM292 150l-33 69l-33 -70l-54 -76l-101 73l50 70l67 60l-84 12l-86 28l35 109l92 -27l67 -39l-17 83v89h127v-89l-16 -82l68 38l93 29l36 -113l-88 -28l-84 -10l63 -58l54 -73l-98 -73z" />
    <glyph glyph-name="less_asterisk_greater.lig" 
d="M-24 141l371 165v2l-371 165v129l488 -238v-114l-488 -238v129zM-268 150l-33 69l-33 -70l-54 -76l-101 73l50 70l67 60l-84 12l-86 28l35 109l92 -27l67 -39l-17 83v89h127v-89l-16 -82l68 38l93 29l36 -113l-88 -28l-84 -10l63 -58l54 -73l-98 -73zM-1064 250v114
l488 238v-129l-371 -165v-2l371 -165v-129z" />
    <glyph glyph-name="less_bar.lig" 
d="M-350 251v112l584 325h116v-762h-116zM234 52v510l-466 -255z" />
    <glyph glyph-name="less_bar_bar.lig" 
d="M-800 251v112l584 325h116v-762h-116zM-216 52v510l-466 -255zM84 688h116v-762h-116v762z" />
    <glyph glyph-name="less_bar_bar_bar.lig" 
d="M-1250 251v112l584 325h116v-762h-116zM-666 52v510l-466 -255zM-366 688h116v-762h-116v762zM-66 688h116v-762h-116v762z" />
    <glyph glyph-name="less_bar_greater.lig" 
d="M-204 62l431 244v2l-431 244v129l548 -317v-114l-548 -317v129zM-944 364l548 317v-129l-431 -244v-2l431 -244v-129l-548 317v114zM-360 701h120v-788h-120v788z" />
    <glyph glyph-name="less_dollar.lig" 
d="M-544 250v114l448 238v-129l-331 -165v-2l401 -145q55 -21 94.5 -30.5t85.5 -11.5v192q-74 23 -114 47t-57 56.5t-17 81.5q0 62 17 98t57.5 53t113.5 21v107h96v-107q69 -5 107 -23.5t54.5 -56.5t16.5 -102h-122q-2 33 -14 50t-42 23v-164q75 -24 115.5 -49.5t57.5 -61.5
t17 -92q0 -64 -17.5 -101.5t-58.5 -55.5t-114 -22v-113h-96v112q-68 2 -106.5 8t-73.5 22zM100.5 460q15.5 -15 53.5 -31v133q-38 -4 -53.5 -19.5t-15.5 -49.5q0 -18 15.5 -33zM305 140q16 17 16 51q0 29 -16 49t-55 38v-159q39 4 55 21z" />
    <glyph glyph-name="less_dollar_greater.lig" 
d="M-4 140l331 165v2l-391 198q-58 29 -99 41.5t-89 15.5v-166q76 -25 116.5 -50.5t58 -61.5t17.5 -92q0 -65 -17.5 -102t-59 -55t-115.5 -22v-121h-96v120q-66 1 -104 8t-74 22l-518 208v114l448 238v-129l-331 -165v-2l401 -145q53 -20 92.5 -29.5t85.5 -12.5v193
q-73 23 -112.5 47t-56.5 56t-17 81q0 62 17 97.5t57 53t112 21.5v110h96v-110q60 -2 100.5 -12t87.5 -32l508 -261v-114l-448 -238v129zM-400 460q15 -15 52 -30v132q-37 -4 -52 -20t-15 -49q0 -18 15 -33zM-195 140q16 17 16 51q0 30 -16.5 50t-56.5 38v-160q41 4 57 21z
" />
    <glyph glyph-name="less_numbersign_hyphen_hyphen.lig" 
d="M-1684 290v37l257 258h155l-231 -229l87 7h187v-110h-187l-86 7l230 -228h-155zM-1176 273h102l28 135h-100l20 97h102l37 175h106l-38 -175h99l38 175h107l-37 -175h106l-20 -97h-106l-29 -135h106l-21 -98h-105l-38 -175h-108l37 175h-98l-37 -175h-107l37 175h-101z
M-867 269l31 143h-105l-31 -143h105zM-592 363h1085v-110h-1085v110z" />
    <glyph glyph-name="less_plus.lig" 
d="M-504 250v114l488 238v-129l-371 -165v-2l371 -165v-129zM201 256h-202v106h202v210h118v-210h202v-106h-202v-216h-118v216z" />
    <glyph glyph-name="less_plus_greater.lig" 
d="M-359 256h-202v106h202v210h118v-210h202v-106h-202v-216h-118v216zM-1064 250v114l488 238v-129l-371 -165v-2l371 -165v-129zM-24 141l371 165v2l-371 165v129l488 -238v-114l-488 -238v129z" />
    <glyph glyph-name="less_equal.lig" 
d="M-295 350v114l591 194v-129l-424 -121v-2l424 -121v-129zM-295 262l591 -183v-112l-591 183v112z" />
    <glyph glyph-name="less_equal_bar.lig" 
d="M-828 32l-257 258v37l257 258h155l-124 -124h1168v98h120v-502h-120v98h-1168l124 -123h-155zM-905 262h1276v92h-1276l-46 -46z" />
    <glyph glyph-name="less_equal_equal.lig" 
d="M-829 32l-257 258v37l257 258h155l-124 -124h1287v-107h-1395l-46 -46l46 -46h1395v-107h-1287l124 -123h-155z" />
    <glyph glyph-name="less_equal_equal_greater.lig" 
d="M203 155h-1601l124 -123h-155l-257 258v37l257 258h155l-124 -124h1601l-124 124h155l257 -258v-37l-257 -258h-155zM-1506 262h1817l46 46l-46 46h-1817l-46 -46z" />
    <glyph glyph-name="less_equal_greater.lig" 
d="M203 155h-1002l124 -123h-155l-257 258v37l257 258h155l-124 -124h1002l-124 124h155l257 -258v-37l-257 -258h-155zM-907 262h1218l46 46l-46 46h-1218l-46 -46z" />
    <glyph glyph-name="less_equal_less.lig" 
d="M-857 32l-257 258v37l257 258h155l-124 -124h1068l124 124h155l-278 -277l278 -276h-155l-123 123h-1069l124 -123h-155zM-934 262h1071l-28 28v37l27 27h-1070l-46 -46z" />
    <glyph glyph-name="less_greater.lig" 
d="M-488 250v114l488 238v-129l-371 -165v-2l371 -165v-129zM0 141l371 165v2l-371 165v129l488 -238v-114l-488 -238v129z" />
    <glyph glyph-name="less_less.lig" 
d="M16 250v114l488 238v-129l-371 -165v-2l371 -165v-129zM-504 250v114l488 238v-129l-371 -165v-2l371 -165v-129z" />
    <glyph glyph-name="less_less_hyphen.lig" 
d="M-530 32l-257 258v37l257 258h155l-231 -229l87 7h1007v-110h-1007l-86 7l230 -228h-155zM-1087 327l257 258h155l-278 -277l278 -276h-155l-257 258v37z" />
    <glyph glyph-name="less_less_equal.lig" 
d="M-826 32l-257 258v37l257 258h155l-278 -277l278 -276h-155zM-783 327l257 258h155l-124 -124h987v-107h-1095l-46 -46l46 -46h1095v-107h-987l124 -123h-155l-257 258v37z" />
    <glyph glyph-name="less_less_less.lig" 
d="M-24 250v114l488 238v-129l-371 -165v-2l371 -165v-129zM-544 250v114l488 238v-129l-371 -165v-2l371 -165v-129zM-1064 250v114l488 238v-129l-371 -165v-2l371 -165v-129z" />
    <glyph glyph-name="less_less_asciitilde.lig" 
d="M-489 250v114l488 238v-129l-371 -165v-2l371 -165v-129zM205.5 194q-21.5 6 -42 21.5t-53.5 48.5q-32 33 -46.5 45.5t-21.5 15.5t-19 3q-14 0 -19 -3t-6.5 -16t-1.5 -49v-32h-115q-1 90 9.5 130t40 53.5t97.5 13.5q35 0 57 -6t43.5 -21.5t53.5 -48.5q27 -27 43.5 -42.5
t23 -18.5t17.5 -3q15 0 20.5 3t7 17t1.5 52v32h114q1 -92 -9.5 -132.5t-40.5 -54.5t-98 -14q-34 0 -55.5 6zM-1009 250v114l488 238v-129l-371 -165v-2l371 -165v-129z" />
    <glyph glyph-name="less_asciitilde.lig" 
d="M-449 250v114l488 238v-129l-371 -165v-2l371 -165v-129zM245.5 194q-21.5 6 -42 21.5t-53.5 48.5q-32 33 -46.5 45.5t-21.5 15.5t-19 3q-14 0 -19 -3t-6.5 -16t-1.5 -49v-32h-115q-1 90 9.5 130t40 53.5t97.5 13.5q35 0 57 -6t43.5 -21.5t53.5 -48.5q27 -27 43.5 -42.5
t23 -18.5t17.5 -3q15 0 20.5 3t7 17t1.5 52v32h114q1 -92 -9.5 -132.5t-40.5 -54.5t-98 -14q-34 0 -55.5 6z" />
    <glyph glyph-name="less_asciitilde_greater.lig" 
d="M-1144 250v114l488 238v-129l-371 -165v-2l371 -165v-129zM-769 360.5q9 38.5 37.5 50.5t100.5 12q37 0 56 -5t37.5 -20t53.5 -54q26 -30 38.5 -42t21 -15.5t21.5 -3.5t19.5 6.5t21.5 36.5q24 47 39 66t36 25t65 6q39 0 58.5 -4.5t37.5 -19t50 -50.5q23 -26 39 -42
t24 -20t19 -4q15 0 21 6.5t8 27t2 70.5h110q1 -96 -8 -134.5t-37.5 -50.5t-100.5 -12q-37 0 -56 5t-37.5 20t-53.5 54q-26 30 -38.5 42t-21 15.5t-21.5 3.5t-19 -6.5t-20 -35.5q-21 -48 -35.5 -67t-36.5 -25t-70 -6q-39 0 -58.5 4.5t-37.5 19t-50 50.5q-23 26 -39 42t-24 20
t-19 4q-15 0 -21 -6.5t-8 -27t-2 -70.5h-110q-1 96 8 134.5zM56 141l371 165v2l-371 165v129l488 -238v-114l-488 -238v129z" />
    <glyph glyph-name="less_asciitilde_asciitilde.lig" 
d="M-947 250v114l488 238v-129l-371 -165v-2l371 -165v-129zM-572 360.5q9 38.5 37.5 50.5t100.5 12q37 0 56 -5t37.5 -20t53.5 -54q26 -30 38.5 -42t21 -15.5t21.5 -3.5t19.5 6.5t21.5 36.5q24 47 39 66t36 25t65 6q39 0 58.5 -4.5t37.5 -19t50 -50.5q23 -26 39 -42t24 -20
t19 -4q15 0 21 6.5t8 27t2 70.5h110q1 -96 -8 -134.5t-37.5 -50.5t-100.5 -12q-37 0 -56 5t-37.5 20t-53.5 54q-26 30 -38.5 42t-21 15.5t-21.5 3.5t-19 -6.5t-20 -35.5q-21 -48 -35.5 -67t-36.5 -25t-70 -6q-39 0 -58.5 4.5t-37.5 19t-50 50.5q-23 26 -39 42t-24 20t-19 4
q-15 0 -21 -6.5t-8 -27t-2 -70.5h-110q-1 96 8 134.5z" />
    <glyph glyph-name="less_slash.lig" 
d="M186 -127h-121l58 148l-563 269v114l488 238v-129l-371 -165v-2l489 -218l258 653h120z" />
    <glyph glyph-name="less_slash_greater.lig" 
d="M-52 141l371 165v2l-491 219l-215 -545v-3h-1l-42 -106h-120l61 155l-549 262v114l488 238v-129l-371 -165v-2l474 -211l255 646h121l-58 -147l565 -270v-114l-488 -238v129z" />
    <glyph glyph-name="asciitilde_hyphen.lig" 
d="M-121.5 186q-21.5 6 -42 21.5t-53.5 48.5q-32 33 -46.5 45.5t-21.5 15.5t-19 3q-14 0 -19 -3t-6.5 -16t-1.5 -49v-32h-115q-1 90 9.5 130t40 53.5t97.5 13.5q35 0 57 -6t43.5 -21.5t53.5 -48.5q27 -27 43.5 -42.5t23 -18.5t17.5 -3q17 0 22 4t6 19.5t1 72.5h480v-110
h-372q-6 -35 -21.5 -52.5t-43.5 -24t-77 -6.5q-34 0 -55.5 6z" />
    <glyph glyph-name="asciitilde_at.lig" 
d="M-125 194q-22 6 -43.5 21.5t-53.5 48.5q-27 27 -43.5 42.5t-23 18.5t-17.5 3q-15 0 -20.5 -3t-7 -17t-1.5 -52v-32h-114q-1 92 9.5 132.5t40.5 54.5t98 14q34 0 55.5 -6t42 -21.5t53.5 -48.5q32 -33 46.5 -45.5t21.5 -15.5t19 -3q14 0 18.5 2.5t6.5 13t2 39.5v171
q0 81 14.5 121t52.5 56.5t116 16.5h199q58 0 87.5 -16.5t41 -57.5t11.5 -121v-46l-1 -369h-73q-4 2 -16 36h-8q-12 -19 -19.5 -26.5t-19.5 -9.5t-39 -2q-82 0 -113.5 9.5t-44 49.5t-12.5 140q0 99 12 139t43 49.5t111 9.5q22 0 33.5 -6t37.5 -34h7v60q0 45 -2.5 62.5
t-9.5 22.5t-26 5h-200q-36 0 -50 -5t-18 -21.5t-4 -60.5v-128v-29v-279q0 -39 3.5 -53t17 -18.5t48.5 -4.5h217v-104h-215q-77 0 -114.5 15t-52 52t-14.5 111v114q-10 -1 -32 -1q-35 0 -57 6zM252 222q6 -20 19.5 -24.5t47.5 -4.5t45 4.5t13.5 21.5t2.5 70q0 56 -2.5 74
t-13.5 22.5t-45 4.5t-47.5 -4.5t-19.5 -25t-6 -69.5t6 -69z" />
    <glyph glyph-name="asciitilde_greater.lig" 
d="M-39 141l371 165v2l-371 165v129l488 -238v-114l-488 -238v129zM-439.5 356.5q10.5 40.5 40.5 54.5t98 14q34 0 55.5 -6t42 -21.5t53.5 -48.5q32 -33 46.5 -45.5t21.5 -15.5t19 -3q14 0 19 3t6.5 16t1.5 49v32h115q1 -90 -9.5 -130t-40 -53.5t-97.5 -13.5q-35 0 -57 6
t-43.5 21.5t-53.5 48.5q-27 27 -43.5 42.5t-23 18.5t-17.5 3q-15 0 -20.5 -3t-7 -17t-1.5 -52v-32h-114q-1 92 9.5 132.5z" />
    <glyph glyph-name="asciitilde_asciitilde.lig" 
d="M260 195q-19 5 -37.5 20t-53.5 54q-26 30 -38.5 42t-21 15.5t-21.5 3.5t-19 -6.5t-20 -35.5q-21 -48 -35.5 -67t-36.5 -25t-70 -6q-39 0 -58.5 4.5t-37.5 19t-50 50.5q-23 26 -39 42t-24 20t-19 4q-15 0 -21 -6.5t-8 -27t-2 -70.5h-110q-1 96 8 134.5t37.5 50.5t100.5 12
q37 0 56 -5t37.5 -20t53.5 -54q26 -30 38.5 -42t21 -15.5t21.5 -3.5t19.5 6.5t21.5 36.5q24 47 39 66t36 25t65 6q39 0 58.5 -4.5t37.5 -19t50 -50.5q23 -26 39 -42t24 -20t19 -4q15 0 21 6.5t8 27t2 70.5h110q1 -96 -8 -134.5t-37.5 -50.5t-100.5 -12q-37 0 -56 5z" />
    <glyph glyph-name="asciitilde_asciitilde_greater.lig" 
d="M-143 141l371 165v2l-371 165v129l488 -238v-114l-488 -238v129zM-937 360.5q9 38.5 37.5 50.5t100.5 12q37 0 56 -5t37.5 -20t53.5 -54q26 -30 38.5 -42t21 -15.5t21.5 -3.5t19 6.5t20 35.5q21 48 35.5 67t36.5 25t70 6q39 0 58.5 -4.5t37.5 -19t50 -50.5q23 -26 39 -42
t24 -20t19 -4q15 0 21 6.5t8 27t2 70.5h110q1 -96 -8 -134.5t-37.5 -50.5t-100.5 -12q-37 0 -56 5t-37.5 20t-53.5 54q-26 30 -38.5 42t-21 15.5t-21.5 3.5t-19.5 -6.5t-21.5 -36.5q-24 -47 -39 -66t-36 -25t-65 -6q-39 0 -58.5 4.5t-37.5 19t-50 50.5q-23 26 -39 42t-24 20
t-19 4q-15 0 -21 -6.5t-8 -27t-2 -70.5h-110q-1 96 8 134.5z" />
    <glyph glyph-name="asciicircum_equal.lig" 
d="M-267 743h131l155 -287h433v-107h-564v107l-89 164l-90 -164h-131zM-112 256h564v-107h-564v107z" />
    <glyph glyph-name="less_equal.lig.ss07" 
d="M-285 32l-257 258v37l257 258h155l-124 -124h789v-107h-897l-46 -46l46 -46h897v-107h-789l124 -123h-155z" />
    <glyph glyph-name="equal_equal.lig.ss08" 
d="M48 461h454v-107h-454v107zM-502 262h454v-107h-454v107zM-502 461h454v-107h-454v107zM48 262h454v-107h-454v107z" />
    <glyph glyph-name="equal_equal_equal.lig.ss08" 
d="M23 461h454v-107h-454v107zM-1077 262h454v-107h-454v107zM-1077 461h454v-107h-454v107zM-527 262h454v-107h-454v107zM-527 461h454v-107h-454v107zM23 262h454v-107h-454v107z" />
    <glyph glyph-name="dieresis.001" 
d="M327 753h144v-138h-144v138zM125 753h144v-138h-144v138z" />
    <glyph glyph-name="lig.spacer" 
 />
  </font>
</defs>
</svg>
